<svg width="19" height="19" viewBox="0 0 19 19" fill="none" xmlns="http://www.w3.org/2000/svg">
<path d="M18.4062 10.6875H0.59375C0.432943 10.6875 0.293783 10.6287 0.17627 10.5112C0.0587565 10.3937 0 10.2546 0 10.0938C0 9.93294 0.0587565 9.79378 0.17627 9.67627C0.293783 9.55876 0.432943 9.5 0.59375 9.5H15.4375V2.96875C15.4375 2.47396 15.2643 2.05339 14.918 1.70703C14.5716 1.36068 14.151 1.1875 13.6562 1.1875C13.1615 1.1875 12.7409 1.36068 12.3945 1.70703C12.0482 2.05339 11.875 2.47396 11.875 2.96875V3.5625L13.0625 4.75H9.5L10.6875 3.5625V2.96875C10.6875 2.15234 10.9782 1.45345 11.5596 0.87207C12.141 0.29069 12.8398 0 13.6562 0C14.4727 0 15.1715 0.29069 15.7529 0.87207C16.3343 1.45345 16.625 2.15234 16.625 2.96875V9.5H18.4062C18.5671 9.5 18.7062 9.55876 18.8237 9.67627C18.9412 9.79378 19 9.93294 19 10.0938C19 10.2546 18.9412 10.3937 18.8237 10.5112C18.7062 10.6287 18.5671 10.6875 18.4062 10.6875ZM17.8125 14.25C17.8125 15.0046 17.4538 15.6973 16.7363 16.3281C16.0189 16.959 15.1901 17.3981 14.25 17.6455V18.4062C14.25 18.5671 14.1912 18.7062 14.0737 18.8237C13.9562 18.9412 13.8171 19 13.6562 19C13.4954 19 13.3563 18.9412 13.2388 18.8237C13.1213 18.7062 13.0625 18.5671 13.0625 18.4062V17.8125H5.9375V18.4062C5.9375 18.5671 5.87874 18.7062 5.76123 18.8237C5.64372 18.9412 5.50456 19 5.34375 19C5.18294 19 5.04378 18.9412 4.92627 18.8237C4.80876 18.7062 4.75 18.5671 4.75 18.4062V17.6455C3.8099 17.3981 2.98112 16.959 2.26367 16.3281C1.54622 15.6973 1.1875 15.0046 1.1875 14.25V11.875H17.8125V14.25Z" fill="black"/>
</svg>
