<svg width="21" height="13" viewBox="0 0 21 13" fill="none" xmlns="http://www.w3.org/2000/svg">
<path d="M5.40617 5.07955H8.84187L7.38927 2.94621C7.04644 2.48182 6.6121 2.09342 6.11334 1.80525C5.61459 1.51708 5.06212 1.33531 4.4904 1.27129L3.78936 1.27002V3.22558C3.7501 3.45344 3.76092 3.68718 3.82107 3.9104C3.88121 4.13361 3.98922 4.34089 4.13751 4.51768C4.2858 4.69447 4.47078 4.83649 4.67947 4.93378C4.88816 5.03106 5.1155 5.08125 5.34553 5.08082L5.40869 5.07955H5.40617Z" fill="black"/>
<path d="M16.4206 5.07948V4.72393V4.71123C16.4207 4.1423 16.1987 3.59606 15.8023 3.18998C15.406 2.78391 14.8669 2.55044 14.3011 2.53979H8.37451C9.00607 3.3271 10.105 5.07948 10.105 5.07948H16.4206Z" fill="black"/>
<path d="M18.9469 2.66667C18.6119 2.66667 18.2906 2.80046 18.0537 3.0386C17.8168 3.27674 17.6838 3.59973 17.6838 3.93652V6.34922H2.52625V1.26984C2.52625 0.93306 2.39317 0.61007 2.15629 0.371929C1.91941 0.133787 1.59813 0 1.26313 0C0.928123 0 0.606843 0.133787 0.369961 0.371929C0.133079 0.61007 0 0.93306 0 1.26984L0 12.6984H2.52625V10.1588H17.6838V12.6984H20.21V3.93652C20.21 3.59973 20.0769 3.27674 19.84 3.0386C19.6032 2.80046 19.2819 2.66667 18.9469 2.66667Z" fill="black"/>
</svg>
