<svg width="147" height="147" viewBox="0 0 147 147" fill="none" xmlns="http://www.w3.org/2000/svg">
<path d="M73.5 147C114.093 147 147 114.093 147 73.5C147 32.9071 114.093 0 73.5 0C32.907 0 0 32.9071 0 73.5C0 114.093 32.907 147 73.5 147Z" fill="#283891"/>
<path d="M106.955 46.024C107.889 46.7793 94.0503 65.1862 76.0511 87.1178L65.1272 100.21L63.6273 102L62.0424 100.377C47.8922 86.0268 38.3549 75.3967 39.0341 74.7253C39.7133 74.054 50.4957 83.5371 64.9856 97.4402L61.9292 97.7479L72.6268 84.5162C90.6259 62.4448 105.993 45.2687 106.955 46.024Z" fill="white"/>
</svg>
