<svg width="139" height="146" viewBox="0 0 139 146" fill="none" xmlns="http://www.w3.org/2000/svg">
<path d="M1.01874 55.072L135.084 54.1055L138.82 145.251L0.00186157 143.962L1.01874 55.072Z" fill="#283891"/>
<path d="M1.01874 55.072L69.0785 0L135.084 54.1054" fill="#283891"/>
<g opacity="0.3">
<path opacity="0.3" d="M1.01874 55.072L69.0785 0L135.084 54.1054" fill="black"/>
</g>
<path d="M0.00201899 143.962C-0.169137 143.811 10.5634 132.092 23.974 117.786C37.3845 103.479 48.3788 92.0216 48.5499 92.1826C48.7211 92.3437 37.9886 104.053 24.578 118.359C11.1674 132.666 0.173175 144.124 0.00201899 143.962Z" fill="#263238"/>
<path d="M138.82 145.251C138.649 145.402 128.198 133.925 115.482 119.608C102.766 105.291 92.5875 93.562 92.7586 93.4311C92.9298 93.3002 103.38 104.758 116.096 119.074C128.812 133.391 138.991 145.1 138.82 145.251Z" fill="#263238"/>
<g opacity="0.5">
<path opacity="0.5" d="M135.084 54.1055L67.7595 107.889L1.01874 55.072" fill="black"/>
</g>
<path d="M7.7746 60.0556L7.57324 21.0623L124.996 18.1828L126.275 60.851L67.7598 107.184L7.7746 60.0556Z" fill="#EBEBEB"/>
<path d="M69.4011 93.1693C65.2817 93.1801 61.2067 92.3192 57.4438 90.643C53.6809 88.9668 50.3153 86.5133 47.5681 83.4437C44.8209 80.3742 42.7544 76.7581 41.5042 72.833C40.2541 68.9079 39.8487 64.7627 40.3146 60.6698C41.1864 52.9716 45.0806 45.9351 51.1405 41.1081C57.2004 36.2811 64.9297 34.0591 72.6279 34.9309C80.3261 35.8028 87.3626 39.697 92.1896 45.7569C97.0166 51.8168 99.2385 59.546 98.3667 67.2442C97.5633 74.3679 94.1672 80.947 88.8255 85.728C83.4838 90.509 76.5699 93.1576 69.4011 93.1693ZM69.3205 35.7817C63.8824 35.7875 58.562 37.3662 54.0008 40.3273C49.4395 43.2884 45.8321 47.5056 43.6134 52.4705C41.3946 57.4354 40.6593 62.9361 41.496 68.3095C42.3327 73.6828 44.7057 78.6995 48.329 82.7548C51.9523 86.81 56.6712 89.7307 61.9169 91.1647C67.1625 92.5988 72.7109 92.485 77.8934 90.837C83.0758 89.1891 87.671 86.0774 91.1249 81.877C94.5789 77.6766 96.7442 72.5668 97.3599 67.1637C97.7803 63.4824 97.4708 59.7544 96.4492 56.1928C95.4276 52.6312 93.7139 49.306 91.4061 46.4072C89.0983 43.5085 86.2418 41.0931 82.9998 39.2993C79.7578 37.5054 76.1939 36.3683 72.5121 35.9528C71.4534 35.8157 70.3879 35.7384 69.3205 35.7213V35.7817Z" fill="#283891"/>
<path d="M49.4861 68.0094L54.3691 62.029L65.7863 70.2747L84.3416 48.407L89.9394 53.3302L66.0682 80.836L49.4861 68.0094Z" fill="#283891"/>
</svg>
