<svg width="109" height="109" viewBox="0 0 109 109" fill="none" xmlns="http://www.w3.org/2000/svg">
<path d="M54.5 0C43.7209 0 33.1839 3.19637 24.2214 9.18491C15.259 15.1734 8.27356 23.6852 4.14859 33.6437C0.0236138 43.6023 -1.05567 54.5604 1.04723 65.1324C3.15012 75.7044 8.34074 85.4153 15.9627 93.0373C23.5847 100.659 33.2956 105.85 43.8676 107.953C54.4396 110.056 65.3977 108.976 75.3563 104.851C85.3148 100.726 93.8266 93.741 99.8151 84.7786C105.804 75.8161 109 65.2791 109 54.5C109 40.0457 103.258 26.1834 93.0373 15.9627C82.8166 5.74195 68.9543 0 54.5 0ZM49.7313 22.8219C49.7313 21.5571 50.2337 20.3442 51.128 19.4499C52.0223 18.5555 53.2353 18.0531 54.5 18.0531C55.7648 18.0531 56.9777 18.5555 57.872 19.4499C58.7663 20.3442 59.2688 21.5571 59.2688 22.8219V63.6969C59.2688 64.9616 58.7663 66.1746 57.872 67.0689C56.9777 67.9632 55.7648 68.4656 54.5 68.4656C53.2353 68.4656 52.0223 67.9632 51.128 67.0689C50.2337 66.1746 49.7313 64.9616 49.7313 63.6969V22.8219ZM54.5 90.2656C53.2874 90.2656 52.102 89.906 51.0937 89.2323C50.0854 88.5586 49.2995 87.601 48.8355 86.4807C48.3714 85.3603 48.25 84.1276 48.4866 82.9382C48.7232 81.7489 49.3071 80.6564 50.1646 79.7989C51.022 78.9414 52.1145 78.3575 53.3039 78.1209C54.4932 77.8843 55.726 78.0058 56.8463 78.4698C57.9667 78.9339 58.9243 79.7197 59.598 80.728C60.2717 81.7363 60.6313 82.9217 60.6313 84.1344C60.6313 85.7605 59.9853 87.32 58.8355 88.4698C57.6856 89.6196 56.1261 90.2656 54.5 90.2656Z" fill="#283891"/>
</svg>
