<svg width="25" height="23" viewBox="0 0 25 23" fill="none" xmlns="http://www.w3.org/2000/svg">
<path d="M20.2388 1.5H24.65V4H20.2388C19.7719 4.74725 18.8994 5.25 17.9 5.25C16.9006 5.25 16.028 4.74725 15.5612 4H0.349983V1.5H15.5612C16.028 0.752748 16.9006 0.25 17.9 0.25C18.8994 0.25 19.7719 0.752748 20.2388 1.5Z" fill="black"/>
<path d="M24.65 10.25H9.43877C8.97193 9.50275 8.09936 9 7.09998 9C6.1006 9 5.22804 9.50275 4.7612 10.25H0.349983V12.75H4.7612C5.22804 13.4973 6.1006 14 7.09998 14C8.09936 14 8.97193 13.4973 9.43877 12.75H24.65V10.25Z" fill="black"/>
<path d="M10.1612 19H0.349983V21.5H10.1612C10.628 22.2473 11.5006 22.75 12.5 22.75C13.4994 22.75 14.3719 22.2473 14.8388 21.5H24.65V19H14.8388C14.3719 18.2527 13.4994 17.75 12.5 17.75C11.5006 17.75 10.628 18.2527 10.1612 19Z" fill="black"/>
</svg>
