<svg width="24" height="14" viewBox="0 0 24 14" fill="none" xmlns="http://www.w3.org/2000/svg">
<path d="M6 5.83333V8.16667H18V5.83333C18 4.54635 19.0763 3.5 20.4 3.5H21.6C21.6 1.56771 19.9875 0 18 0H6C4.0125 0 2.4 1.56771 2.4 3.5H3.6C4.92375 3.5 6 4.54635 6 5.83333ZM21.6 4.66667H20.4C19.7362 4.66667 19.2 5.18802 19.2 5.83333V9.33333H4.8V5.83333C4.8 5.18802 4.26375 4.66667 3.6 4.66667H2.4C1.07625 4.66667 0 5.71302 0 7C0 7.86042 0.4875 8.60417 1.2 9.00885V13.4167C1.2 13.7375 1.47 14 1.8 14H4.2C4.53 14 4.8 13.7375 4.8 13.4167V12.8333H19.2V13.4167C19.2 13.7375 19.47 14 19.8 14H22.2C22.53 14 22.8 13.7375 22.8 13.4167V9.00885C23.5125 8.60417 24 7.86042 24 7C24 5.71302 22.9238 4.66667 21.6 4.66667Z" fill="black"/>
</svg>
