<svg width="232" height="173" viewBox="0 0 232 173" fill="none" xmlns="http://www.w3.org/2000/svg">
<path d="M232 151.914H0V152.03H232V151.914Z" fill="#E0E0E0"/>
<path d="M44.9059 154.716H40.0432V154.832H44.9059V154.716Z" fill="#E0E0E0"/>
<path d="M209.691 157.76H191.168V157.876H209.691V157.76Z" fill="#E0E0E0"/>
<path d="M195.882 154.772H181.656V154.888H195.882V154.772Z" fill="#E0E0E0"/>
<path d="M154.359 157.417H131.242V157.533H154.359V157.417Z" fill="#E0E0E0"/>
<path d="M90.6842 156.684H66.352V156.8H90.6842V156.684Z" fill="#E0E0E0"/>
<path d="M182.77 157.76H176.608V157.876H182.77V157.76Z" fill="#E0E0E0"/>
<path d="M37.7696 156.628H30.1275V156.744H37.7696V156.628Z" fill="#E0E0E0"/>
<path d="M109.968 131.219H20.3742C19.6724 131.218 18.9997 130.938 18.5038 130.442C18.0079 129.945 17.7294 129.272 17.7294 128.57V2.62624C17.7355 1.9284 18.0167 1.26114 18.5119 0.769413C19.0071 0.277685 19.6764 0.00119544 20.3742 0H109.968C110.671 0 111.345 0.279137 111.841 0.776003C112.338 1.27287 112.617 1.94676 112.617 2.64944V128.57C112.617 129.272 112.338 129.946 111.841 130.443C111.345 130.94 110.671 131.219 109.968 131.219ZM20.3742 0.0928003C19.7031 0.0940295 19.0599 0.361486 18.5858 0.836465C18.1117 1.31144 17.8454 1.95513 17.8454 2.62624V128.57C17.8454 129.241 18.1117 129.885 18.5858 130.36C19.0599 130.835 19.7031 131.102 20.3742 131.103H109.968C110.64 131.102 111.283 130.835 111.758 130.36C112.233 129.885 112.5 129.241 112.501 128.57V2.62624C112.5 1.95471 112.233 1.31103 111.758 0.836182C111.283 0.361335 110.64 0.0940269 109.968 0.0928003H20.3742Z" fill="#E0E0E0"/>
<path d="M210.336 131.219H120.737C120.035 131.218 119.362 130.938 118.865 130.442C118.369 129.945 118.089 129.272 118.088 128.57V2.62624C118.095 1.92797 118.378 1.26072 118.874 0.769123C119.369 0.277522 120.039 0.00118241 120.737 0H210.336C211.033 0.00241489 211.701 0.279444 212.195 0.771042C212.689 1.26264 212.97 1.9292 212.976 2.62624V128.57C212.976 129.271 212.698 129.943 212.203 130.44C211.708 130.937 211.037 131.217 210.336 131.219ZM120.737 0.0928003C120.066 0.0940269 119.422 0.361335 118.947 0.836182C118.473 1.31103 118.205 1.95471 118.204 2.62624V128.57C118.205 129.241 118.473 129.885 118.947 130.36C119.422 130.835 120.066 131.102 120.737 131.103H210.336C211.007 131.102 211.651 130.835 212.126 130.36C212.601 129.885 212.868 129.241 212.869 128.57V2.62624C212.868 1.95471 212.601 1.31103 212.126 0.836182C211.651 0.361335 211.007 0.0940269 210.336 0.0928003H120.737Z" fill="#E0E0E0"/>
<path d="M32.0531 107.977L101.978 107.977L101.978 11.2566L32.0531 11.2566L32.0531 107.977Z" fill="#E0E0E0"/>
<path d="M30.4987 107.977L100.424 107.977L100.424 11.2566L30.4987 11.2566L30.4987 107.977Z" fill="#F0F0F0"/>
<path d="M97.6349 105.156V14.0778L33.2874 14.0778V105.156H97.6349Z" fill="#FAFAFA"/>
<path d="M58.0603 105.161L58.0603 14.0824H53.8565L53.8565 105.161H58.0603Z" fill="#E0E0E0"/>
<path d="M80.1746 105.161V14.0824H75.9707V105.161H80.1746Z" fill="#E0E0E0"/>
<path d="M56.5801 106.947L56.5801 11.9805H52.3763L52.3763 106.947H56.5801Z" fill="#F0F0F0"/>
<path d="M78.699 106.952V11.9851H74.4952V106.952H78.699Z" fill="#F0F0F0"/>
<path d="M34.4613 105.156L34.4613 14.0778H33.2874L33.2874 105.156H34.4613Z" fill="#E0E0E0"/>
<path d="M29.3294 7.63278H104.131C104.226 7.63277 104.317 7.67027 104.385 7.73714C104.453 7.80402 104.492 7.89488 104.493 7.99006C104.493 8.08605 104.455 8.17811 104.387 8.24598C104.319 8.31385 104.227 8.35198 104.131 8.35198H29.3294C29.2335 8.35198 29.1414 8.31385 29.0735 8.24598C29.0057 8.17811 28.9675 8.08605 28.9675 7.99006C28.9687 7.89488 29.0074 7.80402 29.0752 7.73714C29.1429 7.67027 29.2343 7.63277 29.3294 7.63278Z" fill="#E0E0E0"/>
<path d="M27.1718 7.99008C27.1709 8.34655 27.2758 8.69526 27.4733 8.99203C27.6708 9.2888 27.9519 9.52027 28.281 9.65711C28.6102 9.79395 28.9726 9.82999 29.3222 9.76067C29.6719 9.69135 29.9931 9.5198 30.2452 9.26774C30.4972 9.01568 30.6688 8.69447 30.7381 8.34481C30.8074 7.99515 30.7714 7.63278 30.6345 7.30362C30.4977 6.97447 30.2662 6.69335 29.9694 6.49588C29.6727 6.29841 29.324 6.19349 28.9675 6.1944C28.4916 6.19563 28.0356 6.38521 27.6991 6.7217C27.3626 7.05819 27.173 7.51422 27.1718 7.99008Z" fill="#E0E0E0"/>
<path d="M101.096 10.0038C101.159 10.007 101.222 9.99731 101.281 9.97541C101.34 9.9535 101.394 9.91982 101.44 9.87642C101.485 9.83301 101.521 9.78079 101.546 9.72293C101.571 9.66507 101.584 9.60277 101.584 9.53984V8.47728C101.584 8.41434 101.571 8.35205 101.546 8.29418C101.521 8.23632 101.485 8.1841 101.44 8.1407C101.394 8.09729 101.34 8.06361 101.281 8.04171C101.222 8.0198 101.159 8.01013 101.096 8.01328C100.973 8.01328 100.855 8.06216 100.768 8.14918C100.681 8.2362 100.632 8.35422 100.632 8.47728V9.52128C100.63 9.58375 100.64 9.64609 100.662 9.70455C100.684 9.763 100.718 9.81637 100.761 9.86144C100.805 9.90651 100.857 9.94236 100.914 9.96683C100.972 9.9913 101.034 10.0039 101.096 10.0038Z" fill="#E0E0E0"/>
<path d="M34.7536 10.0038C34.8766 10.0038 34.9947 9.95495 35.0817 9.86793C35.1687 9.78092 35.2176 9.6629 35.2176 9.53984V8.47728C35.2176 8.35422 35.1687 8.2362 35.0817 8.14918C34.9947 8.06216 34.8766 8.01328 34.7536 8.01328C34.6907 8.01013 34.6279 8.0198 34.5689 8.04171C34.5099 8.06361 34.456 8.09729 34.4104 8.1407C34.3648 8.1841 34.3285 8.23632 34.3038 8.29418C34.279 8.35205 34.2663 8.41434 34.2664 8.47728V9.52128C34.2637 9.58575 34.2745 9.65008 34.2981 9.71015C34.3217 9.77021 34.3576 9.82469 34.4035 9.8701C34.4493 9.91551 34.5041 9.95086 34.5644 9.97389C34.6247 9.99692 34.6891 10.0071 34.7536 10.0038Z" fill="#E0E0E0"/>
<path opacity="0.4" d="M29.4455 54.8541L99.3192 54.8541V7.99008L29.4455 7.99008V54.8541Z" fill="#E0E0E0"/>
<path d="M93.5145 7.99008C93.5136 8.34634 93.6184 8.69487 93.8157 8.99154C94.0129 9.28822 94.2938 9.51969 94.6227 9.65666C94.9516 9.79363 95.3137 9.82995 95.6632 9.76101C96.0128 9.69207 96.334 9.52097 96.5862 9.26938C96.8385 9.01778 97.0104 8.69701 97.0802 8.34765C97.1501 7.9983 97.1147 7.63608 96.9786 7.30684C96.8424 6.9776 96.6117 6.69616 96.3155 6.49813C96.0194 6.3001 95.6711 6.1944 95.3149 6.1944C94.8382 6.1944 94.381 6.38343 94.0435 6.72006C93.706 7.05668 93.5158 7.51341 93.5145 7.99008Z" fill="#E0E0E0"/>
<path d="M146.471 71.5302C146.471 71.5302 152.54 61.0717 144.123 52.7475C144.123 52.7475 141.928 54.1813 141.961 56.1069C141.993 58.0325 144.313 58.515 143.817 60.1251C143.32 61.7352 141.13 63.3035 142.569 64.6352C144.007 65.9669 142.337 67.1408 142.434 68.7694C142.532 70.3981 146.471 71.5302 146.471 71.5302Z" fill="#E0E0E0"/>
<path d="M145.52 73.2424C145.52 73.2424 143.06 61.4011 153.672 56.1579C153.672 56.1579 155.305 58.2088 154.67 60.023C154.034 61.8373 151.677 61.5728 151.64 63.271C151.603 64.9693 153.19 67.1408 151.408 67.9482C149.626 68.7555 150.832 70.4027 150.229 71.9154C149.626 73.428 145.52 73.2424 145.52 73.2424Z" fill="#E6E6E6"/>
<path d="M153.255 66.7835C153.255 66.7835 153.106 81.1165 147.38 81.1165C141.655 81.1165 141.52 66.7835 141.52 66.7835H153.255Z" fill="#F0F0F0"/>
<path d="M187.683 75.7248C187.683 75.7248 187.363 81.1165 175.127 81.1165C162.892 81.1165 162.572 75.7248 162.572 75.7248H187.683Z" fill="#E6E6E6"/>
<path d="M62.8303 135.692H69.2891C70.0938 135.692 70.7461 135.04 70.7461 134.235V123.554C70.7461 122.749 70.0938 122.097 69.2891 122.097H62.8303C62.0256 122.097 61.3733 122.749 61.3733 123.554V134.235C61.3733 135.04 62.0256 135.692 62.8303 135.692Z" fill="#F0F0F0"/>
<path d="M45.704 135.688H50.0517C50.5924 135.688 51.0307 135.249 51.0307 134.708V127.516C51.0307 126.976 50.5924 126.537 50.0517 126.537H45.704C45.1633 126.537 44.7249 126.976 44.7249 127.516V134.708C44.7249 135.249 45.1633 135.688 45.704 135.688Z" fill="#E6E6E6"/>
<path d="M45.0544 126.681H50.7013C50.8832 126.681 51.0307 126.534 51.0307 126.352V125.981C51.0307 125.799 50.8832 125.651 50.7013 125.651H45.0544C44.8724 125.651 44.7249 125.799 44.7249 125.981V126.352C44.7249 126.534 44.8724 126.681 45.0544 126.681Z" fill="#F0F0F0"/>
<path d="M85.6961 128.124C85.6961 128.124 85.4641 135.688 76.6064 135.688C67.7486 135.688 67.5166 128.124 67.5166 128.124H85.6961Z" fill="#E6E6E6"/>
<path d="M107.727 135.688H94.3219V138.332H107.727V135.688Z" fill="#E0E0E0"/>
<path d="M27.6776 138.337H94.3219V135.692H27.6776V138.337Z" fill="#F0F0F0"/>
<path d="M107.727 142.745H94.3219V145.39H107.727V142.745Z" fill="#E0E0E0"/>
<path d="M27.6776 145.39H94.3219V142.745H27.6776V145.39Z" fill="#F0F0F0"/>
<path d="M102.897 151.914H105.37V138.332H102.897V151.914Z" fill="#E0E0E0"/>
<path d="M91.8488 151.914H94.3219V138.332H91.8488V151.914Z" fill="#F0F0F0"/>
<path d="M36.2523 151.914H38.7255V138.332H36.2523V151.914Z" fill="#E0E0E0"/>
<path d="M27.6822 151.914H30.1553V138.332H27.6822V151.914Z" fill="#F0F0F0"/>
<path d="M187.683 148.429H200.36V84.4758H187.683V148.429Z" fill="#E6E6E6"/>
<path d="M135.414 151.914H197.924V148.429H135.414V151.914Z" fill="#E6E6E6"/>
<path d="M187.683 84.4805H132.982V148.434H187.683V84.4805Z" fill="#F0F0F0"/>
<path d="M182.7 109.082H137.966V123.823H182.7V109.082Z" fill="#E6E6E6"/>
<path d="M182.7 127.113H137.966V141.854H182.7V127.113Z" fill="#E6E6E6"/>
<path d="M155.31 111.058H165.356C165.683 111.057 165.996 110.927 166.227 110.696C166.458 110.464 166.589 110.151 166.59 109.824C166.59 109.496 166.46 109.182 166.229 108.95C165.997 108.718 165.683 108.586 165.356 108.585H155.31C154.982 108.586 154.668 108.718 154.437 108.95C154.206 109.182 154.076 109.496 154.076 109.824C154.077 110.151 154.207 110.464 154.439 110.696C154.67 110.927 154.983 111.057 155.31 111.058Z" fill="#F0F0F0"/>
<path d="M182.7 91.0554H137.966V105.797H182.7V91.0554Z" fill="#E6E6E6"/>
<path d="M155.31 93.032H165.356C165.683 93.0308 165.997 92.8997 166.229 92.6675C166.46 92.4353 166.59 92.1209 166.59 91.7931C166.589 91.4662 166.458 91.1529 166.227 90.9217C165.996 90.6905 165.683 90.5601 165.356 90.5589H155.31C154.983 90.5601 154.67 90.6905 154.439 90.9217C154.207 91.1529 154.077 91.4662 154.076 91.7931C154.076 92.1209 154.206 92.4353 154.437 92.6675C154.668 92.8997 154.982 93.0308 155.31 93.032Z" fill="#F0F0F0"/>
<path d="M155.31 129.089H165.356C165.683 129.088 165.997 128.957 166.229 128.725C166.46 128.493 166.59 128.178 166.59 127.851C166.589 127.524 166.458 127.21 166.227 126.979C165.996 126.748 165.683 126.618 165.356 126.616H155.31C154.983 126.618 154.67 126.748 154.439 126.979C154.207 127.21 154.077 127.524 154.076 127.851C154.076 128.178 154.206 128.493 154.437 128.725C154.668 128.957 154.982 129.088 155.31 129.089Z" fill="#F0F0F0"/>
<path d="M131.293 84.4758H187.683V81.1118H131.293V84.4758Z" fill="#E6E6E6"/>
<path d="M202.132 81.1165H187.683V84.4805H202.132V81.1165Z" fill="#E0E0E0"/>
<path d="M167.569 50.2326H193.409V20.9171L167.569 20.9171V50.2326Z" fill="#E6E6E6"/>
<path d="M164.674 50.2326H192.249V20.9171L164.674 20.9171V50.2326Z" fill="#F0F0F0"/>
<path d="M189.943 47.9219V23.2278H166.989V47.9219H189.943Z" fill="#FAFAFA"/>
<path d="M184.38 41.9363V29.2134H172.552V41.9363H184.38Z" fill="#F0F0F0"/>
<path d="M139.423 34.0112H158.813V12.2635L139.423 12.2635V34.0112Z" fill="#E6E6E6"/>
<path d="M137.274 34.0112H157.732V12.2635L137.274 12.2635V34.0112Z" fill="#F0F0F0"/>
<path d="M156.015 32.2944V13.9757L138.987 13.9757V32.2944H156.015Z" fill="#FAFAFA"/>
<path d="M147.501 18.509L152.16 26.5733H142.847L147.501 18.509Z" fill="#F0F0F0"/>
<path d="M116 172.868C165.686 172.868 205.965 170.516 205.965 167.615C205.965 164.715 165.686 162.363 116 162.363C66.3137 162.363 26.035 164.715 26.035 167.615C26.035 170.516 66.3137 172.868 116 172.868Z" fill="#F5F5F5"/>
<path d="M181.651 50.7106H143.019C141.517 50.7105 140.076 51.3059 139.013 52.3661C137.949 53.4263 137.349 54.8649 137.344 56.3667V77.2746C137.349 78.774 137.947 80.2105 139.008 81.2703C140.068 82.3301 141.505 82.927 143.005 82.9307H146.916L145.408 89.088C147.617 88.8866 149.761 88.2376 151.711 87.1806C153.66 86.1236 155.374 84.6808 156.748 82.94H181.651C183.151 82.9363 184.588 82.3394 185.648 81.2796C186.709 80.2198 187.307 78.7832 187.312 77.2838V56.3667C187.307 54.8673 186.709 53.4308 185.648 52.371C184.588 51.3112 183.151 50.7142 181.651 50.7106Z" fill="#283891"/>
<path opacity="0.3" d="M181.651 50.7106H143.019C141.517 50.7105 140.076 51.3059 139.013 52.3661C137.949 53.4263 137.349 54.8649 137.344 56.3667V77.2746C137.349 78.774 137.947 80.2105 139.008 81.2703C140.068 82.3301 141.505 82.927 143.005 82.9307H146.916L145.408 89.088C147.617 88.8866 149.761 88.2376 151.711 87.1806C153.66 86.1236 155.374 84.6808 156.748 82.94H181.651C183.151 82.9363 184.588 82.3394 185.648 81.2796C186.709 80.2198 187.307 78.7832 187.312 77.2838V56.3667C187.307 54.8673 186.709 53.4308 185.648 52.371C184.588 51.3112 183.151 50.7142 181.651 50.7106Z" fill="black"/>
<path d="M177.1 71.5998C179.739 71.5998 181.879 69.4601 181.879 66.8206C181.879 64.1812 179.739 62.0414 177.1 62.0414C174.46 62.0414 172.32 64.1812 172.32 66.8206C172.32 69.4601 174.46 71.5998 177.1 71.5998Z" fill="#283891"/>
<path d="M162.335 71.5998C164.975 71.5998 167.114 69.4601 167.114 66.8206C167.114 64.1812 164.975 62.0414 162.335 62.0414C159.696 62.0414 157.556 64.1812 157.556 66.8206C157.556 69.4601 159.696 71.5998 162.335 71.5998Z" fill="#283891"/>
<path d="M147.575 71.5998C150.215 71.5998 152.354 69.4601 152.354 66.8206C152.354 64.1812 150.215 62.0414 147.575 62.0414C144.936 62.0414 142.796 64.1812 142.796 66.8206C142.796 69.4601 144.936 71.5998 147.575 71.5998Z" fill="#283891"/>
<g opacity="0.1">
<path opacity="0.1" d="M177.1 71.5998C179.739 71.5998 181.879 69.4601 181.879 66.8206C181.879 64.1812 179.739 62.0414 177.1 62.0414C174.46 62.0414 172.32 64.1812 172.32 66.8206C172.32 69.4601 174.46 71.5998 177.1 71.5998Z" fill="#FAFAFA"/>
<path opacity="0.1" d="M162.335 71.5998C164.975 71.5998 167.114 69.4601 167.114 66.8206C167.114 64.1812 164.975 62.0414 162.335 62.0414C159.696 62.0414 157.556 64.1812 157.556 66.8206C157.556 69.4601 159.696 71.5998 162.335 71.5998Z" fill="#FAFAFA"/>
<path opacity="0.1" d="M147.575 71.5998C150.215 71.5998 152.354 69.4601 152.354 66.8206C152.354 64.1812 150.215 62.0414 147.575 62.0414C144.936 62.0414 142.796 64.1812 142.796 66.8206C142.796 69.4601 144.936 71.5998 147.575 71.5998Z" fill="#FAFAFA"/>
</g>
<path d="M86.9211 20.6898H125.558C127.058 20.6947 128.495 21.2926 129.556 22.3532C130.616 23.4137 131.214 24.8507 131.219 26.3506V47.2538C131.209 48.7504 130.609 50.1826 129.549 51.2392C128.489 52.2957 127.055 52.8911 125.558 52.896H121.647L123.169 59.0394C120.96 58.8386 118.815 58.1904 116.865 57.1342C114.914 56.0781 113.199 54.6361 111.824 52.896H86.9211C85.4217 52.8911 83.9852 52.293 82.9254 51.2323C81.8656 50.1716 81.2686 48.7346 81.265 47.2352V26.3552C81.2674 24.855 81.8638 23.4168 82.9237 22.3551C83.9837 21.2934 85.4209 20.6947 86.9211 20.6898Z" fill="#283891"/>
<path opacity="0.1" d="M86.9211 20.6898H125.558C127.058 20.6947 128.495 21.2926 129.556 22.3532C130.616 23.4137 131.214 24.8507 131.219 26.3506V47.2538C131.209 48.7504 130.609 50.1826 129.549 51.2392C128.489 52.2957 127.055 52.8911 125.558 52.896H121.647L123.169 59.0394C120.96 58.8386 118.815 58.1904 116.865 57.1342C114.914 56.0781 113.199 54.6361 111.824 52.896H86.9211C85.4217 52.8911 83.9852 52.293 82.9254 51.2323C81.8656 50.1716 81.2686 48.7346 81.265 47.2352V26.3552C81.2674 24.855 81.8638 23.4168 82.9237 22.3551C83.9837 21.2934 85.4209 20.6947 86.9211 20.6898Z" fill="#FAFAFA"/>
<path d="M124.375 27.9699H88.1043V31.4035H124.375V27.9699Z" fill="#283891"/>
<path d="M116.079 35.083H88.1043V38.5166H116.079V35.083Z" fill="#283891"/>
<path d="M119.731 42.2008H88.1043V45.6344H119.731V42.2008Z" fill="#283891"/>
<g opacity="0.3">
<path opacity="0.3" d="M124.375 27.9699H88.1043V31.4035H124.375V27.9699Z" fill="black"/>
<path opacity="0.3" d="M116.079 35.0831H88.1043V38.5167H116.079V35.0831Z" fill="black"/>
<path opacity="0.3" d="M119.731 42.2008H88.1043V45.6344H119.731V42.2008Z" fill="black"/>
</g>
<path d="M138.295 118.928C138.04 118.928 137.78 118.928 137.516 118.951C132.003 119.345 127.544 124.013 127.192 129.758C127.113 131.026 127.234 132.299 127.549 133.53C128.766 138.471 129.352 143.545 129.294 148.633V163.481C129.284 163.985 129.473 164.472 129.821 164.837C130.168 165.202 130.646 165.415 131.15 165.43H167.968V118.928H138.295Z" fill="#283891"/>
<path opacity="0.3" d="M138.295 118.928C138.04 118.928 137.78 118.928 137.516 118.951C132.003 119.345 127.544 124.013 127.192 129.758C127.113 131.026 127.234 132.299 127.549 133.53C128.766 138.471 129.352 143.545 129.294 148.633V163.481C129.284 163.985 129.473 164.472 129.821 164.837C130.168 165.202 130.646 165.415 131.15 165.43H167.968V118.928H138.295Z" fill="black"/>
<path d="M179.104 130.519C179.104 123.851 173.698 118.492 167.198 118.956C161.685 119.35 157.226 124.018 156.874 129.762C156.796 131.031 156.916 132.303 157.231 133.535C158.448 138.475 159.034 143.55 158.976 148.638V163.486C158.966 163.99 159.155 164.477 159.503 164.842C159.85 165.207 160.328 165.42 160.832 165.435H175.1C175.604 165.421 176.082 165.209 176.43 164.843C176.778 164.478 176.967 163.99 176.956 163.486V147.765C176.925 142.998 177.514 138.247 178.71 133.632C178.975 132.616 179.108 131.569 179.104 130.519Z" fill="#283891"/>
<path d="M152.647 137.186H105.708V165.407H152.647V137.186Z" fill="#283891"/>
<path opacity="0.3" d="M152.647 137.186H105.708V165.407H152.647V137.186Z" fill="black"/>
<path d="M80.7917 103.384H132.621C134.9 103.384 137.085 104.289 138.697 105.901C140.308 107.512 141.214 109.698 141.214 111.977V143.566H72.1938V111.977C72.1938 110.848 72.4162 109.73 72.8484 108.688C73.2805 107.645 73.9139 106.697 74.7123 105.899C75.5108 105.101 76.4587 104.468 77.5018 104.037C78.5449 103.605 79.6628 103.383 80.7917 103.384Z" fill="#283891"/>
<path opacity="0.4" d="M80.7917 103.384H132.621C134.9 103.384 137.085 104.289 138.697 105.901C140.308 107.512 141.214 109.698 141.214 111.977V143.566H72.1938V111.977C72.1938 110.848 72.4162 109.73 72.8484 108.688C73.2805 107.645 73.9139 106.697 74.7123 105.899C75.5108 105.101 76.4587 104.468 77.5018 104.037C78.5449 103.605 79.6628 103.383 80.7917 103.384Z" fill="black"/>
<path d="M90.9811 103.384H135.284C137.453 103.384 139.534 104.246 141.068 105.78C142.602 107.314 143.464 109.395 143.464 111.564V143.58H82.8008V111.564C82.8008 110.49 83.0124 109.426 83.4235 108.434C83.8346 107.441 84.4371 106.539 85.1967 105.78C85.9564 105.02 86.8582 104.418 87.8506 104.007C88.8431 103.595 89.9068 103.384 90.9811 103.384Z" fill="#283891"/>
<path d="M108.39 134.249H152.039C152.711 134.249 153.355 134.516 153.83 134.991C154.305 135.466 154.572 136.111 154.572 136.783V143.571C154.572 144.243 154.305 144.887 153.83 145.362C153.355 145.837 152.711 146.104 152.039 146.104H108.39C108.19 146.104 107.997 146.025 107.856 145.883C107.714 145.741 107.634 145.549 107.634 145.348V135.024C107.632 134.923 107.649 134.823 107.686 134.729C107.723 134.635 107.778 134.549 107.849 134.477C107.919 134.405 108.004 134.348 108.097 134.308C108.19 134.269 108.289 134.249 108.39 134.249Z" fill="#283891"/>
<path opacity="0.4" d="M108.39 134.249H152.039C152.711 134.249 153.355 134.516 153.83 134.991C154.305 135.466 154.572 136.111 154.572 136.783V143.571C154.572 144.243 154.305 144.887 153.83 145.362C153.355 145.837 152.711 146.104 152.039 146.104H108.39C108.19 146.104 107.997 146.025 107.856 145.883C107.714 145.741 107.634 145.549 107.634 145.348V135.024C107.632 134.923 107.649 134.823 107.686 134.729C107.723 134.635 107.778 134.549 107.849 134.477C107.919 134.405 108.004 134.348 108.097 134.308C108.19 134.269 108.289 134.249 108.39 134.249Z" fill="black"/>
<path d="M67.6373 165.411H168.543V165.439C168.543 165.808 168.397 166.162 168.136 166.424C167.875 166.685 167.521 166.831 167.151 166.831H69.02C68.6508 166.831 68.2967 166.685 68.0357 166.424C67.7746 166.162 67.628 165.808 67.628 165.439V165.411H67.6373Z" fill="#283891"/>
<path opacity="0.4" d="M67.6373 165.411H168.543V165.439C168.543 165.808 168.397 166.162 168.136 166.424C167.875 166.685 167.521 166.831 167.151 166.831H69.02C68.6508 166.831 68.2967 166.685 68.0357 166.424C67.7746 166.162 67.628 165.808 67.628 165.439V165.411H67.6373Z" fill="black"/>
<path d="M127.934 98.7114L128.12 99.4677L128.333 100.289C128.482 100.836 128.639 101.389 128.797 101.936C129.127 103.04 129.484 104.145 129.855 105.244C130.226 106.344 130.611 107.448 131.029 108.539C131.238 109.086 131.442 109.634 131.655 110.177L131.911 110.831C131.961 110.944 132.029 111.049 132.11 111.142C132.728 111.769 133.482 112.245 134.314 112.534C135.335 112.939 136.385 113.264 137.455 113.508C138.56 113.764 139.696 113.972 140.847 114.153C141.998 114.334 143.167 114.478 144.309 114.617L144.35 116.96C141.866 117.209 139.362 117.198 136.88 116.928C135.579 116.797 134.293 116.547 133.038 116.181C132.359 115.978 131.698 115.719 131.061 115.406C130.33 115.051 129.659 114.581 129.076 114.014C128.738 113.679 128.444 113.302 128.203 112.891C128.138 112.784 128.083 112.668 128.022 112.552L127.911 112.32L127.707 111.908C127.438 111.355 127.168 110.799 126.918 110.237C126.412 109.114 125.925 107.987 125.484 106.831C125.043 105.676 124.621 104.511 124.245 103.319C124.064 102.72 123.893 102.122 123.73 101.509L123.494 100.581C123.419 100.256 123.359 99.9781 123.285 99.5883L127.934 98.7114Z" fill="#B55B52"/>
<path d="M126.454 93.779C128.31 94.243 129.628 101.941 129.628 101.941L124.482 105.439C124.482 105.439 119.545 97.6859 120.983 95.635C122.496 93.496 123.726 93.0877 126.454 93.779Z" fill="#283891"/>
<path opacity="0.5" d="M126.454 93.779C128.31 94.243 129.628 101.941 129.628 101.941L124.482 105.439C124.482 105.439 119.545 97.6859 120.983 95.635C122.496 93.496 123.726 93.0877 126.454 93.779Z" fill="#FAFAFA"/>
<path d="M126.621 96.5723L122.626 97.5003L122.241 101.407C122.919 102.789 123.667 104.134 124.482 105.439L127.6 103.319C127.47 101.523 127.136 97.788 126.621 96.5723Z" fill="#283891"/>
<path opacity="0.3" d="M126.621 96.5723L122.626 97.5003L122.241 101.407C122.919 102.789 123.667 104.134 124.482 105.439L127.6 103.319C127.47 101.523 127.136 97.788 126.621 96.5723Z" fill="#FAFAFA"/>
<path d="M143.65 114.576L146.865 111.328L147.288 115.916C147.288 115.916 144.875 117.545 143.209 116.668L143.65 114.576Z" fill="#B55B52"/>
<path d="M150.642 110.831L150.786 114.692L147.288 115.907L146.865 111.318L150.642 110.831Z" fill="#B55B52"/>
<path d="M126.454 93.779C126.454 93.779 128.611 94.54 124.287 121.127H105.885C106.196 113.638 106.205 109.017 102.637 93.6491C105.207 93.1174 107.812 92.7732 110.432 92.619C113.212 92.4195 116.004 92.4195 118.784 92.619C122.385 92.9485 126.454 93.779 126.454 93.779Z" fill="#283891"/>
<path opacity="0.5" d="M126.454 93.779C126.454 93.779 128.611 94.54 124.287 121.127H105.885C106.196 113.638 106.205 109.017 102.637 93.6491C105.207 93.1174 107.812 92.7732 110.432 92.619C113.212 92.4195 116.004 92.4195 118.784 92.619C122.385 92.9485 126.454 93.779 126.454 93.779Z" fill="#FAFAFA"/>
<path d="M120.928 92.8603C120.222 92.7675 119.499 92.684 118.793 92.619C116.013 92.4195 113.222 92.4195 110.441 92.619C109.796 92.6515 109.156 92.6979 108.539 92.7583L108.673 93.1805C108.748 93.4171 110.59 99.0223 117.23 101.996L118.501 102.567L119.401 101.5C120.425 100.339 121.109 98.9188 121.378 97.3947C121.648 95.8705 121.492 94.3016 120.928 92.8603Z" fill="#283891"/>
<path opacity="0.3" d="M120.928 92.8603C120.222 92.7675 119.499 92.684 118.793 92.619C116.013 92.4195 113.222 92.4195 110.441 92.619C109.796 92.6515 109.156 92.6979 108.539 92.7583L108.673 93.1805C108.748 93.4171 110.59 99.0223 117.23 101.996L118.501 102.567L119.401 101.5C120.425 100.339 121.109 98.9188 121.378 97.3947C121.648 95.8705 121.492 94.3016 120.928 92.8603Z" fill="black"/>
<path d="M106.952 100.785L104.576 102.804C105.087 105.495 105.425 107.736 105.643 109.727C106.089 107.727 107.216 102.312 106.952 100.785Z" fill="#283891"/>
<path opacity="0.3" d="M106.952 100.785L104.576 102.804C105.087 105.495 105.425 107.736 105.643 109.727C106.089 107.727 107.216 102.312 106.952 100.785Z" fill="#FAFAFA"/>
<path d="M113.773 69.6C108.901 68.0734 106.186 73.312 106.655 79.8637C106.994 84.5594 106.047 86.6056 103.24 86.4664C104.553 89.552 121.104 94.192 125.892 88.675C124.547 87.9466 123.874 84.7032 124.858 81.7986C127.085 75.2469 125.02 65.3544 113.773 69.6Z" fill="#263238"/>
<path d="M111.267 83.2091C111.792 85.9003 112.32 90.8234 110.437 92.6191C110.437 92.6191 112.028 97.6349 117.981 100.303C118.879 99.255 119.437 97.9586 119.58 96.5861C119.724 95.2136 119.446 93.8299 118.784 92.6191C115.787 91.9045 115.865 89.6773 116.385 87.5893L111.267 83.2091Z" fill="#B55B52"/>
<path d="M113.355 84.9955L116.394 87.5893C116.266 88.0743 116.179 88.5695 116.135 89.0694C114.988 88.907 113.416 87.6496 113.295 86.4478C113.227 85.9641 113.248 85.472 113.355 84.9955Z" fill="#9E4541"/>
<path d="M111.518 75.6877C110.464 80.0586 109.926 81.8867 111.416 84.7543C113.657 89.0648 119.257 89.3943 121.596 85.4363C123.702 81.8635 125.071 75.3165 121.396 72.3191C120.589 71.6544 119.625 71.2071 118.596 71.0198C117.567 70.8325 116.508 70.9114 115.518 71.2489C114.528 71.5865 113.641 72.1715 112.941 72.9483C112.241 73.7252 111.751 74.6682 111.518 75.6877Z" fill="#B55B52"/>
<path d="M110.743 78.2536C110.743 78.2536 119.791 75.4371 115.652 70.6811C110.78 71.8829 110.743 73.312 110.743 73.312V78.2536Z" fill="#263238"/>
<path d="M116.227 73.3909C119.633 73.7435 123.02 75.748 124.115 77.5669C124.746 74.472 122.529 70.6069 120.06 70.064C117.592 69.5211 114.608 70.6811 114.608 70.6811L116.227 73.3909Z" fill="#263238"/>
<path d="M109.267 78.5877C109.252 79.4539 109.568 80.2933 110.149 80.9355C110.928 81.78 111.875 81.2278 112.126 80.1838C112.348 79.2558 112.214 77.6643 111.198 77.2096C110.181 76.7549 109.295 77.5298 109.267 78.5877Z" fill="#B55B52"/>
<path d="M147.51 124.728C137.237 124.584 130.505 131.637 130.505 131.637C131.488 134.49 132.11 136.634 132.11 136.634C137.738 135.636 144.132 135.196 149.403 133.929C154.164 132.783 154.712 127.039 154.224 124.649C153.737 122.259 151.037 121.707 148.392 120.937C145.371 120.069 139.604 120.046 135.469 120.074C131.108 120.097 125.377 120.51 122.408 121.136C122.408 121.136 116.102 120.937 111.434 121.053C108.706 120.663 110.311 124.626 114.617 127.98C116.849 129.683 119.404 130.914 122.126 131.599C124.849 132.284 127.682 132.409 130.454 131.966H130.486" fill="#263238"/>
<path d="M131.47 135.952L130.161 131.034C130.141 130.948 130.091 130.873 130.019 130.822C129.947 130.772 129.859 130.75 129.771 130.76L125.73 131.224C125.626 131.238 125.527 131.275 125.439 131.331C125.35 131.388 125.275 131.463 125.219 131.551C125.162 131.639 125.126 131.738 125.112 131.842C125.097 131.946 125.106 132.052 125.136 132.152C125.623 133.859 125.944 134.657 126.528 136.82C126.881 138.151 127.456 140.94 127.962 142.777C128.468 144.615 130.282 144.23 130.259 143.422C130.082 139.794 130.723 138.175 131.405 136.759C131.521 136.506 131.544 136.22 131.47 135.952Z" fill="#263238"/>
<path d="M132.013 138.852C131.905 138.851 131.8 138.819 131.711 138.759C131.168 138.407 131.01 137.112 130.964 136.374C130.963 136.359 130.966 136.343 130.974 136.329C130.982 136.316 130.994 136.305 131.009 136.299C131.023 136.293 131.039 136.291 131.054 136.295C131.07 136.298 131.084 136.307 131.094 136.319C131.247 136.486 132.593 137.98 132.449 138.583C132.436 138.635 132.409 138.684 132.372 138.723C132.334 138.762 132.287 138.79 132.235 138.806C132.165 138.837 132.089 138.852 132.013 138.852ZM131.131 136.588C131.224 137.66 131.465 138.416 131.795 138.629C131.851 138.667 131.917 138.69 131.985 138.697C132.053 138.703 132.121 138.693 132.184 138.666C132.213 138.658 132.238 138.643 132.259 138.622C132.279 138.6 132.293 138.574 132.3 138.546C132.398 138.151 131.59 137.117 131.131 136.588Z" fill="#283891"/>
<path d="M131.484 136.824L129.785 130.454L132.022 129.53L135.173 136.37L131.484 136.824Z" fill="#283891"/>
<path opacity="0.6" d="M131.484 136.824L129.785 130.454L132.022 129.53L135.173 136.37L131.484 136.824Z" fill="#FAFAFA"/>
<path d="M132.825 137.469C132.282 137.469 131.307 136.815 130.969 136.416C130.963 136.404 130.96 136.392 130.96 136.379C130.96 136.366 130.963 136.353 130.969 136.342C130.974 136.33 130.981 136.319 130.991 136.31C131 136.301 131.012 136.295 131.024 136.291C131.075 136.291 132.268 136.073 132.88 136.495C132.966 136.552 133.039 136.626 133.094 136.714C133.15 136.801 133.186 136.899 133.201 137.001C133.247 137.274 133.131 137.39 133.029 137.432C132.965 137.463 132.895 137.476 132.825 137.469ZM131.191 136.416C131.655 136.88 132.639 137.428 132.95 137.293C132.978 137.293 133.066 137.237 133.033 137.019C133.021 136.937 132.992 136.859 132.947 136.789C132.902 136.72 132.843 136.66 132.774 136.616C132.342 136.314 131.516 136.379 131.191 136.416Z" fill="#283891"/>
<path d="M109.407 121.373C103.695 120.64 95.2453 120.357 94.7627 126.31C94.2802 132.263 98.3866 138.374 109.555 138.704C120.724 139.033 123.136 136.226 123.535 133.832C124.046 130.806 124.927 130.036 122.259 128.667C119.591 127.298 119.1 122.612 109.407 121.373Z" fill="#263238"/>
<path d="M121.489 136.968L120.176 132.05C120.151 131.965 120.158 131.875 120.195 131.795C120.233 131.715 120.299 131.652 120.38 131.618L124.125 130.022C124.22 129.985 124.322 129.969 124.424 129.975C124.526 129.98 124.626 130.007 124.717 130.053C124.808 130.099 124.888 130.164 124.952 130.244C125.017 130.323 125.063 130.415 125.09 130.514C125.517 132.24 125.637 133.094 126.213 135.256C126.565 136.588 127.438 139.302 127.929 141.14C128.421 142.977 126.626 143.562 126.259 142.838C124.607 139.59 123.229 138.523 121.949 137.627C121.723 137.468 121.561 137.235 121.489 136.968Z" fill="#263238"/>
<path d="M122.18 139.836C122.138 139.836 122.096 139.828 122.056 139.811C122.017 139.795 121.982 139.77 121.953 139.738C121.526 139.274 121.953 137.325 122 137.103C122.002 137.087 122.01 137.073 122.022 137.062C122.034 137.051 122.049 137.044 122.064 137.042C122.08 137.04 122.095 137.043 122.109 137.051C122.122 137.058 122.133 137.07 122.139 137.084C122.468 137.748 122.974 138.94 122.677 139.525C122.636 139.607 122.575 139.679 122.5 139.732C122.424 139.785 122.337 139.819 122.245 139.831L122.18 139.836ZM122.102 137.353C121.967 138.045 121.781 139.339 122.06 139.632C122.08 139.654 122.105 139.67 122.134 139.679C122.163 139.688 122.193 139.689 122.222 139.683C122.29 139.674 122.355 139.649 122.411 139.609C122.467 139.569 122.512 139.516 122.542 139.455C122.788 138.977 122.348 137.892 122.102 137.344V137.353Z" fill="#283891"/>
<path d="M120.863 139.024C120.751 139.024 120.617 138.968 120.529 138.731C120.492 138.635 120.475 138.533 120.479 138.43C120.483 138.327 120.508 138.226 120.552 138.133C120.858 137.474 122 137.061 122.046 137.047C122.057 137.04 122.07 137.036 122.083 137.036C122.096 137.036 122.109 137.04 122.12 137.047C122.131 137.054 122.14 137.065 122.145 137.077C122.15 137.09 122.151 137.104 122.148 137.117C122.051 137.692 121.396 138.973 120.891 139.01L120.863 139.024ZM121.967 137.242C121.665 137.367 120.914 137.706 120.691 138.198C120.659 138.271 120.643 138.35 120.643 138.43C120.643 138.51 120.659 138.589 120.691 138.662C120.765 138.866 120.867 138.857 120.895 138.852C121.215 138.838 121.805 137.878 121.967 137.242Z" fill="#283891"/>
<path d="M121.698 136.908L120.631 130.941L118.023 130.843L118.223 138.439L121.698 136.908Z" fill="#283891"/>
<path opacity="0.6" d="M121.698 136.908L120.631 130.941L118.023 130.843L118.223 138.439L121.698 136.908Z" fill="#FAFAFA"/>
<path d="M117.656 78.88C117.55 79.228 117.656 79.5667 117.879 79.641C118.102 79.7152 118.38 79.4832 118.487 79.1352C118.594 78.7872 118.487 78.4438 118.264 78.3742C118.042 78.3046 117.768 78.5366 117.656 78.88Z" fill="#263238"/>
<path d="M121.605 80.0957C121.498 80.4483 121.605 80.787 121.828 80.8566C122.051 80.9262 122.329 80.6989 122.436 80.3509C122.542 80.0029 122.436 79.6595 122.213 79.5899C121.99 79.5203 121.716 79.7477 121.605 80.0957Z" fill="#263238"/>
<path d="M122.106 79.5806H123.034C123.034 79.5806 122.389 80.1189 122.106 79.5806Z" fill="#263238"/>
<path d="M120.38 80.3787C120.446 81.2712 120.635 82.1503 120.942 82.991C120.724 83.063 120.493 83.0867 120.266 83.0602C120.038 83.0338 119.819 82.9579 119.624 82.8379L120.38 80.3787Z" fill="#A02724"/>
<path d="M117.67 83.6035C117.666 83.6056 117.661 83.6067 117.656 83.6067C117.652 83.6067 117.647 83.6056 117.643 83.6035C116.938 83.2247 116.408 82.5878 116.162 81.8264C116.16 81.8179 116.159 81.8089 116.159 81.7999C116.16 81.791 116.163 81.7823 116.167 81.7745C116.172 81.7666 116.178 81.7598 116.185 81.7543C116.192 81.7489 116.2 81.745 116.209 81.7429C116.226 81.7385 116.244 81.7409 116.26 81.7495C116.275 81.7581 116.287 81.7724 116.292 81.7893C116.529 82.5073 117.026 83.1112 117.684 83.4829C117.697 83.4904 117.708 83.5021 117.714 83.516C117.72 83.5299 117.721 83.5454 117.717 83.5601C117.714 83.5748 117.705 83.5879 117.693 83.5974C117.682 83.6069 117.667 83.6123 117.652 83.6128L117.67 83.6035Z" fill="#263238"/>
<path d="M117.462 76.56C117.432 76.5594 117.403 76.5494 117.38 76.5314C117.356 76.5133 117.339 76.4882 117.331 76.4597C117.322 76.4312 117.323 76.4008 117.334 76.373C117.344 76.3451 117.363 76.3212 117.387 76.3048C117.655 76.1191 117.963 75.9999 118.286 75.9571C118.608 75.9144 118.937 75.9492 119.243 76.0589C119.276 76.0741 119.302 76.1013 119.316 76.1348C119.33 76.1684 119.33 76.2059 119.318 76.2399C119.311 76.2565 119.3 76.2716 119.287 76.2842C119.274 76.2968 119.259 76.3066 119.242 76.3131C119.225 76.3196 119.207 76.3227 119.189 76.322C119.171 76.3214 119.153 76.3171 119.137 76.3095C118.869 76.218 118.584 76.1909 118.304 76.2304C118.025 76.2699 117.758 76.3749 117.527 76.5368C117.507 76.5499 117.485 76.5579 117.462 76.56Z" fill="#263238"/>
<path d="M124.106 78.9078C124.081 78.9079 124.056 78.901 124.035 78.8879C124.014 78.8748 123.997 78.856 123.985 78.8336C123.858 78.5816 123.673 78.363 123.446 78.1954C123.219 78.0277 122.955 77.9158 122.677 77.8685C122.659 77.8673 122.641 77.8625 122.625 77.8544C122.609 77.8462 122.594 77.8348 122.583 77.821C122.571 77.8071 122.562 77.791 122.557 77.7736C122.551 77.7563 122.55 77.738 122.552 77.72C122.556 77.6847 122.574 77.6526 122.602 77.6301C122.63 77.6077 122.665 77.5967 122.7 77.5994C123.025 77.647 123.334 77.7728 123.6 77.9659C123.866 78.1591 124.081 78.4138 124.227 78.7083C124.243 78.7404 124.247 78.7778 124.236 78.8124C124.226 78.847 124.203 78.8763 124.171 78.8939C124.151 78.903 124.128 78.9077 124.106 78.9078Z" fill="#263238"/>
<path d="M118.158 78.365H119.086C119.086 78.365 118.441 78.9078 118.158 78.365Z" fill="#263238"/>
<path d="M105.611 120.046L105.463 121.693C105.398 121.823 105.551 121.953 105.764 121.953H124.38C124.542 121.953 124.681 121.87 124.691 121.768L124.858 120.12C124.858 120.004 124.728 119.907 124.542 119.907H105.908C105.851 119.902 105.793 119.912 105.741 119.937C105.689 119.961 105.644 119.999 105.611 120.046Z" fill="#283891"/>
<path opacity="0.3" d="M105.611 120.046L105.463 121.693C105.398 121.823 105.551 121.953 105.764 121.953H124.38C124.542 121.953 124.681 121.87 124.691 121.768L124.858 120.12C124.858 120.004 124.728 119.907 124.542 119.907H105.908C105.851 119.902 105.793 119.912 105.741 119.937C105.689 119.961 105.644 119.999 105.611 120.046Z" fill="black"/>
<path d="M108.112 122.129H107.615C107.513 122.129 107.439 122.078 107.444 122.018L107.68 119.874C107.68 119.814 107.773 119.763 107.871 119.763H108.372C108.469 119.763 108.548 119.814 108.539 119.874L108.307 122.018C108.298 122.078 108.214 122.129 108.112 122.129Z" fill="#263238"/>
<path d="M122.96 122.129H122.496C122.394 122.129 122.32 122.078 122.329 122.018L122.561 119.874C122.561 119.814 122.654 119.763 122.756 119.763H123.252C123.354 119.763 123.429 119.814 123.419 119.874L123.187 122.018C123.164 122.078 123.076 122.129 122.96 122.129Z" fill="#263238"/>
<path d="M115.536 122.129H115.035C114.937 122.129 114.859 122.078 114.868 122.018L115.1 119.874C115.1 119.814 115.197 119.763 115.295 119.763H115.796C115.893 119.763 115.967 119.814 115.963 119.874L115.726 122.018C115.731 122.078 115.643 122.129 115.536 122.129Z" fill="#263238"/>
<path d="M157.259 108.409H124.964L120.283 127.479H152.577L157.259 108.409Z" fill="#FAFAFA"/>
<path d="M140.898 123.925L121.146 128.533L108.469 124.978L108.599 123.925H140.898Z" fill="#FAFAFA"/>
<path d="M105.374 100.224C104.985 101.486 104.567 102.799 104.196 104.098C103.825 105.398 103.43 106.692 103.091 107.991C102.753 109.291 102.428 110.585 102.163 111.856C102.043 112.488 101.932 113.119 101.857 113.712C101.799 114.131 101.771 114.552 101.774 114.975C101.882 115.315 102.069 115.626 102.321 115.879C102.697 116.289 103.115 116.658 103.569 116.979C104.596 117.721 105.682 118.376 106.817 118.937C109.231 120.121 111.709 121.167 114.241 122.069L113.68 124.343C110.862 123.88 108.095 123.148 105.416 122.157C104.013 121.645 102.66 121.003 101.375 120.241C100.669 119.811 100.008 119.31 99.4027 118.747C98.6378 118.053 98.0588 117.179 97.7184 116.204C97.6209 115.902 97.554 115.591 97.5189 115.276V115.035V114.859V114.538C97.5189 114.121 97.5189 113.722 97.5189 113.332C97.5606 112.552 97.6441 111.815 97.7509 111.091C97.9597 109.634 98.2149 108.233 98.5629 106.85C98.9109 105.467 99.231 104.098 99.6161 102.744C100.001 101.389 100.41 100.057 100.883 98.7021L105.374 100.224Z" fill="#B55B52"/>
<path d="M102.623 93.6491C100.767 94.2106 97.9829 101.444 97.9829 101.444L105.133 106.548C105.133 106.548 108.349 100.363 107.574 97.9783C106.743 95.5051 104.729 93.0088 102.623 93.6491Z" fill="#283891"/>
<path opacity="0.5" d="M102.623 93.6491C100.767 94.2106 97.9829 101.444 97.9829 101.444L105.133 106.548C105.133 106.548 108.349 100.363 107.574 97.9783C106.743 95.5051 104.729 93.0088 102.623 93.6491Z" fill="#FAFAFA"/>
<path d="M113.341 122.213L117.638 121.127L115.592 125.252C115.592 125.252 112.687 125.377 111.727 123.758L113.341 122.213Z" fill="#B55B52"/>
<path d="M121.113 122.696L119.211 126.06L115.592 125.252L117.638 121.127L121.113 122.696Z" fill="#B55B52"/>
<path d="M158.252 108.409H125.957L121.276 127.479H153.57L158.252 108.409Z" fill="#283891"/>
<path d="M153.57 127.479L153.44 128.533H121.146L121.276 127.479H153.57Z" fill="#283891"/>
<path d="M178.459 150.6H177.995V156.164H178.459V150.6Z" fill="#283891"/>
<path opacity="0.3" d="M178.459 150.6H177.995V156.164H178.459V150.6Z" fill="black"/>
<path d="M178.459 158.303H177.995V160.28H178.459V158.303Z" fill="#283891"/>
<path opacity="0.3" d="M178.459 158.303H177.995V160.28H178.459V158.303Z" fill="black"/>
<path d="M68.208 118.928C67.9482 118.928 67.6883 118.928 67.4238 118.951C61.9115 119.345 57.4525 124.013 57.1045 129.758C57.0217 131.026 57.1423 132.3 57.4618 133.53C58.6761 138.471 59.2622 143.545 59.2064 148.633V163.481C59.1952 163.985 59.3842 164.474 59.732 164.839C60.0798 165.204 60.5582 165.417 61.0624 165.43H106.256V118.928H68.208Z" fill="#283891"/>
<path opacity="0.3" d="M68.208 118.928C67.9482 118.928 67.6883 118.928 67.4238 118.951C61.9115 119.345 57.4525 124.013 57.1045 129.758C57.0217 131.026 57.1423 132.3 57.4618 133.53C58.6761 138.471 59.2622 143.545 59.2064 148.633V163.481C59.1952 163.985 59.3842 164.474 59.732 164.839C60.0798 165.204 60.5582 165.417 61.0624 165.43H106.256V118.928H68.208Z" fill="black"/>
<path d="M117.392 130.519C117.392 123.851 111.982 118.492 105.481 118.956C99.9688 119.35 95.5097 124.018 95.1617 129.762C95.0789 131.031 95.1995 132.304 95.519 133.535C96.7333 138.476 97.3195 143.55 97.2637 148.638V163.486C97.2524 163.99 97.4414 164.478 97.7893 164.843C98.1371 165.209 98.6155 165.421 99.1197 165.435H113.388C113.891 165.42 114.369 165.207 114.717 164.842C115.064 164.477 115.254 163.99 115.244 163.486V147.765C115.202 143 115.781 138.249 116.965 133.632C117.244 132.618 117.387 131.571 117.392 130.519Z" fill="#283891"/>
</svg>
