<svg width="232" height="173" viewBox="0 0 232 173" fill="none" xmlns="http://www.w3.org/2000/svg">
<path d="M116.002 169.96V172.87L0 115.226V112.317L116.002 169.96Z" fill="#E0E0E0"/>
<path d="M232 115.222L116.002 172.87V169.96L232 112.317V115.222Z" fill="#EBEBEB"/>
<path d="M211.484 102.119L116.002 149.568L20.5205 102.119L0 112.317L116.002 169.96L232 112.317L211.484 102.119Z" fill="#F5F5F5"/>
<path d="M120.973 147.023L141.494 157.217L140.059 157.928L119.451 147.776L120.973 147.023Z" fill="#E0E0E0"/>
<path d="M211.479 102.119L176.776 119.371L175.249 120.125L175.098 120.2L158.435 128.481V128.485H158.43L156.907 129.239H156.902L139.743 137.775L138.216 138.528L121.056 147.06L119.529 147.818L116.002 149.572L114.475 148.815L20.5205 102.119L39.2317 92.8205L99.9664 62.6361L116.002 54.6692L211.479 102.119Z" fill="#283891"/>
<path opacity="0.3" d="M211.479 102.119L176.776 119.371L175.249 120.125L175.098 120.2L158.435 128.481V128.485H158.43L156.907 129.239H156.902L139.743 137.775L138.216 138.528L121.056 147.06L119.529 147.818L116.002 149.572L114.475 148.815L20.5205 102.119L39.2317 92.8205L99.9664 62.6361L116.002 54.6692L211.479 102.119Z" fill="white"/>
<path d="M176.937 120.966L160.22 129.373L158.357 128.443L156.902 127.723L143.425 121.025L141.98 120.309L131.45 115.076L148.269 106.715L158.799 111.948L160.317 112.702L173.726 119.371L175.249 120.125L176.937 120.966Z" fill="#F5F5F5"/>
<path d="M211.484 102.119L232 112.317L211.484 102.119Z" fill="#F5F5F5"/>
<path d="M139.704 137.754L160.22 147.948L158.785 148.66L138.177 138.512L139.704 137.754Z" fill="#E0E0E0"/>
<path d="M114.48 148.815L93.9596 159.009L95.3944 159.72L116.002 149.572L114.48 148.815Z" fill="#E0E0E0"/>
<path d="M95.5695 139.437L75.0538 149.631L76.4887 150.347L97.0967 140.195L95.5695 139.437Z" fill="#E0E0E0"/>
<path d="M76.6637 130.059L56.1481 140.253L57.5829 140.969L78.191 130.817L76.6637 130.059Z" fill="#E0E0E0"/>
<path d="M57.758 120.681L37.2424 130.876L38.6772 131.591L59.2853 121.439L57.758 120.681Z" fill="#E0E0E0"/>
<path d="M38.8523 111.304L18.3366 121.498L19.7714 122.214L40.3746 112.062L38.8523 111.304Z" fill="#E0E0E0"/>
<path d="M176.776 119.367L197.292 129.565L195.857 130.277L175.249 120.125L176.776 119.367Z" fill="#E0E0E0"/>
<path d="M195.502 110.098L216.017 120.296L214.587 121.008L193.979 110.856L195.502 110.098Z" fill="#E0E0E0"/>
<path d="M158.43 128.485L178.95 138.679L177.515 139.395L156.907 129.243L158.43 128.485Z" fill="#E0E0E0"/>
<path d="M175.249 120.125L158.357 128.443L156.902 127.723L173.726 119.371L175.249 120.125Z" fill="#E0E0E0"/>
<path d="M160.317 112.702L143.425 121.025L141.98 120.309L158.799 111.948L160.317 112.702Z" fill="#E0E0E0"/>
<g opacity="0.1">
<path opacity="0.1" d="M168.473 96.6804L166.932 97.3921L150.108 105.748L107.68 126.836L39.2317 92.8205L99.9664 62.6361L168.473 96.6804Z" fill="black"/>
</g>
<path opacity="0.1" d="M133.118 159.281C139.17 159.281 144.076 156.842 144.076 153.834C144.076 150.826 139.17 148.388 133.118 148.388C127.066 148.388 122.16 150.826 122.16 153.834C122.16 156.842 127.066 159.281 133.118 159.281Z" fill="black"/>
<path opacity="0.1" d="M100.633 160.181C106.685 160.181 111.591 157.742 111.591 154.734C111.591 151.726 106.685 149.288 100.633 149.288C94.5807 149.288 89.6745 151.726 89.6745 154.734C89.6745 157.742 94.5807 160.181 100.633 160.181Z" fill="black"/>
<g opacity="0.1">
<path opacity="0.1" d="M194.227 98.6397C195.687 99.3723 195.687 100.553 194.227 101.281C193.403 101.64 192.493 101.827 191.569 101.827C190.646 101.827 189.735 101.64 188.911 101.281C187.452 100.553 187.452 99.3723 188.911 98.6397C189.735 98.2807 190.646 98.0936 191.569 98.0936C192.493 98.0936 193.403 98.2807 194.227 98.6397Z" fill="black"/>
</g>
<g opacity="0.1">
<path opacity="0.1" d="M178.756 115.164C180.215 115.896 180.215 117.077 178.756 117.805C177.933 118.165 177.023 118.352 176.1 118.352C175.177 118.352 174.267 118.165 173.444 117.805C171.985 117.077 171.985 115.896 173.444 115.164C174.267 114.804 175.177 114.617 176.1 114.617C177.023 114.617 177.933 114.804 178.756 115.164Z" fill="black"/>
</g>
<g opacity="0.1">
<path opacity="0.1" d="M44.2463 104.187C45.7055 104.915 45.7055 106.1 44.2463 106.828C43.4224 107.187 42.5118 107.375 41.5883 107.375C40.6647 107.375 39.7542 107.187 38.9302 106.828C37.471 106.1 37.471 104.915 38.9302 104.187C39.7542 103.828 40.6647 103.641 41.5883 103.641C42.5118 103.641 43.4224 103.828 44.2463 104.187Z" fill="black"/>
</g>
<path d="M47.1062 61.1959V93.6997L107.724 123.821V79.6876L58.794 55.2177L47.1062 61.1959Z" fill="#EBEBEB"/>
<path d="M164.937 51.2572V95.3868L144.738 105.422L127.919 113.782L107.724 123.821V79.6917L137.642 45.7395L164.937 51.2572Z" fill="#FAFAFA"/>
<path d="M144.738 74.0609V105.422L127.919 113.795V82.4213C127.982 79.8353 128.704 77.2929 130.035 74.9736C130.151 74.7643 130.268 74.5549 130.395 74.3582C131.907 71.8463 134.013 69.7531 136.328 68.5976C137.333 68.0603 138.483 67.76 139.665 67.7268C142.651 67.7143 144.738 70.0922 144.738 74.0609Z" fill="#283891"/>
<path opacity="0.3" d="M144.738 74.0609V105.422L127.919 113.795V82.4213C127.982 79.8353 128.704 77.2929 130.035 74.9736C130.151 74.7643 130.268 74.5549 130.395 74.3582C131.907 71.8463 134.013 69.7531 136.328 68.5976C137.333 68.0603 138.483 67.76 139.665 67.7268C142.651 67.7143 144.738 70.0922 144.738 74.0609Z" fill="black"/>
<path d="M143.259 73.0687L138.678 75.342L137.335 76.0118L136.727 76.3133L135.934 76.7319L135.219 77.0836L134.446 77.4687L129.266 80.0225C129.534 78.4444 130.068 76.9085 130.852 75.4634C130.859 75.4477 130.867 75.4323 130.876 75.4174C130.978 75.2206 131.09 75.028 131.202 74.8438C131.208 74.8268 131.218 74.8111 131.231 74.7978C131.406 74.5005 131.591 74.2158 131.786 73.9353C132.732 72.5171 133.979 71.2646 135.463 70.2429C135.618 70.1466 135.774 70.0503 135.949 69.9624C136.124 69.8745 136.163 69.8368 136.275 69.7782L136.479 69.6735C136.572 69.6275 136.659 69.5856 136.742 69.5521C138.4 68.786 139.923 68.7399 141.119 69.2758C141.275 69.3419 141.423 69.4204 141.562 69.5102L141.781 69.6484L141.839 69.6945C141.944 69.7993 142.042 69.9097 142.131 70.0252C142.795 70.9434 143.182 71.9894 143.259 73.0687Z" fill="#FAFAFA"/>
<path d="M143.77 73.5125L138.021 76.3761L135.949 77.4059L135.891 77.4352L135.122 77.8162L129.183 80.7677C129.208 80.5207 129.242 80.2695 129.281 80.0225L134.461 77.4478L135.234 77.0626L135.949 76.711L136.742 76.2923L137.35 75.9909L138.692 75.3211L143.274 73.0478C143.196 71.9699 142.808 70.9255 142.146 70.0084C142.057 69.893 141.959 69.7825 141.854 69.6777V69.6484C141.981 69.7395 142.101 69.8374 142.214 69.9415C143.036 70.7494 143.605 71.9552 143.77 73.5125Z" fill="#283891"/>
<path opacity="0.6" d="M143.77 73.5125L138.021 76.3761L135.949 77.4059L135.891 77.4352L135.122 77.8162L129.183 80.7677C129.208 80.5207 129.242 80.2695 129.281 80.0225L134.461 77.4478L135.234 77.0626L135.949 76.711L136.742 76.2923L137.35 75.9909L138.692 75.3211L143.274 73.0478C143.196 71.9699 142.808 70.9255 142.146 70.0084C142.057 69.893 141.959 69.7825 141.854 69.6777V69.6484C141.981 69.7395 142.101 69.8374 142.214 69.9415C143.036 70.7494 143.605 71.9552 143.77 73.5125Z" fill="black"/>
<path d="M135.409 77.2301L134.689 77.5859L134.641 77.6111L134.393 77.4729L133.979 77.2427L130.852 75.4634C130.859 75.4477 130.867 75.4323 130.876 75.4174C130.978 75.2206 131.09 75.028 131.202 74.8438L134.752 76.8575L135.166 77.0878L135.409 77.2301Z" fill="#283891"/>
<path opacity="0.6" d="M135.409 77.2301L134.689 77.5859L134.641 77.6111L134.393 77.4729L133.979 77.2427L130.852 75.4634C130.859 75.4477 130.867 75.4323 130.876 75.4174C130.978 75.2206 131.09 75.028 131.202 74.8438L134.752 76.8575L135.166 77.0878L135.409 77.2301Z" fill="black"/>
<path d="M141.776 69.6484L141.708 69.7572L141.664 69.8242L138.211 75.1369L137.792 75.7858L137.54 76.1709L137.082 76.397L136.727 76.577L135.934 76.9705L135.448 77.2008V70.2429C135.604 70.1466 135.759 70.0503 135.934 69.9624C136.11 69.8745 136.148 69.8368 136.26 69.7782V76.7403L136.445 76.4514L136.727 76.0328L136.868 75.8193L141.114 69.2884C141.27 69.3544 141.418 69.4329 141.557 69.5228L141.776 69.6484Z" fill="#283891"/>
<path opacity="0.6" d="M141.776 69.6484L141.708 69.7572L141.664 69.8242L138.211 75.1369L137.792 75.7858L137.54 76.1709L137.082 76.397L136.727 76.577L135.934 76.9705L135.448 77.2008V70.2429C135.604 70.1466 135.759 70.0503 135.934 69.9624C136.11 69.8745 136.148 69.8368 136.26 69.7782V76.7403L136.445 76.4514L136.727 76.0328L136.868 75.8193L141.114 69.2884C141.27 69.3544 141.418 69.4329 141.557 69.5228L141.776 69.6484Z" fill="black"/>
<path d="M135.876 77.4352L135.108 77.8162L134.689 77.586L134.446 77.4478L130.876 75.4174C130.978 75.2206 131.09 75.028 131.202 74.8438L130.983 74.7182L131.012 74.6722L131.231 74.7978L135.219 77.0626L135.463 77.2008L135.876 77.4352Z" fill="#283891"/>
<path d="M142.053 69.8619C141.98 69.8033 141.907 69.7447 141.834 69.6944C141.837 69.6848 141.837 69.6748 141.834 69.6651L142.053 69.8619Z" fill="#455A64"/>
<path d="M142.17 69.9498L142.126 70.0168L138.678 75.3336L138.021 76.3761L135.949 77.4059V69.9498C136.056 69.8829 136.163 69.8242 136.275 69.7656L136.479 69.661C136.572 69.6149 136.659 69.5731 136.742 69.5396V76.9329L137.097 76.3844L137.35 75.9993L141.557 69.5312L141.776 69.6693L141.834 69.7154V69.6861C141.952 69.7684 142.064 69.8564 142.17 69.9498Z" fill="#283891"/>
<path opacity="0.3" d="M142.17 69.9498L142.126 70.0168L138.678 75.3336L138.021 76.3761L135.949 77.4059V69.9498C136.056 69.8829 136.163 69.8242 136.275 69.7656L136.479 69.661C136.572 69.6149 136.659 69.5731 136.742 69.5396V76.9329L137.097 76.3844L137.35 75.9993L141.557 69.5312L141.776 69.6693L141.834 69.7154V69.6861C141.952 69.7684 142.064 69.8564 142.17 69.9498Z" fill="black"/>
<path opacity="0.3" d="M135.876 77.4352L135.108 77.8162L134.689 77.586L134.446 77.4478L130.876 75.4174C130.978 75.2206 131.09 75.028 131.202 74.8438L130.983 74.7182L131.012 74.6722L131.231 74.7978L135.219 77.0626L135.463 77.2008L135.876 77.4352Z" fill="black"/>
<path d="M130.239 94.8258C130.218 94.8295 130.197 94.8295 130.176 94.8258C130.157 94.8155 130.141 94.8013 130.13 94.7845C130.119 94.7677 130.113 94.7488 130.112 94.7296V83.7652C130.113 83.7459 130.119 83.727 130.13 83.7102C130.141 83.6934 130.157 83.6792 130.176 83.6689L135.477 81.0356C135.496 81.0252 135.518 81.0196 135.54 81.0196C135.563 81.0196 135.585 81.0252 135.604 81.0356C135.624 81.0451 135.641 81.059 135.653 81.0759C135.665 81.0928 135.671 81.1121 135.672 81.1319V92.0711C135.67 92.0907 135.663 92.1097 135.652 92.1265C135.64 92.1433 135.623 92.1573 135.604 92.1674L130.307 94.8007C130.287 94.8131 130.263 94.8216 130.239 94.8258ZM130.37 83.8364V94.5202L135.409 92.0083V81.3328L130.37 83.8364Z" fill="#283891"/>
<path d="M137.116 91.4139C137.096 91.4193 137.074 91.4193 137.053 91.4139C137.033 91.4045 137.017 91.3905 137.005 91.3735C136.994 91.3565 136.989 91.3371 136.99 91.3176V80.3658C136.99 80.3458 136.995 80.326 137.006 80.3084C137.017 80.2909 137.033 80.276 137.053 80.2653L142.355 77.632C142.374 77.6238 142.396 77.6196 142.418 77.6196C142.44 77.6196 142.461 77.6238 142.481 77.632C142.501 77.6415 142.518 77.6554 142.53 77.6723C142.542 77.6892 142.549 77.7085 142.549 77.7283V88.6675C142.55 88.6876 142.544 88.7075 142.532 88.7247C142.52 88.7418 142.502 88.7555 142.481 88.7638L137.184 91.3971C137.164 91.4089 137.141 91.4148 137.116 91.4139ZM137.248 80.4286V91.1083L142.287 88.5964V77.9251L137.248 80.4286Z" fill="#283891"/>
<path d="M130.239 108.047C130.218 108.051 130.196 108.051 130.176 108.047C130.157 108.036 130.141 108.022 130.13 108.005C130.119 107.989 130.113 107.97 130.112 107.95V97.0154C130.111 96.9958 130.117 96.9765 130.128 96.9594C130.139 96.9424 130.156 96.9284 130.176 96.9191L135.477 94.2858C135.496 94.2753 135.518 94.2698 135.54 94.2698C135.563 94.2698 135.585 94.2753 135.604 94.2858C135.624 94.295 135.641 94.3088 135.653 94.3257C135.665 94.3427 135.672 94.3622 135.672 94.3821V105.317C135.671 105.337 135.665 105.357 135.653 105.375C135.641 105.392 135.624 105.407 135.604 105.418L130.302 108.047C130.281 108.05 130.26 108.05 130.239 108.047ZM130.37 97.0614V107.741L135.409 105.229V94.5746L130.37 97.0614Z" fill="#283891"/>
<path d="M137.116 104.656C137.096 104.661 137.074 104.661 137.053 104.656C137.033 104.646 137.017 104.632 137.006 104.615C136.995 104.598 136.989 104.579 136.99 104.559V93.6034C136.99 93.5841 136.996 93.5652 137.007 93.5484C137.018 93.5316 137.034 93.5174 137.053 93.5071L142.355 90.8738C142.373 90.8634 142.395 90.8578 142.418 90.8578C142.44 90.8578 142.462 90.8634 142.481 90.8738C142.501 90.8833 142.518 90.8972 142.53 90.9141C142.542 90.931 142.549 90.9503 142.549 90.9701V101.909C142.549 101.929 142.542 101.948 142.53 101.965C142.518 101.982 142.501 101.996 142.481 102.006L137.184 104.639C137.164 104.651 137.14 104.657 137.116 104.656ZM137.248 93.6704V104.35L142.287 101.838V91.1627L137.248 93.6704Z" fill="#283891"/>
<path d="M142.024 91.8869C141.909 91.8879 141.796 91.856 141.704 91.796C141.612 91.7361 141.546 91.6516 141.516 91.5558C141.486 91.46 141.494 91.3583 141.538 91.2667C141.583 91.175 141.661 91.0987 141.761 91.0496L143.454 90.2123L143.016 89.9947C142.957 89.9655 142.906 89.9267 142.865 89.8804C142.823 89.8341 142.793 89.7813 142.775 89.7249C142.758 89.6686 142.753 89.6098 142.762 89.5519C142.771 89.494 142.793 89.4382 142.827 89.3876C142.86 89.337 142.905 89.2927 142.959 89.2571C143.013 89.2215 143.074 89.1954 143.14 89.1803C143.205 89.1651 143.274 89.1612 143.341 89.1687C143.408 89.1763 143.473 89.1952 143.532 89.2243L144.753 89.8272C144.831 89.8666 144.897 89.9231 144.942 89.9911C144.988 90.059 145.011 90.136 145.011 90.2144C145.011 90.2928 144.988 90.3699 144.942 90.4378C144.897 90.5058 144.831 90.5623 144.753 90.6017L142.282 91.8283C142.204 91.8681 142.115 91.8884 142.024 91.8869Z" fill="#263238"/>
<path d="M164.933 92.1465L161.64 93.796V90.5514L164.933 88.902V92.1465Z" fill="#E0E0E0"/>
<path d="M164.933 85.6575L161.64 87.3069V84.0624L164.933 82.413V85.6575Z" fill="#E0E0E0"/>
<path d="M164.933 79.1726L161.64 80.8221V77.5776L164.933 75.9281V79.1726Z" fill="#E0E0E0"/>
<path d="M164.933 72.6836L161.64 74.3331V71.0886L164.933 69.4391V72.6836Z" fill="#E0E0E0"/>
<path d="M164.933 66.1988L161.64 67.8482V64.6037L164.933 62.9542V66.1988Z" fill="#E0E0E0"/>
<path d="M164.933 59.7097L161.64 61.3592V58.1147L164.933 56.4652V59.7097Z" fill="#E0E0E0"/>
<path d="M164.933 53.2249L161.64 54.8743V51.6298L164.933 49.9804V53.2249Z" fill="#E0E0E0"/>
<path d="M111.017 118.927L107.724 120.577V117.332L111.017 115.683V118.927Z" fill="#E0E0E0"/>
<path d="M111.017 112.442L107.724 114.088V110.847L111.017 109.198V112.442Z" fill="#E0E0E0"/>
<path d="M111.017 105.953L107.724 107.603V104.358L111.017 102.709V105.953Z" fill="#E0E0E0"/>
<path d="M111.017 99.4644L107.724 101.114V97.8736L111.017 96.2241V99.4644Z" fill="#E0E0E0"/>
<path d="M111.017 92.9796L107.724 94.6291V91.3845L111.017 89.7351V92.9796Z" fill="#E0E0E0"/>
<path d="M111.017 86.4948L107.724 88.14V84.8997L111.017 83.2502V86.4948Z" fill="#E0E0E0"/>
<path d="M111.017 80.0057L107.724 81.6552V78.4107L111.017 76.7612V80.0057Z" fill="#E0E0E0"/>
<path d="M104.427 115.683L107.724 117.332V114.088L104.427 112.443V115.683Z" fill="#E0E0E0"/>
<path d="M104.427 122.172L107.724 123.821V120.577L104.427 118.927V122.172Z" fill="#E0E0E0"/>
<path d="M104.427 109.198L107.724 110.847V107.603L104.427 105.953V109.198Z" fill="#E0E0E0"/>
<path d="M104.427 102.709L107.724 104.358V101.114L104.427 99.4644V102.709Z" fill="#E0E0E0"/>
<path d="M104.427 96.2241L107.724 97.8736V94.6291L104.427 92.9796V96.2241Z" fill="#E0E0E0"/>
<path d="M104.427 89.7351L107.724 91.3846V88.14L104.427 86.4948V89.7351Z" fill="#E0E0E0"/>
<path d="M104.427 83.2503L107.724 84.8997V81.6552L104.427 80.0057V83.2503Z" fill="#E0E0E0"/>
<path d="M104.427 76.7612L107.724 78.4107V75.1704L104.427 73.5209V76.7612Z" fill="#E0E0E0"/>
<path d="M47.1062 87.2106L50.4039 88.8601V85.6156L47.1062 83.9661V87.2106Z" fill="#E0E0E0"/>
<path d="M47.1062 93.6997L50.4039 95.345V92.1046L47.1062 90.4552V93.6997Z" fill="#E0E0E0"/>
<path d="M47.1062 80.7258L50.4039 82.3711V79.1308L47.1062 77.4813V80.7258Z" fill="#E0E0E0"/>
<path d="M47.1062 74.2368L50.4039 75.8862V72.6417L47.1062 70.9923V74.2368Z" fill="#E0E0E0"/>
<path d="M47.1062 67.7519L50.4039 69.4014V66.1569L47.1062 64.5074V67.7519Z" fill="#E0E0E0"/>
<path d="M71.7707 81.9483V96.5465L60.4866 90.9366V76.3342L71.7707 81.9483Z" fill="#FAFAFA"/>
<path d="M61.0946 83.8824L71.7707 89.1867V81.9483L61.0946 76.6398V83.8824Z" fill="#283891"/>
<path opacity="0.6" d="M61.0946 83.8824L71.7707 89.1867V81.9483L61.0946 76.6398V83.8824Z" fill="white"/>
<path d="M61.3622 90.4928V84.3178L71.7708 89.4881V88.7387L61.3622 83.5642V76.7696L60.4818 76.3342V90.9366L71.7708 96.5465V95.6673L61.3622 90.4928Z" fill="#283891"/>
<path opacity="0.2" d="M61.3622 90.4928V84.3178L71.7708 89.4881V88.7387L61.3622 83.5642V76.7696L60.4818 76.3342V90.9366L71.7708 96.5465V95.6673L61.3622 90.4928Z" fill="black"/>
<path d="M94.3438 93.168V107.766L83.0597 102.161V87.5581L94.3438 93.168Z" fill="#FAFAFA"/>
<path d="M83.6677 95.1021L94.3438 100.406V93.168L83.6677 87.8595V95.1021Z" fill="#283891"/>
<path opacity="0.6" d="M83.6677 95.1021L94.3438 100.406V93.168L83.6677 87.8595V95.1021Z" fill="white"/>
<path d="M83.9352 101.717V95.5375L94.3438 100.712V99.9626L83.9352 94.7881V87.9935L83.0597 87.5581V102.156L94.3487 107.766V106.891L83.9352 101.717Z" fill="#283891"/>
<path opacity="0.2" d="M83.9352 101.717V95.5375L94.3438 100.712V99.9626L83.9352 94.7881V87.9935L83.0597 87.5581V102.156L94.3487 107.766V106.891L83.9352 101.717Z" fill="black"/>
<path d="M147.617 76.3342V90.9324L158.901 85.3225V70.7201L147.617 76.3342Z" fill="#FAFAFA"/>
<path d="M158.289 78.2683L147.617 83.5726V76.3342L158.289 71.0258V78.2683Z" fill="#283891"/>
<path opacity="0.8" d="M158.289 78.2683L147.617 83.5726V76.3342L158.289 71.0258V78.2683Z" fill="white"/>
<path d="M158.026 84.883V71.1597L158.901 70.7243V85.3226L147.612 90.9324V90.0574L158.026 84.883Z" fill="#283891"/>
<path d="M147.617 83.1247V83.8782L158.692 78.373V77.6194L147.617 83.1247Z" fill="#283891"/>
<path d="M113.755 93.168V107.766L125.039 102.161V87.5581L113.755 93.168Z" fill="#FAFAFA"/>
<path d="M124.431 95.1021L113.755 100.406V93.168L124.431 87.8595V95.1021Z" fill="#283891"/>
<path opacity="0.8" d="M124.431 95.1021L113.755 100.406V93.168L124.431 87.8595V95.1021Z" fill="white"/>
<path d="M124.164 101.717V87.9935L125.044 87.5581V102.156L113.755 107.766V106.891L124.164 101.717Z" fill="#283891"/>
<path d="M113.755 99.9626V100.712L124.835 95.2068V94.4574L113.755 99.9626Z" fill="#283891"/>
<path d="M96.6006 90.9324L101.999 87.6753L137.116 48.9003L168.799 55.0376L172.564 53.1788L136.805 45.9907L96.6006 90.9324Z" fill="#455A64"/>
<path d="M136.805 45.9907L79.7425 18.3809L39.8202 62.7198L96.6006 90.9324L136.805 45.9907Z" fill="#263238"/>
<path d="M136.805 45.9907L172.564 53.1788L115.38 25.5691L79.7425 18.3809L136.805 45.9907Z" fill="#37474F"/>
<path d="M54.8835 108.428L52.8553 109.441C53.4652 107.609 53.621 105.688 53.3125 103.802C53.1768 103.134 52.8963 102.495 52.4856 101.918C52.33 101.633 51.1043 99.8663 52.1841 99.0542C53.2638 98.242 55.7833 99.858 55.6714 104.216C55.6164 105.643 55.3517 107.058 54.8835 108.428Z" fill="#283891"/>
<path opacity="0.5" d="M54.8835 108.428L52.8553 109.441C53.4652 107.609 53.621 105.688 53.3125 103.802C53.1768 103.134 52.8963 102.495 52.4856 101.918C52.33 101.633 51.1043 99.8663 52.1841 99.0542C53.2638 98.242 55.7833 99.858 55.6714 104.216C55.6164 105.643 55.3517 107.058 54.8835 108.428Z" fill="black"/>
<path d="M53.9448 108.984H53.9059C53.8816 108.975 53.8621 108.959 53.8514 108.938C53.8406 108.917 53.8392 108.893 53.8475 108.871C54.3891 107.34 54.6323 105.741 54.5673 104.141C54.5284 101.252 52.7775 99.7198 52.7629 99.7072C52.7444 99.6902 52.7341 99.6678 52.7341 99.6444C52.7341 99.6211 52.7444 99.5987 52.7629 99.5817C52.7819 99.566 52.8071 99.5573 52.8334 99.5573C52.8597 99.5573 52.8849 99.566 52.9039 99.5817C52.9039 99.5817 54.7327 101.177 54.7716 104.137C54.8331 105.76 54.585 107.38 54.0372 108.934C54.0289 108.949 54.0158 108.962 53.9994 108.971C53.9831 108.98 53.9641 108.984 53.9448 108.984Z" fill="white"/>
<path d="M53.3125 109.219L49.9856 110.919C49.9856 110.919 48.4486 110.722 48.5654 109.478C48.6821 108.235 49.3047 107.942 48.5313 107.385C47.758 106.828 47.5585 106.799 47.5926 106.267C47.6564 105.88 47.8895 105.528 48.2443 105.284C48.4615 105.13 48.6143 104.92 48.6793 104.685C48.7443 104.45 48.7179 104.203 48.6043 103.982C48.2152 103.337 47.6947 102.726 48.4681 102.416C48.9545 102.24 49.7132 102.462 50.2288 102.931C50.6091 103.347 51.1134 103.667 51.6879 103.856C52.1743 103.965 53.2006 103.973 53.1471 104.693C53.0936 105.413 52.8942 105.673 53.0985 105.995C53.4535 106.619 55.1023 106.946 53.3125 109.219Z" fill="#283891"/>
<path opacity="0.2" d="M53.3125 109.219L49.9856 110.919C49.9856 110.919 48.4486 110.722 48.5654 109.478C48.6821 108.235 49.3047 107.942 48.5313 107.385C47.758 106.828 47.5585 106.799 47.5926 106.267C47.6564 105.88 47.8895 105.528 48.2443 105.284C48.4615 105.13 48.6143 104.92 48.6793 104.685C48.7443 104.45 48.7179 104.203 48.6043 103.982C48.2152 103.337 47.6947 102.726 48.4681 102.416C48.9545 102.24 49.7132 102.462 50.2288 102.931C50.6091 103.347 51.1134 103.667 51.6879 103.856C52.1743 103.965 53.2006 103.973 53.1471 104.693C53.0936 105.413 52.8942 105.673 53.0985 105.995C53.4535 106.619 55.1023 106.946 53.3125 109.219Z" fill="black"/>
<path d="M51.9311 109.998C51.9178 109.997 51.9049 109.994 51.893 109.989C51.8811 109.984 51.8705 109.977 51.8618 109.969C51.8531 109.96 51.8466 109.95 51.8427 109.939C51.8387 109.928 51.8373 109.917 51.8386 109.905C51.8386 109.864 52.1986 105.639 48.7939 102.868C48.7757 102.852 48.7656 102.83 48.7656 102.807C48.7656 102.785 48.7757 102.763 48.7939 102.747C48.8137 102.731 48.8398 102.722 48.8668 102.722C48.8939 102.722 48.92 102.731 48.9398 102.747C52.4126 105.572 52.0478 109.864 52.0429 109.922C52.0393 109.945 52.0256 109.965 52.0047 109.979C51.9838 109.993 51.9574 110 51.9311 109.998Z" fill="white"/>
<path d="M51.3474 106.313C51.334 106.312 51.3209 106.309 51.309 106.304C51.2971 106.298 51.2865 106.291 51.2779 106.282C51.2693 106.273 51.2629 106.263 51.2589 106.252C51.255 106.24 51.2537 106.229 51.255 106.217C51.2799 105.862 51.3905 105.515 51.5797 105.199C51.769 104.882 52.0328 104.603 52.3542 104.379C52.3766 104.367 52.4034 104.363 52.4294 104.367C52.4555 104.37 52.4789 104.382 52.4953 104.4C52.5134 104.417 52.5236 104.438 52.5236 104.461C52.5236 104.484 52.5134 104.505 52.4953 104.522C52.2023 104.734 51.9617 104.994 51.788 105.287C51.6142 105.581 51.5107 105.901 51.4836 106.23C51.4828 106.244 51.4783 106.257 51.4706 106.269C51.4629 106.281 51.452 106.292 51.439 106.3C51.4259 106.308 51.4109 106.313 51.395 106.316C51.3792 106.318 51.3629 106.317 51.3474 106.313Z" fill="white"/>
<path d="M51.5955 107.046C51.5808 107.047 51.5662 107.044 51.5527 107.039C51.5392 107.034 51.5272 107.026 51.5177 107.017C51.5177 107.017 50.6714 106.234 48.7599 106.46C48.7335 106.464 48.7064 106.458 48.6846 106.445C48.6628 106.432 48.6479 106.412 48.6431 106.389C48.6411 106.377 48.6417 106.366 48.645 106.354C48.6483 106.343 48.6542 106.332 48.6624 106.323C48.6706 106.313 48.6808 106.306 48.6925 106.3C48.7042 106.294 48.7172 106.29 48.7307 106.288C50.7541 106.05 51.649 106.866 51.649 106.9C51.6675 106.917 51.6777 106.939 51.6777 106.962C51.6777 106.986 51.6675 107.008 51.649 107.025C51.6335 107.036 51.6151 107.043 51.5955 107.046Z" fill="white"/>
<path d="M81.0655 121.402L79.0373 122.419C79.6475 120.586 79.8033 118.663 79.4945 116.775C79.3589 116.108 79.0784 115.469 78.6676 114.892C78.512 114.607 77.2863 112.844 78.3612 112.028C79.4361 111.212 81.9653 112.832 81.8535 117.19C81.7991 118.617 81.5343 120.032 81.0655 121.402Z" fill="#283891"/>
<path opacity="0.5" d="M81.0655 121.402L79.0373 122.419C79.6475 120.586 79.8033 118.663 79.4945 116.775C79.3589 116.108 79.0784 115.469 78.6676 114.892C78.512 114.607 77.2863 112.844 78.3612 112.028C79.4361 111.212 81.9653 112.832 81.8535 117.19C81.7991 118.617 81.5343 120.032 81.0655 121.402Z" fill="black"/>
<path d="M80.1414 121.963H80.1025C80.0782 121.953 80.0587 121.937 80.0479 121.916C80.0372 121.895 80.0358 121.871 80.0441 121.849C80.5859 120.316 80.8292 118.716 80.7639 117.115C80.725 114.23 78.974 112.698 78.9595 112.681C78.941 112.664 78.9307 112.642 78.9307 112.618C78.9307 112.595 78.941 112.573 78.9595 112.556C78.9785 112.54 79.0037 112.531 79.03 112.531C79.0562 112.531 79.0815 112.54 79.1005 112.556C79.1005 112.556 80.9293 114.151 80.9682 117.115C81.0306 118.736 80.7825 120.356 80.2338 121.908C80.2268 121.924 80.2141 121.938 80.1976 121.948C80.181 121.958 80.1614 121.963 80.1414 121.963Z" fill="white"/>
<path d="M79.4945 122.197L76.1433 123.892C76.1433 123.892 74.6063 123.696 74.7231 122.457C74.8398 121.217 75.4624 120.92 74.689 120.363C73.9157 119.806 73.7163 119.781 73.7503 119.245C73.8124 118.859 74.046 118.508 74.4021 118.266C74.6189 118.111 74.7714 117.9 74.8364 117.665C74.9013 117.429 74.8752 117.181 74.762 116.96C74.3729 116.315 73.8524 115.704 74.6258 115.394C75.1122 115.218 75.8709 115.44 76.3865 115.913C76.7584 116.327 77.2545 116.645 77.8213 116.834C78.3077 116.943 79.334 116.951 79.2805 117.671C79.227 118.391 79.0276 118.647 79.2318 118.969C79.655 119.597 81.2844 119.924 79.4945 122.197Z" fill="#283891"/>
<path opacity="0.2" d="M79.4945 122.197L76.1433 123.892C76.1433 123.892 74.6063 123.696 74.7231 122.457C74.8398 121.217 75.4624 120.92 74.689 120.363C73.9157 119.806 73.7163 119.781 73.7503 119.245C73.8124 118.859 74.046 118.508 74.4021 118.266C74.6189 118.111 74.7714 117.9 74.8364 117.665C74.9013 117.429 74.8752 117.181 74.762 116.96C74.3729 116.315 73.8524 115.704 74.6258 115.394C75.1122 115.218 75.8709 115.44 76.3865 115.913C76.7584 116.327 77.2545 116.645 77.8213 116.834C78.3077 116.943 79.334 116.951 79.2805 117.671C79.227 118.391 79.0276 118.647 79.2318 118.969C79.655 119.597 81.2844 119.924 79.4945 122.197Z" fill="black"/>
<path d="M78.1277 122.976C78.1142 122.975 78.1012 122.971 78.0892 122.966C78.0773 122.96 78.0667 122.953 78.0581 122.944C78.0496 122.935 78.0431 122.925 78.0392 122.914C78.0353 122.903 78.0339 122.891 78.0353 122.879C78.0353 122.837 78.3952 118.613 74.9905 115.846C74.9808 115.838 74.9731 115.828 74.9678 115.817C74.9626 115.807 74.9598 115.795 74.9598 115.783C74.9598 115.772 74.9626 115.76 74.9678 115.749C74.9731 115.738 74.9808 115.729 74.9905 115.72C75.0095 115.705 75.0348 115.696 75.061 115.696C75.0873 115.696 75.1125 115.705 75.1315 115.72C78.6092 118.546 78.2444 122.837 78.2395 122.892C78.2371 122.916 78.224 122.938 78.2032 122.953C78.1823 122.969 78.1553 122.977 78.1277 122.976Z" fill="white"/>
<path d="M77.5294 119.287C77.5032 119.285 77.4789 119.274 77.4617 119.257C77.4445 119.24 77.4357 119.218 77.437 119.195C77.461 118.84 77.5712 118.493 77.7605 118.176C77.9499 117.86 78.2141 117.581 78.5363 117.357C78.5469 117.35 78.5592 117.345 78.5722 117.342C78.5853 117.34 78.5989 117.339 78.6121 117.341C78.6254 117.343 78.638 117.348 78.6492 117.354C78.6604 117.36 78.67 117.369 78.6773 117.378C78.6925 117.397 78.6985 117.421 78.694 117.443C78.6894 117.466 78.6747 117.486 78.653 117.5C78.3587 117.711 78.1173 117.971 77.9434 118.264C77.7695 118.558 77.6667 118.879 77.6413 119.208C77.6401 119.219 77.6362 119.231 77.6299 119.241C77.6236 119.251 77.615 119.26 77.6046 119.268C77.5942 119.275 77.5822 119.281 77.5693 119.284C77.5564 119.287 77.5429 119.289 77.5294 119.287Z" fill="white"/>
<path d="M77.7775 120.02C77.7488 120.021 77.7209 120.012 77.6997 119.995C77.6997 119.995 76.8534 119.212 74.9419 119.438C74.9285 119.44 74.9148 119.439 74.9016 119.436C74.8884 119.434 74.876 119.429 74.8652 119.422C74.8543 119.414 74.8452 119.406 74.8383 119.396C74.8314 119.385 74.827 119.374 74.8252 119.363C74.8231 119.351 74.8238 119.34 74.8272 119.329C74.8305 119.318 74.8365 119.307 74.8447 119.298C74.8529 119.289 74.8632 119.282 74.8749 119.276C74.8866 119.271 74.8995 119.267 74.9127 119.266C76.9361 119.028 77.831 119.84 77.831 119.878C77.8492 119.894 77.8593 119.916 77.8593 119.938C77.8593 119.961 77.8492 119.983 77.831 119.999C77.8163 120.011 77.7975 120.018 77.7775 120.02Z" fill="white"/>
<path d="M173.376 107.628L171.348 108.641C171.958 106.808 172.114 104.886 171.805 102.998C171.668 102.331 171.388 101.692 170.978 101.114C170.818 100.829 169.597 99.0667 170.672 98.2545C171.747 97.4424 174.276 99.0584 174.164 103.416C174.109 104.843 173.844 106.258 173.376 107.628Z" fill="#283891"/>
<path opacity="0.5" d="M173.376 107.628L171.348 108.641C171.958 106.808 172.114 104.886 171.805 102.998C171.668 102.331 171.388 101.692 170.978 101.114C170.818 100.829 169.597 99.0667 170.672 98.2545C171.747 97.4424 174.276 99.0584 174.164 103.416C174.109 104.843 173.844 106.258 173.376 107.628Z" fill="black"/>
<path d="M172.433 108.168H172.399C172.373 108.16 172.353 108.143 172.342 108.122C172.331 108.101 172.331 108.077 172.34 108.055C172.879 106.523 173.122 104.925 173.06 103.324C173.021 100.432 171.27 98.9034 171.256 98.8867C171.246 98.8789 171.238 98.8695 171.233 98.859C171.228 98.8486 171.225 98.8374 171.225 98.826C171.225 98.8146 171.228 98.8034 171.233 98.793C171.238 98.7825 171.246 98.7731 171.256 98.7653C171.275 98.7494 171.301 98.7406 171.329 98.7406C171.356 98.7406 171.382 98.7494 171.401 98.7653C171.401 98.7653 173.23 100.36 173.269 103.32C173.333 104.941 173.092 106.56 172.554 108.114C172.545 108.134 172.528 108.151 172.506 108.161C172.483 108.171 172.457 108.174 172.433 108.168Z" fill="white"/>
<path d="M171.805 108.403L168.454 110.077C168.454 110.077 166.917 109.885 167.034 108.641C167.151 107.398 167.773 107.105 166.995 106.548C166.217 105.991 166.022 105.966 166.056 105.43C166.124 105.045 166.356 104.696 166.708 104.451C166.926 104.298 167.08 104.088 167.145 103.852C167.21 103.617 167.183 103.369 167.068 103.149C166.684 102.5 166.158 101.893 166.937 101.583C167.423 101.407 168.182 101.625 168.697 102.098C169.069 102.511 169.565 102.83 170.132 103.019C170.618 103.132 171.645 103.14 171.591 103.856C171.538 104.572 171.333 104.836 171.543 105.158C171.946 105.803 173.595 106.129 171.805 108.403Z" fill="#283891"/>
<path opacity="0.2" d="M171.805 108.403L168.454 110.077C168.454 110.077 166.917 109.885 167.034 108.641C167.151 107.398 167.773 107.105 166.995 106.548C166.217 105.991 166.022 105.966 166.056 105.43C166.124 105.045 166.356 104.696 166.708 104.451C166.926 104.298 167.08 104.088 167.145 103.852C167.21 103.617 167.183 103.369 167.068 103.149C166.684 102.5 166.158 101.893 166.937 101.583C167.423 101.407 168.182 101.625 168.697 102.098C169.069 102.511 169.565 102.83 170.132 103.019C170.618 103.132 171.645 103.14 171.591 103.856C171.538 104.572 171.333 104.836 171.543 105.158C171.946 105.803 173.595 106.129 171.805 108.403Z" fill="black"/>
<path d="M170.438 109.181C170.425 109.18 170.412 109.177 170.4 109.171C170.388 109.166 170.377 109.159 170.369 109.15C170.36 109.141 170.354 109.13 170.35 109.119C170.346 109.108 170.345 109.097 170.346 109.085C170.346 109.043 170.706 104.819 167.306 102.052C167.293 102.045 167.282 102.036 167.273 102.025C167.265 102.014 167.259 102.002 167.257 101.989C167.255 101.976 167.256 101.962 167.261 101.95C167.265 101.937 167.273 101.926 167.284 101.916C167.294 101.907 167.307 101.899 167.321 101.894C167.335 101.889 167.351 101.887 167.366 101.888C167.381 101.889 167.396 101.893 167.409 101.9C167.422 101.906 167.434 101.915 167.442 101.926C170.92 104.752 170.555 109.043 170.55 109.102C170.549 109.113 170.545 109.124 170.539 109.135C170.533 109.145 170.524 109.154 170.514 109.162C170.503 109.169 170.491 109.174 170.478 109.178C170.465 109.181 170.452 109.182 170.438 109.181Z" fill="white"/>
<path d="M169.84 105.493C169.827 105.492 169.814 105.49 169.802 105.485C169.79 105.48 169.78 105.473 169.771 105.464C169.762 105.455 169.756 105.445 169.752 105.434C169.748 105.424 169.746 105.412 169.748 105.401C169.772 105.045 169.882 104.698 170.071 104.382C170.261 104.065 170.525 103.786 170.847 103.563C170.866 103.548 170.892 103.54 170.918 103.54C170.943 103.54 170.969 103.548 170.988 103.563C171.003 103.582 171.009 103.605 171.005 103.628C171 103.651 170.985 103.671 170.964 103.684C170.669 103.895 170.427 104.155 170.252 104.449C170.077 104.742 169.974 105.063 169.947 105.392C169.95 105.406 169.95 105.419 169.946 105.432C169.942 105.445 169.934 105.457 169.924 105.466C169.913 105.476 169.9 105.484 169.886 105.488C169.871 105.493 169.856 105.495 169.84 105.493Z" fill="white"/>
<path d="M170.083 106.23C170.056 106.228 170.03 106.218 170.01 106.2C170.01 106.2 169.164 105.418 167.248 105.644C167.225 105.639 167.205 105.628 167.19 105.613C167.176 105.597 167.168 105.578 167.168 105.558C167.168 105.538 167.176 105.518 167.19 105.503C167.205 105.487 167.225 105.476 167.248 105.472C169.271 105.233 170.166 106.05 170.166 106.083C170.177 106.096 170.184 106.112 170.186 106.128C170.188 106.145 170.185 106.161 170.177 106.176C170.169 106.191 170.157 106.204 170.141 106.213C170.126 106.223 170.107 106.229 170.088 106.23H170.083Z" fill="white"/>
<path d="M122.573 132.45L120.545 133.463C121.152 131.63 121.307 129.707 120.998 127.819C120.863 127.153 120.584 126.514 120.176 125.935C120.015 125.651 118.794 123.888 119.869 123.072C120.944 122.256 123.473 123.88 123.356 128.234C123.305 129.662 123.042 131.079 122.573 132.45Z" fill="#283891"/>
<path opacity="0.5" d="M122.573 132.45L120.545 133.463C121.152 131.63 121.307 129.707 120.998 127.819C120.863 127.153 120.584 126.514 120.176 125.935C120.015 125.651 118.794 123.888 119.869 123.072C120.944 122.256 123.473 123.88 123.356 128.234C123.305 129.662 123.042 131.079 122.573 132.45Z" fill="black"/>
<path d="M121.63 133.006H121.596C121.583 133.003 121.571 132.997 121.561 132.989C121.551 132.981 121.543 132.972 121.537 132.961C121.531 132.951 121.527 132.939 121.527 132.928C121.526 132.916 121.528 132.904 121.533 132.893C122.075 131.361 122.319 129.763 122.257 128.163C122.218 125.274 120.467 123.742 120.448 123.725C120.43 123.709 120.42 123.687 120.42 123.664C120.42 123.642 120.43 123.62 120.448 123.604C120.457 123.595 120.468 123.588 120.481 123.583C120.493 123.578 120.507 123.575 120.521 123.575C120.535 123.575 120.548 123.578 120.561 123.583C120.574 123.588 120.585 123.595 120.594 123.604C120.594 123.604 122.418 125.211 122.457 128.142C122.516 129.763 122.268 131.382 121.722 132.935C121.718 132.954 121.707 132.971 121.69 132.984C121.673 132.997 121.652 133.005 121.63 133.006Z" fill="white"/>
<path d="M120.997 133.241L117.646 134.936C117.646 134.936 116.114 134.744 116.231 133.5C116.348 132.257 116.97 131.964 116.192 131.407C115.414 130.85 115.219 130.825 115.253 130.289C115.32 129.904 115.552 129.554 115.905 129.31C116.124 129.157 116.277 128.947 116.342 128.711C116.408 128.476 116.38 128.229 116.265 128.008C115.881 127.359 115.355 126.752 116.134 126.442C116.596 126.262 117.379 126.484 117.894 126.957C118.265 127.372 118.762 127.69 119.329 127.878C119.816 127.987 120.837 127.999 120.788 128.715C120.74 129.431 120.535 129.695 120.74 130.017C121.143 130.654 122.787 130.968 120.997 133.241Z" fill="#283891"/>
<path opacity="0.2" d="M120.997 133.241L117.646 134.936C117.646 134.936 116.114 134.744 116.231 133.5C116.348 132.257 116.97 131.964 116.192 131.407C115.414 130.85 115.219 130.825 115.253 130.289C115.32 129.904 115.552 129.554 115.905 129.31C116.124 129.157 116.277 128.947 116.342 128.711C116.408 128.476 116.38 128.229 116.265 128.008C115.881 127.359 115.355 126.752 116.134 126.442C116.596 126.262 117.379 126.484 117.894 126.957C118.265 127.372 118.762 127.69 119.329 127.878C119.816 127.987 120.837 127.999 120.788 128.715C120.74 129.431 120.535 129.695 120.74 130.017C121.143 130.654 122.787 130.968 120.997 133.241Z" fill="black"/>
<path d="M119.636 134.003C119.622 134.002 119.609 133.998 119.597 133.993C119.585 133.988 119.575 133.98 119.566 133.971C119.558 133.962 119.551 133.952 119.547 133.941C119.543 133.93 119.542 133.918 119.543 133.907C119.543 133.865 119.903 129.64 116.498 126.873C116.48 126.856 116.47 126.834 116.47 126.81C116.47 126.787 116.48 126.765 116.498 126.748C116.517 126.732 116.543 126.723 116.569 126.723C116.595 126.723 116.621 126.732 116.64 126.748C120.117 129.574 119.747 133.865 119.747 133.923C119.746 133.935 119.742 133.946 119.736 133.956C119.73 133.967 119.721 133.976 119.711 133.983C119.7 133.99 119.688 133.996 119.676 133.999C119.663 134.003 119.649 134.004 119.636 134.003Z" fill="white"/>
<path d="M119.052 130.331C119.039 130.331 119.026 130.328 119.014 130.323C119.002 130.318 118.991 130.311 118.983 130.302C118.974 130.294 118.968 130.284 118.964 130.273C118.96 130.262 118.958 130.251 118.96 130.239C118.984 129.884 119.095 129.538 119.283 129.221C119.471 128.905 119.734 128.626 120.054 128.401C120.065 128.394 120.077 128.389 120.09 128.386C120.103 128.384 120.117 128.383 120.13 128.385C120.143 128.387 120.156 128.391 120.167 128.398C120.178 128.404 120.188 128.413 120.195 128.422C120.213 128.439 120.223 128.46 120.223 128.483C120.223 128.506 120.213 128.527 120.195 128.544C119.9 128.754 119.657 129.014 119.482 129.308C119.308 129.601 119.204 129.923 119.178 130.252C119.177 130.265 119.173 130.277 119.166 130.288C119.159 130.3 119.149 130.309 119.137 130.317C119.125 130.325 119.111 130.33 119.096 130.332C119.082 130.335 119.067 130.334 119.052 130.331Z" fill="white"/>
<path d="M119.281 131.072C119.267 131.072 119.253 131.069 119.241 131.064C119.228 131.059 119.217 131.052 119.208 131.043C119.208 131.043 118.361 130.26 116.445 130.486C116.432 130.489 116.418 130.489 116.405 130.486C116.392 130.483 116.379 130.478 116.369 130.471C116.358 130.464 116.349 130.455 116.343 130.444C116.337 130.434 116.334 130.422 116.333 130.411C116.331 130.4 116.332 130.389 116.335 130.378C116.338 130.367 116.343 130.357 116.351 130.348C116.359 130.339 116.368 130.331 116.38 130.325C116.391 130.32 116.403 130.316 116.416 130.315C118.444 130.076 119.334 130.892 119.334 130.926C119.352 130.942 119.362 130.964 119.362 130.986C119.362 131.009 119.352 131.031 119.334 131.047C119.32 131.06 119.301 131.069 119.281 131.072Z" fill="white"/>
<path d="M191.572 101.001C191.365 101.001 191.168 100.93 191.022 100.805C190.876 100.679 190.794 100.509 190.794 100.331V72.7841C190.794 72.6064 190.876 72.436 191.022 72.3104C191.168 72.1848 191.365 72.1142 191.572 72.1142C191.778 72.1142 191.976 72.1848 192.122 72.3104C192.268 72.436 192.35 72.6064 192.35 72.7841V100.331C192.35 100.509 192.268 100.679 192.122 100.805C191.976 100.93 191.778 101.001 191.572 101.001Z" fill="#37474F"/>
<path d="M191.572 82.8735C191.48 82.8735 191.39 82.8526 191.31 82.8129C191.231 82.7732 191.165 82.7161 191.12 82.6474L186.689 75.949C186.621 75.8455 186.604 75.7235 186.641 75.6092C186.677 75.4949 186.764 75.3974 186.883 75.3378C186.942 75.3087 187.007 75.29 187.075 75.2827C187.142 75.2754 187.211 75.2796 187.276 75.2952C187.342 75.3108 187.403 75.3374 187.457 75.3734C187.51 75.4095 187.555 75.4543 187.588 75.5053L192.019 82.2036C192.054 82.2546 192.076 82.311 192.085 82.3695C192.094 82.428 192.089 82.4875 192.071 82.5444C192.053 82.6013 192.022 82.6546 191.98 82.701C191.937 82.7474 191.885 82.7861 191.825 82.8148C191.748 82.8539 191.661 82.8742 191.572 82.8735Z" fill="#37474F"/>
<path d="M191.484 84.6862C191.395 84.6869 191.308 84.6666 191.231 84.6276C191.172 84.5989 191.12 84.5603 191.078 84.5142C191.036 84.4681 191.005 84.4153 190.987 84.3589C190.969 84.3025 190.964 84.2435 190.973 84.1855C190.981 84.1274 191.003 84.0713 191.037 84.0205L196.956 75.0782C197.025 74.975 197.138 74.8993 197.271 74.8679C197.404 74.8365 197.546 74.8519 197.666 74.9108C197.786 74.9696 197.874 75.0671 197.911 75.1817C197.947 75.2963 197.929 75.4187 197.861 75.522L191.937 84.4601C191.894 84.531 191.829 84.5899 191.749 84.6299C191.669 84.67 191.577 84.6895 191.484 84.6862Z" fill="#37474F"/>
<path d="M204.856 76.3341C210.678 74.2583 213.443 68.5131 211.031 63.5017C208.62 58.4904 201.945 56.1106 196.123 58.1864C190.301 60.2622 187.536 66.0074 189.948 71.0188C192.359 76.0301 199.034 78.4099 204.856 76.3341Z" fill="#283891"/>
<path opacity="0.3" d="M204.856 76.3341C210.678 74.2583 213.443 68.5131 211.031 63.5017C208.62 58.4904 201.945 56.1106 196.123 58.1864C190.301 60.2622 187.536 66.0074 189.948 71.0188C192.359 76.0301 199.034 78.4099 204.856 76.3341Z" fill="black"/>
<path d="M198.021 64.4823C198.017 63.1778 198.317 61.8857 198.901 60.6822C199.486 59.4787 200.344 58.3879 201.426 57.4741C201.115 57.4741 200.799 57.4406 200.478 57.4406C198.605 57.4402 196.761 57.8364 195.109 58.5943C193.456 59.3522 192.046 60.4485 191.002 61.7865C189.958 63.1245 189.313 64.6631 189.123 66.2665C188.933 67.8699 189.204 69.4888 189.913 70.9806C190.622 72.4723 191.747 73.7909 193.188 74.8202C194.629 75.8494 196.342 76.5576 198.176 76.8822C200.01 77.2069 201.909 77.1381 203.705 76.6818C205.501 76.2256 207.138 75.3959 208.474 74.2661C205.624 74.0594 202.968 72.9392 201.033 71.1272C199.097 69.3153 198.022 66.9438 198.021 64.4823Z" fill="#283891"/>
<path opacity="0.4" d="M198.021 64.4823C198.017 63.1778 198.317 61.8857 198.901 60.6822C199.486 59.4787 200.344 58.3879 201.426 57.4741C201.115 57.4741 200.799 57.4406 200.478 57.4406C198.605 57.4402 196.761 57.8364 195.109 58.5943C193.456 59.3522 192.046 60.4485 191.002 61.7865C189.958 63.1245 189.313 64.6631 189.123 66.2665C188.933 67.8699 189.204 69.4888 189.913 70.9806C190.622 72.4723 191.747 73.7909 193.188 74.8202C194.629 75.8494 196.342 76.5576 198.176 76.8822C200.01 77.2069 201.909 77.1381 203.705 76.6818C205.501 76.2256 207.138 75.3959 208.474 74.2661C205.624 74.0594 202.968 72.9392 201.033 71.1272C199.097 69.3153 198.022 66.9438 198.021 64.4823Z" fill="black"/>
<path d="M181.854 77.0836C186.369 77.0836 190.03 73.9328 190.03 70.0461C190.03 66.1594 186.369 63.0087 181.854 63.0087C177.338 63.0087 173.678 66.1594 173.678 70.0461C173.678 73.9328 177.338 77.0836 181.854 77.0836Z" fill="#283891"/>
<path opacity="0.3" d="M181.854 77.0836C186.369 77.0836 190.03 73.9328 190.03 70.0461C190.03 66.1594 186.369 63.0087 181.854 63.0087C177.338 63.0087 173.678 66.1594 173.678 70.0461C173.678 73.9328 177.338 77.0836 181.854 77.0836Z" fill="black"/>
<path d="M182.739 63.0463C181.651 62.9437 180.55 63.0309 179.502 63.3028C178.454 63.5747 177.481 64.0257 176.64 64.6288C176.611 64.9302 176.596 65.2317 176.596 65.5415C176.593 68.591 177.879 71.5374 180.215 73.8307C180.376 73.9884 180.481 74.1822 180.518 74.3895C180.556 74.5968 180.524 74.809 180.427 75.0013C180.329 75.1937 180.17 75.3581 179.968 75.4755C179.766 75.5929 179.529 75.6584 179.286 75.6643H179.257C178.234 75.6624 177.222 75.4963 176.27 75.1745C177.217 75.9349 178.36 76.4909 179.605 76.7967C180.85 77.1025 182.162 77.1494 183.433 76.9334C184.703 76.7175 185.895 76.2449 186.912 75.5547C187.929 74.8644 188.74 73.9761 189.28 72.963C189.82 71.9499 190.073 70.841 190.017 69.7275C189.961 68.6139 189.599 67.5277 188.961 66.5581C188.322 65.5886 187.425 64.7635 186.343 64.1508C185.262 63.538 184.026 63.1552 182.739 63.0338V63.0463Z" fill="#283891"/>
<path opacity="0.4" d="M182.739 63.0463C181.651 62.9437 180.55 63.0309 179.502 63.3028C178.454 63.5747 177.481 64.0257 176.64 64.6288C176.611 64.9302 176.596 65.2317 176.596 65.5415C176.593 68.591 177.879 71.5374 180.215 73.8307C180.376 73.9884 180.481 74.1822 180.518 74.3895C180.556 74.5968 180.524 74.809 180.427 75.0013C180.329 75.1937 180.17 75.3581 179.968 75.4755C179.766 75.5929 179.529 75.6584 179.286 75.6643H179.257C178.234 75.6624 177.222 75.4963 176.27 75.1745C177.217 75.9349 178.36 76.4909 179.605 76.7967C180.85 77.1025 182.162 77.1494 183.433 76.9334C184.703 76.7175 185.895 76.2449 186.912 75.5547C187.929 74.8644 188.74 73.9761 189.28 72.963C189.82 71.9499 190.073 70.841 190.017 69.7275C189.961 68.6139 189.599 67.5277 188.961 66.5581C188.322 65.5886 187.425 64.7635 186.343 64.1508C185.262 63.538 184.026 63.1552 182.739 63.0338V63.0463Z" fill="black"/>
<path d="M205.811 66.0747C207.669 59.3013 202.795 52.5144 194.926 50.9157C187.056 49.3171 179.171 53.512 177.314 60.2854C175.457 67.0588 180.33 73.8457 188.2 75.4444C196.069 77.043 203.954 72.8481 205.811 66.0747Z" fill="#283891"/>
<path opacity="0.2" d="M195.745 71.4653C193.244 71.4648 190.785 70.9127 188.602 69.8618C186.419 68.8108 184.585 67.296 183.276 65.4619C181.966 63.6278 181.224 61.5354 181.121 59.3844C181.018 57.2334 181.556 55.0955 182.686 53.1746C180.946 54.3275 179.531 55.8025 178.543 57.4902C177.556 59.1779 177.023 61.0352 176.982 62.9244C176.942 64.8136 177.396 66.6865 178.311 68.4042C179.226 70.1219 180.578 71.6405 182.267 72.8474C183.956 74.0544 185.939 74.9189 188.069 75.3768C190.199 75.8347 192.421 75.8743 194.571 75.4927C196.721 75.1111 198.744 74.3181 200.489 73.1723C202.235 72.0266 203.659 70.5575 204.656 68.8739C202.099 70.5606 198.966 71.4717 195.745 71.4653Z" fill="black"/>
<path d="M41.6684 106.05C41.462 106.05 41.2641 105.979 41.1181 105.854C40.9722 105.728 40.8902 105.558 40.8902 105.38V77.8329C40.8902 77.6553 40.9722 77.4849 41.1181 77.3593C41.2641 77.2337 41.462 77.1631 41.6684 77.1631C41.8748 77.1631 42.0727 77.2337 42.2187 77.3593C42.3646 77.4849 42.4466 77.6553 42.4466 77.8329V105.38C42.4466 105.558 42.3646 105.728 42.2187 105.854C42.0727 105.979 41.8748 106.05 41.6684 106.05Z" fill="#37474F"/>
<path d="M41.6685 87.9223C41.5767 87.9248 41.486 87.9049 41.4068 87.8649C41.3276 87.8249 41.2632 87.7665 41.221 87.6963L36.7852 80.9979C36.7169 80.8946 36.6989 80.7722 36.7354 80.6576C36.7719 80.543 36.8598 80.4455 36.9798 80.3867C37.0997 80.3278 37.242 80.3124 37.3751 80.3438C37.5083 80.3752 37.6215 80.4509 37.6899 80.5541L42.1208 87.2525C42.1546 87.3033 42.1764 87.3594 42.1849 87.4174C42.1934 87.4755 42.1884 87.5344 42.1703 87.5909C42.1523 87.6473 42.1214 87.7001 42.0795 87.7462C42.0376 87.7923 41.9855 87.8308 41.9263 87.8595C41.8489 87.9008 41.7596 87.9226 41.6685 87.9223Z" fill="#37474F"/>
<path d="M41.5858 89.7393C41.4951 89.7386 41.4062 89.7175 41.3278 89.6781C41.2495 89.6387 41.1845 89.5823 41.1393 89.5146C41.094 89.4469 41.0702 89.3702 41.07 89.2921C41.0698 89.214 41.0934 89.1373 41.1383 89.0694L47.0674 80.1271C47.1357 80.0239 47.249 79.9482 47.3821 79.9168C47.5153 79.8854 47.6575 79.9008 47.7775 79.9597C47.8974 80.0185 47.9853 80.116 48.0218 80.2306C48.0583 80.3452 48.0404 80.4676 47.972 80.5709L42.0382 89.5132C41.9919 89.5813 41.9259 89.638 41.8466 89.6776C41.7674 89.7172 41.6775 89.7385 41.5858 89.7393Z" fill="#37474F"/>
<path d="M54.9618 81.3832C60.7839 79.3074 63.5487 73.5622 61.1371 68.5508C58.7255 63.5395 52.0507 61.1597 46.2285 63.2355C40.4063 65.3112 37.6415 71.0565 40.0532 76.0678C42.4648 81.0792 49.1396 83.4589 54.9618 81.3832Z" fill="#283891"/>
<path opacity="0.3" d="M54.9618 81.3832C60.7839 79.3074 63.5487 73.5622 61.1371 68.5508C58.7255 63.5395 52.0507 61.1597 46.2285 63.2355C40.4063 65.3112 37.6415 71.0565 40.0532 76.0678C42.4648 81.0792 49.1396 83.4589 54.9618 81.3832Z" fill="black"/>
<path d="M48.1228 69.5312C48.1193 68.2267 48.4188 66.9348 49.0034 65.7313C49.5881 64.5279 50.4462 63.4371 51.5274 62.523C51.2113 62.523 50.9 62.4895 50.5547 62.4895C48.682 62.4884 46.8378 62.884 45.1847 63.6415C43.5317 64.3989 42.1207 65.4949 41.0761 66.8328C40.0316 68.1706 39.3857 69.7092 39.1953 71.3127C39.005 72.9163 39.2761 74.5355 39.9847 76.0275C40.6934 77.5195 41.8178 78.8385 43.2587 79.868C44.6996 80.8976 46.4128 81.606 48.247 81.9309C50.0813 82.2558 51.9802 82.1871 53.7763 81.7308C55.5724 81.2746 57.2105 80.4449 58.546 79.3149C55.7015 79.1023 53.053 77.9795 51.1233 76.1682C49.1936 74.3569 48.123 71.9887 48.1228 69.5312Z" fill="#283891"/>
<path opacity="0.4" d="M48.1228 69.5312C48.1193 68.2267 48.4188 66.9348 49.0034 65.7313C49.5881 64.5279 50.4462 63.4371 51.5274 62.523C51.2113 62.523 50.9 62.4895 50.5547 62.4895C48.682 62.4884 46.8378 62.884 45.1847 63.6415C43.5317 64.3989 42.1207 65.4949 41.0761 66.8328C40.0316 68.1706 39.3857 69.7092 39.1953 71.3127C39.005 72.9163 39.2761 74.5355 39.9847 76.0275C40.6934 77.5195 41.8178 78.8385 43.2587 79.868C44.6996 80.8976 46.4128 81.606 48.247 81.9309C50.0813 82.2558 51.9802 82.1871 53.7763 81.7308C55.5724 81.2746 57.2105 80.4449 58.546 79.3149C55.7015 79.1023 53.053 77.9795 51.1233 76.1682C49.1936 74.3569 48.123 71.9887 48.1228 69.5312Z" fill="black"/>
<path d="M31.9554 82.1324C36.4709 82.1324 40.1315 78.9817 40.1315 75.095C40.1315 71.2083 36.4709 68.0575 31.9554 68.0575C27.4399 68.0575 23.7793 71.2083 23.7793 75.095C23.7793 78.9817 27.4399 82.1324 31.9554 82.1324Z" fill="#283891"/>
<path opacity="0.3" d="M31.9554 82.1324C36.4709 82.1324 40.1315 78.9817 40.1315 75.095C40.1315 71.2083 36.4709 68.0575 31.9554 68.0575C27.4399 68.0575 23.7793 71.2083 23.7793 75.095C23.7793 78.9817 27.4399 82.1324 31.9554 82.1324Z" fill="black"/>
<path d="M32.8406 68.0952C31.7519 67.9935 30.6505 68.0811 29.6019 68.3529C28.5533 68.6248 27.5789 69.0753 26.7365 69.6777C26.7365 69.9791 26.6976 70.2806 26.6976 70.5904C26.6935 73.6414 27.9798 76.5894 30.3163 78.8837C30.4778 79.0413 30.5837 79.2353 30.6212 79.4428C30.6588 79.6504 30.6266 79.8629 30.5284 80.0553C30.4303 80.2476 30.2702 80.4118 30.0671 80.5284C29.8641 80.645 29.6265 80.7091 29.3825 80.7132C28.36 80.7133 27.3468 80.5471 26.3961 80.2234C27.3429 80.9812 28.4851 81.5348 29.7288 81.8386C30.9726 82.1425 32.2824 82.188 33.5505 81.9715C34.8187 81.7549 36.009 81.2824 37.0237 80.5928C38.0385 79.9032 38.8486 79.0162 39.3876 78.0046C39.9265 76.9931 40.1789 75.886 40.1241 74.7741C40.0692 73.6623 39.7086 72.5776 39.0719 71.609C38.4352 70.6405 37.5405 69.8158 36.4615 69.2028C35.3825 68.5898 34.1499 68.2059 32.865 68.0827L32.8406 68.0952Z" fill="#283891"/>
<path opacity="0.4" d="M32.8406 68.0952C31.7519 67.9935 30.6505 68.0811 29.6019 68.3529C28.5533 68.6248 27.5789 69.0753 26.7365 69.6777C26.7365 69.9791 26.6976 70.2806 26.6976 70.5904C26.6935 73.6414 27.9798 76.5894 30.3163 78.8837C30.4778 79.0413 30.5837 79.2353 30.6212 79.4428C30.6588 79.6504 30.6266 79.8629 30.5284 80.0553C30.4303 80.2476 30.2702 80.4118 30.0671 80.5284C29.8641 80.645 29.6265 80.7091 29.3825 80.7132C28.36 80.7133 27.3468 80.5471 26.3961 80.2234C27.3429 80.9812 28.4851 81.5348 29.7288 81.8386C30.9726 82.1425 32.2824 82.188 33.5505 81.9715C34.8187 81.7549 36.009 81.2824 37.0237 80.5928C38.0385 79.9032 38.8486 79.0162 39.3876 78.0046C39.9265 76.9931 40.1789 75.886 40.1241 74.7741C40.0692 73.6623 39.7086 72.5776 39.0719 71.609C38.4352 70.6405 37.5405 69.8158 36.4615 69.2028C35.3825 68.5898 34.1499 68.2059 32.865 68.0827L32.8406 68.0952Z" fill="black"/>
<path d="M55.9181 71.1272C57.7754 64.3539 52.9017 57.567 45.0324 55.9683C37.1631 54.3696 29.2781 58.5646 27.4208 65.338C25.5635 72.1113 30.4371 78.8982 38.3065 80.4969C46.1758 82.0956 54.0608 77.9006 55.9181 71.1272Z" fill="#283891"/>
<path opacity="0.2" d="M45.8465 76.5142C43.345 76.5156 40.8849 75.965 38.7011 74.9148C36.5173 73.8647 34.6828 72.3502 33.3728 70.5159C32.0629 68.6816 31.3212 66.5888 31.2187 64.4375C31.1161 62.2862 31.6561 60.1482 32.7871 58.2277C31.0404 59.3773 29.6171 60.851 28.6229 62.5391C27.6288 64.2272 27.0894 66.0865 27.0447 67.9788C27.0001 69.871 27.4513 71.7476 28.365 73.4691C29.2787 75.1906 30.6314 76.7127 32.3224 77.9224C34.0135 79.1322 35.9995 79.9984 38.1329 80.4567C40.2663 80.915 42.4923 80.9537 44.6454 80.5698C46.7986 80.1859 48.8235 79.3894 50.5699 78.2393C52.3163 77.0893 53.7391 75.6153 54.7328 73.927C52.1823 75.6078 49.0587 76.5172 45.8465 76.5142Z" fill="black"/>
<path d="M177.904 116.441V111.061H174.339V116.441C174.354 116.575 174.41 116.704 174.502 116.815C174.593 116.925 174.716 117.012 174.86 117.069C175.251 117.238 175.684 117.326 176.122 117.326C176.56 117.326 176.992 117.238 177.384 117.069C177.528 117.013 177.652 116.926 177.743 116.815C177.835 116.705 177.89 116.576 177.904 116.441Z" fill="#455A64"/>
<path d="M177.369 110.433C178.065 110.78 178.065 111.341 177.369 111.689C176.978 111.86 176.546 111.95 176.107 111.95C175.669 111.95 175.236 111.86 174.845 111.689C174.15 111.346 174.15 110.785 174.845 110.433C175.236 110.262 175.669 110.172 176.107 110.172C176.546 110.172 176.978 110.262 177.369 110.433Z" fill="#37474F"/>
<path d="M183.255 86.838C183.117 86.838 182.984 86.7909 182.887 86.7068C182.789 86.6228 182.734 86.5089 182.734 86.3901V81.3663C182.727 81.3041 182.735 81.2414 182.758 81.1821C182.781 81.1228 182.818 81.0683 182.867 81.022C182.916 80.9757 182.975 80.9388 183.042 80.9135C183.108 80.8882 183.18 80.8751 183.252 80.8751C183.325 80.8751 183.397 80.8882 183.463 80.9135C183.529 80.9388 183.589 80.9757 183.638 81.022C183.686 81.0683 183.723 81.1228 183.746 81.1821C183.769 81.2414 183.777 81.3041 183.77 81.3663V86.3901C183.771 86.4487 183.758 86.5069 183.732 86.5612C183.707 86.6155 183.669 86.6649 183.621 86.7066C183.573 86.7482 183.516 86.7813 183.453 86.8039C183.39 86.8264 183.323 86.838 183.255 86.838Z" fill="#37474F"/>
<path d="M191.562 91.3552C191.494 91.3552 191.427 91.3436 191.364 91.3211C191.301 91.2985 191.244 91.2654 191.196 91.2238C191.148 91.1821 191.11 91.1327 191.084 91.0784C191.059 91.0241 191.046 90.9659 191.047 90.9073V85.8835C191.04 85.8213 191.048 85.7586 191.071 85.6993C191.093 85.64 191.13 85.5855 191.179 85.5392C191.228 85.4929 191.287 85.456 191.354 85.4307C191.42 85.4054 191.492 85.3923 191.565 85.3923C191.637 85.3923 191.709 85.4054 191.775 85.4307C191.842 85.456 191.901 85.4929 191.95 85.5392C191.999 85.5855 192.036 85.64 192.059 85.6993C192.081 85.7586 192.09 85.8213 192.083 85.8835V90.9073C192.083 91.0261 192.028 91.14 191.93 91.224C191.833 91.308 191.7 91.3552 191.562 91.3552Z" fill="#37474F"/>
<path d="M176.149 111.241C176.011 111.241 175.878 111.194 175.781 111.11C175.683 111.026 175.628 110.912 175.628 110.793V77.8581C175.63 77.7799 175.655 77.7034 175.702 77.6361C175.748 77.5688 175.814 77.5131 175.893 77.4742C175.972 77.4354 176.061 77.4149 176.152 77.4147C176.243 77.4144 176.332 77.4345 176.411 77.4729L197.982 88.1945C198.094 88.257 198.174 88.3541 198.205 88.4657C198.236 88.5774 198.216 88.695 198.149 88.7944C198.083 88.8938 197.974 88.9673 197.846 88.9998C197.718 89.0323 197.581 89.0212 197.462 88.969L176.669 78.6326V110.793C176.669 110.852 176.656 110.91 176.629 110.964C176.603 111.019 176.565 111.068 176.517 111.11C176.468 111.151 176.411 111.184 176.348 111.207C176.285 111.229 176.217 111.241 176.149 111.241Z" fill="#37474F"/>
<path d="M178.765 83.1749V95.931C178.765 96.2345 178.858 96.5328 179.034 96.7953C179.211 97.0579 179.466 97.2754 179.772 97.4256L196.455 105.719C196.584 105.783 196.729 105.816 196.877 105.817C197.026 105.817 197.171 105.783 197.3 105.72C197.429 105.656 197.535 105.565 197.61 105.454C197.684 105.344 197.724 105.219 197.725 105.091V92.3349C197.724 92.0316 197.63 91.7339 197.454 91.4716C197.277 91.2093 197.023 90.9916 196.718 90.8403L180.035 82.5469C179.906 82.4831 179.761 82.4494 179.613 82.4493C179.464 82.4492 179.319 82.4826 179.19 82.5462C179.061 82.6098 178.955 82.7013 178.88 82.8117C178.806 82.922 178.766 83.0473 178.765 83.1749Z" fill="#455A64"/>
<path d="M188.05 98.5053V92.2674L187.108 91.8011V94.5102L184.144 93.0443V90.3352L183.202 89.869V96.1069L184.144 96.5732V93.9889L187.108 95.4548V98.0391L188.05 98.5053ZM192.02 94.2044C190.351 93.3786 189.057 94.0931 189.057 95.8842C189.057 97.6665 190.351 99.6879 192.02 100.514C193.689 101.339 194.983 100.598 194.983 98.816C194.983 97.0338 193.689 95.0302 192.02 94.2044ZM192.028 95.153C193.122 95.6943 194.017 97.0993 194.017 98.338C194.017 99.5766 193.122 100.114 192.028 99.573C190.934 99.0317 190.015 97.5971 190.015 96.3584C190.015 95.1197 190.926 94.6077 192.028 95.153ZM200.739 98.5442L199.796 98.078V101.732C199.796 102.792 199.229 103.135 198.319 102.685C197.4 102.23 196.817 101.309 196.817 100.258V96.6042L195.874 96.1379V99.7916C195.874 101.422 196.801 102.879 198.311 103.626C199.82 104.372 200.739 103.829 200.739 102.198V98.5442ZM203.923 100.075C202.709 99.4743 201.886 99.7357 201.886 100.805C201.886 103.024 204.906 103.742 204.906 105.132C204.906 105.614 204.514 105.696 203.859 105.372C203.26 105.076 202.541 104.4 201.966 103.527L201.559 104.234C202.134 105.107 202.965 105.919 203.843 106.354C205.073 106.962 205.952 106.71 205.952 105.597C205.96 103.355 202.941 102.592 202.941 101.229C202.941 100.81 203.3 100.756 203.851 101.028C204.275 101.238 204.882 101.708 205.489 102.418L205.88 101.685C205.361 101.045 204.65 100.434 203.923 100.075ZM211.049 104.589V103.644L207.055 101.669V107.907L211.145 109.93V108.985L207.997 107.428V105.708L210.729 107.06V106.115L207.997 104.764V103.079L211.049 104.589Z" fill="#FAFAFA"/>
<path d="M138.021 149.618C138.021 149.618 137.758 149.987 137.875 151.666C137.992 153.344 137.992 153.47 138.021 154.563C138.05 155.655 137.992 156.873 139.621 156.505C141.251 156.137 141.528 155.161 141.338 154.303C141.072 153.164 140.89 152.012 140.793 150.853C140.755 149.823 140.356 149.48 140.356 149.48L138.021 149.618Z" fill="#37474F"/>
<path d="M139.529 131.834L139.407 133.927C139.364 134.652 139.421 135.379 139.577 136.092C139.967 137.888 140.696 141.639 140.55 144.021C140.346 147.249 140.38 149.463 140.38 149.463C140.38 149.463 140.701 152.813 140.716 153.516C140.721 153.636 140.698 153.756 140.648 153.868C140.598 153.981 140.522 154.083 140.425 154.17C140.327 154.256 140.211 154.325 140.082 154.371C139.953 154.418 139.814 154.442 139.675 154.441C139.305 154.441 138.284 154.759 138.045 150.129C137.699 147.486 137.145 144.866 136.387 142.288C135.604 139.717 135.049 137.444 134.762 136.188C134.614 135.54 134.516 134.884 134.47 134.225L134.261 131.294L139.529 131.834Z" fill="#945959"/>
<path d="M131.606 149.426V149.455C131.601 149.844 131.507 150.228 131.328 150.585C131.2 150.87 131.136 151.172 131.139 151.477V152.733C131.139 152.785 131.115 152.834 131.073 152.871C131.032 152.908 130.975 152.929 130.915 152.93C130.885 152.93 130.855 152.925 130.827 152.915C130.8 152.905 130.775 152.89 130.753 152.872C130.732 152.854 130.715 152.832 130.704 152.808C130.692 152.785 130.686 152.759 130.686 152.733V150.807L131.606 149.426Z" fill="#263238"/>
<path d="M130.861 148.149C130.861 148.149 130.083 148.643 130.083 149.949C130.055 150.488 129.887 151.015 129.593 151.491C129.298 151.968 128.884 152.382 128.381 152.704C127.807 153.001 126.537 152.285 126.537 152.285C126.537 152.285 125.185 153.273 125.185 153.717C125.185 154.161 125.847 154.525 127.374 154.345C128.901 154.165 130.171 153.972 130.409 152.549C130.686 150.874 130.696 150.673 131.28 150.125C131.863 149.576 131.64 148.45 130.861 148.149Z" fill="#263238"/>
<path d="M133.532 126.953L127.564 132.328L128.016 144.716L128.157 148.094C128.04 150.062 126.46 152.047 126.46 152.047C126.428 152.311 126.428 152.577 126.46 152.842H127.895C130.647 152.842 130.852 147.902 130.852 147.902L130.944 146.688C131.034 145.532 131.209 144.383 131.469 143.247C132.836 137.406 132.296 134.363 132.296 134.363L133.532 126.953Z" fill="#945959"/>
<path d="M130.852 147.919C130.852 147.919 130.219 148.308 130.059 149.719C130.031 150.26 129.862 150.789 129.563 151.267C129.263 151.744 128.843 152.156 128.332 152.474C127.749 152.767 126.46 152.055 126.46 152.055C126.46 152.055 125.088 153.043 125.088 153.487C125.088 153.93 125.759 154.295 127.311 154.11C128.862 153.926 129.874 153.692 130.161 152.277C130.448 150.862 130.453 150.531 131.046 149.983C131.64 149.434 132.019 148.932 130.852 147.919Z" fill="#37474F"/>
<path d="M137.812 121.129C137.812 121.129 139.913 123.641 139.845 129.59C139.796 134.166 139.626 135.129 139.626 135.129C137.797 136.578 135.395 137.373 132.909 137.352C130.438 137.352 127.398 135.259 127.398 135.259C127.398 135.259 127.442 129.942 127.588 127.794C127.75 125.674 128.144 123.571 128.765 121.515L137.812 121.129Z" fill="#263238"/>
<path d="M119.008 111.45C118.947 111.266 118.906 111.076 118.887 110.885C118.892 110.47 118.706 110.07 118.371 109.772C118.021 109.353 118.22 109.01 117.885 108.934C117.549 108.859 117.321 109.826 117.685 110.274C117.315 110.06 117.01 109.773 116.795 109.437C116.562 108.98 116.158 108.302 115.822 108.181C115.487 108.059 114.315 109.252 114.796 110.358C115.278 111.463 117.374 112.581 117.374 112.581L119.008 111.45Z" fill="#945959"/>
<path d="M130.604 110.274H130.565C129.695 110.267 128.844 110.495 128.133 110.927L122.544 114.276L118.926 111.199C118.453 111.756 117.812 112.19 117.072 112.455L121.105 116.935C121.294 117.146 121.563 117.294 121.865 117.355C122.167 117.416 122.484 117.386 122.763 117.269L127.865 115.147L130.604 110.274Z" fill="#37474F"/>
<path d="M132.155 110.27H130.604C130.604 110.27 125.001 114.837 128.872 117.763C129.042 119.005 129.006 120.261 128.765 121.494C128.765 121.494 131.591 123.126 137.865 121.494L137.316 117.701L138.532 114.352L138.279 110.914C138.27 110.806 138.216 110.704 138.126 110.627C138.037 110.55 137.918 110.504 137.792 110.496L135.468 110.408L132.155 110.27Z" fill="#455A64"/>
<path d="M132.257 109.889L131.406 110.307L129.816 112.447C129.775 112.504 129.748 112.567 129.737 112.634C129.726 112.7 129.731 112.767 129.752 112.832L130.205 114.184L130.025 114.368C129.939 114.457 129.878 114.562 129.849 114.675C129.819 114.788 129.821 114.905 129.855 115.017L130.239 116.252L132.077 115.185C132.206 115.11 132.307 115.007 132.371 114.885C132.434 114.764 132.457 114.63 132.437 114.498V114.381L134.786 113.652C134.868 113.627 134.942 113.586 135.001 113.531C135.06 113.476 135.103 113.41 135.127 113.338L136.1 110.45L135.443 110.031L132.257 109.889Z" fill="#263238"/>
<path d="M135.429 103.278C135.429 103.889 135.218 104.485 134.825 104.992C134.431 105.5 133.871 105.895 133.216 106.129C132.561 106.362 131.84 106.424 131.145 106.304C130.449 106.185 129.811 105.892 129.309 105.46C128.808 105.029 128.467 104.479 128.328 103.88C128.19 103.282 128.261 102.661 128.532 102.098C128.804 101.534 129.263 101.052 129.852 100.713C130.442 100.374 131.135 100.193 131.844 100.193C132.315 100.192 132.781 100.272 133.217 100.427C133.652 100.582 134.047 100.809 134.38 101.095C134.713 101.382 134.977 101.722 135.157 102.097C135.337 102.472 135.429 102.873 135.429 103.278Z" fill="#263238"/>
<path d="M140.531 107.716C140.531 108.057 140.413 108.391 140.193 108.674C139.973 108.958 139.66 109.179 139.294 109.31C138.927 109.44 138.525 109.474 138.136 109.408C137.747 109.341 137.39 109.177 137.11 108.936C136.83 108.694 136.639 108.387 136.561 108.052C136.484 107.718 136.524 107.371 136.675 107.056C136.827 106.741 137.084 106.471 137.413 106.282C137.743 106.092 138.13 105.991 138.527 105.991C138.79 105.991 139.051 106.035 139.294 106.121C139.538 106.208 139.759 106.335 139.945 106.495C140.131 106.655 140.279 106.846 140.379 107.055C140.48 107.265 140.531 107.489 140.531 107.716Z" fill="#263238"/>
<path d="M137.916 107.547C138.742 106.836 138.867 105.79 138.194 105.211C137.522 104.633 136.307 104.74 135.481 105.451C134.654 106.162 134.53 107.208 135.202 107.787C135.874 108.366 137.089 108.258 137.916 107.547Z" fill="#283891"/>
<path d="M137.048 101.897C137.187 101.761 137.29 101.602 137.35 101.429C137.41 101.257 137.427 101.075 137.398 100.896C137.34 100.226 138.074 100.712 138.138 101.097C138.131 101.329 138.047 101.554 137.897 101.747C137.748 101.939 137.538 102.092 137.291 102.186L137.048 101.897Z" fill="#263238"/>
<path d="M137.296 102.031C137.505 102.041 137.714 102.012 137.909 101.946C138.103 101.88 138.279 101.779 138.425 101.65C138.999 101.198 139.008 101.993 138.697 102.274C138.485 102.409 138.232 102.491 137.968 102.511C137.705 102.53 137.44 102.485 137.204 102.382L137.296 102.031Z" fill="#263238"/>
<path d="M132.155 108.528V110.27C132.155 110.27 130.657 114.456 131.148 114.151C132.608 113.267 134.767 111.115 135.317 110.559C135.404 110.471 135.452 110.36 135.453 110.245V106.895L132.155 108.528Z" fill="#945959"/>
<path d="M135.414 106.322V106.422C134.68 108.934 132.773 109.458 132.155 109.587V105.727H135.341L135.414 106.322Z" fill="#703838"/>
<path d="M132.71 100.737C131.657 100.795 130.672 101.205 129.965 101.879C129.258 102.553 128.885 103.438 128.926 104.346C128.887 107.105 129.378 109.211 131.041 109.298C132.503 109.267 133.894 108.752 134.926 107.861C135.958 106.97 136.553 105.771 136.586 104.513C136.761 100.93 133.892 100.653 132.71 100.737Z" fill="#945959"/>
<path d="M131.168 105.455L131.197 107.075L130.093 106.799L131.168 105.455Z" fill="#703838"/>
<path d="M132.822 105.413C132.823 105.479 132.801 105.543 132.759 105.598C132.718 105.653 132.658 105.696 132.588 105.722C132.518 105.748 132.44 105.755 132.365 105.742C132.291 105.73 132.222 105.699 132.167 105.653C132.113 105.607 132.076 105.548 132.061 105.484C132.046 105.419 132.053 105.353 132.082 105.292C132.111 105.231 132.16 105.179 132.223 105.143C132.287 105.106 132.361 105.087 132.437 105.087C132.488 105.086 132.537 105.094 132.584 105.111C132.631 105.127 132.673 105.151 132.709 105.181C132.744 105.211 132.773 105.248 132.792 105.287C132.812 105.327 132.822 105.37 132.822 105.413Z" fill="#263238"/>
<path d="M130.297 105.212C130.298 105.256 130.289 105.299 130.27 105.339C130.251 105.38 130.223 105.416 130.188 105.448C130.153 105.479 130.111 105.503 130.065 105.521C130.018 105.538 129.968 105.547 129.918 105.547C129.868 105.548 129.818 105.54 129.771 105.524C129.725 105.508 129.682 105.484 129.646 105.453C129.611 105.423 129.582 105.387 129.563 105.347C129.544 105.307 129.534 105.264 129.534 105.221C129.528 105.175 129.533 105.128 129.549 105.083C129.566 105.039 129.593 104.998 129.629 104.963C129.665 104.929 129.709 104.901 129.758 104.882C129.808 104.863 129.861 104.853 129.915 104.853C129.97 104.853 130.023 104.863 130.072 104.882C130.122 104.901 130.166 104.929 130.202 104.963C130.238 104.998 130.265 105.039 130.282 105.083C130.298 105.128 130.303 105.175 130.297 105.221V105.212Z" fill="#263238"/>
<path d="M129.436 104.534L130.18 104.145C130.18 104.145 129.889 103.89 129.602 104.049C129.52 104.106 129.461 104.183 129.432 104.269C129.402 104.356 129.404 104.448 129.436 104.534Z" fill="#283891"/>
<path d="M130.954 107.628C131.342 107.469 131.719 107.29 132.082 107.092C132.082 107.092 132.325 107.624 131.82 107.842C131.669 107.898 131.5 107.907 131.342 107.868C131.184 107.829 131.047 107.744 130.954 107.628Z" fill="#703838"/>
<path d="M129.436 104.534L130.18 104.145C130.18 104.145 129.889 103.89 129.602 104.049C129.52 104.106 129.461 104.183 129.432 104.269C129.402 104.356 129.404 104.448 129.436 104.534Z" fill="#263238"/>
<path d="M134.461 104.995C134.461 104.995 134.261 106.435 135.463 106.435L135.754 105.145L134.461 104.995Z" fill="#263238"/>
<path d="M134.553 105.418C134.553 105.418 129.753 104.698 129.753 100.712C129.753 99.5063 130.613 98.6648 132.574 99.9166C134.534 101.168 138.507 100.21 138.507 104.748C138.516 105.555 138.225 106.344 137.677 106.999C137.13 107.655 136.354 108.143 135.463 108.394V105.535L134.553 105.418Z" fill="#263238"/>
<path d="M135.404 106.288C135.399 106.028 135.462 105.771 135.589 105.535C135.647 105.391 135.753 105.265 135.894 105.172C136.035 105.08 136.205 105.025 136.382 105.016C136.528 105.017 136.671 105.045 136.803 105.098C136.936 105.15 137.053 105.227 137.148 105.322C137.243 105.417 137.313 105.529 137.354 105.649C137.394 105.77 137.405 105.896 137.384 106.02C137.346 106.436 137.122 106.822 136.759 107.097C136.396 107.373 135.922 107.515 135.438 107.494L135.404 106.288Z" fill="#945959"/>
<path d="M136.304 115.327L133.989 115.122V114.745L136.304 114.95V115.327Z" fill="#263238"/>
<path d="M129.884 117.194H128.94C128.94 116.972 128.838 116.759 128.655 116.602C128.473 116.445 128.225 116.357 127.967 116.357C127.709 116.357 127.462 116.445 127.28 116.602C127.097 116.759 126.995 116.972 126.995 117.194H126.435C126.376 117.194 126.318 117.205 126.265 117.228C126.213 117.251 126.167 117.284 126.132 117.325C126.097 117.366 126.073 117.413 126.064 117.463C126.054 117.513 126.058 117.564 126.075 117.613L126.362 118.404H130.604L130.244 117.416C130.219 117.351 130.171 117.294 130.106 117.254C130.041 117.215 129.963 117.193 129.884 117.194Z" fill="#283891"/>
<path opacity="0.7" d="M129.884 117.194H128.94C128.94 116.972 128.838 116.759 128.655 116.602C128.473 116.445 128.225 116.357 127.967 116.357C127.709 116.357 127.462 116.445 127.28 116.602C127.097 116.759 126.995 116.972 126.995 117.194H126.435C126.376 117.194 126.318 117.205 126.265 117.228C126.213 117.251 126.167 117.284 126.132 117.325C126.097 117.366 126.073 117.413 126.064 117.463C126.054 117.513 126.058 117.564 126.075 117.613L126.362 118.404H130.604L130.244 117.416C130.219 117.351 130.171 117.294 130.106 117.254C130.041 117.215 129.963 117.193 129.884 117.194Z" fill="black"/>
<path d="M132.715 117.617L135.078 125.295L127.462 125.324L124.524 117.692L132.715 117.617Z" fill="#283891"/>
<path opacity="0.3" d="M132.715 117.617L135.078 125.295L127.462 125.324L124.524 117.692L132.715 117.617Z" fill="black"/>
<path d="M129.884 117.537H128.94C128.94 117.315 128.838 117.102 128.655 116.945C128.473 116.788 128.225 116.7 127.967 116.7C127.709 116.7 127.462 116.788 127.28 116.945C127.097 117.102 126.995 117.315 126.995 117.537H126.435C126.376 117.537 126.318 117.549 126.265 117.571C126.213 117.594 126.167 117.627 126.132 117.668C126.097 117.709 126.073 117.756 126.064 117.806C126.054 117.856 126.058 117.908 126.075 117.956L126.212 118.341H130.448L130.244 117.759C130.219 117.694 130.171 117.638 130.106 117.598C130.041 117.558 129.963 117.537 129.884 117.537Z" fill="#283891"/>
<path opacity="0.5" d="M129.884 117.537H128.94C128.94 117.315 128.838 117.102 128.655 116.945C128.473 116.788 128.225 116.7 127.967 116.7C127.709 116.7 127.462 116.788 127.28 116.945C127.097 117.102 126.995 117.315 126.995 117.537H126.435C126.376 117.537 126.318 117.549 126.265 117.571C126.213 117.594 126.167 117.627 126.132 117.668C126.097 117.709 126.073 117.756 126.064 117.806C126.054 117.856 126.058 117.908 126.075 117.956L126.212 118.341H130.448L130.244 117.759C130.219 117.694 130.171 117.638 130.106 117.598C130.041 117.558 129.963 117.537 129.884 117.537Z" fill="black"/>
<path d="M135.925 120.497C135.51 120.577 135.083 120.597 134.66 120.556C134.174 120.472 134.174 120.095 133.454 120.108L133.687 120.945C132.978 121.063 132.254 121.101 131.533 121.058C130.56 120.962 130.891 121.699 131.046 121.896C131.202 122.092 131.854 123.252 133.245 123.151C134.351 123.027 135.444 122.825 136.513 122.549C136.619 122.191 136.621 121.817 136.518 121.459C136.416 121.101 136.212 120.771 135.925 120.497Z" fill="#945959"/>
<path d="M137.812 110.508C138.47 110.516 139.109 110.703 139.637 111.041C140.165 111.379 140.556 111.852 140.754 112.392L143.113 118.798C143.207 119.051 143.241 119.317 143.213 119.582C143.185 119.847 143.096 120.104 142.95 120.338C142.805 120.572 142.606 120.779 142.366 120.946C142.125 121.113 141.849 121.236 141.552 121.309L136.503 122.565C136.525 121.851 136.325 121.144 135.925 120.518L139.874 119.078L137.491 113.661C137.285 113.214 137.171 112.739 137.155 112.258C137.126 111.944 137.168 111.627 137.281 111.327C137.394 111.027 137.574 110.749 137.812 110.508Z" fill="#37474F"/>
<path d="M137.501 121.829C137.502 121.873 137.487 121.918 137.459 121.955C137.43 121.993 137.39 122.023 137.342 122.04C137.294 122.058 137.241 122.063 137.19 122.055C137.138 122.047 137.091 122.026 137.054 121.994C137.017 121.963 136.991 121.922 136.981 121.878C136.97 121.834 136.975 121.789 136.995 121.747C137.015 121.706 137.048 121.67 137.092 121.645C137.135 121.62 137.186 121.607 137.238 121.607C137.307 121.607 137.373 121.63 137.422 121.671C137.471 121.713 137.499 121.769 137.501 121.829Z" fill="#263238"/>
<path d="M138.386 121.632C138.387 121.677 138.372 121.721 138.344 121.759C138.315 121.797 138.274 121.826 138.226 121.844C138.178 121.862 138.125 121.866 138.073 121.858C138.022 121.849 137.974 121.828 137.937 121.796C137.9 121.764 137.875 121.723 137.865 121.679C137.855 121.635 137.861 121.589 137.881 121.548C137.902 121.506 137.936 121.471 137.98 121.446C138.024 121.422 138.076 121.409 138.128 121.41C138.196 121.411 138.261 121.435 138.309 121.476C138.357 121.517 138.385 121.573 138.386 121.632Z" fill="#263238"/>
<path d="M117.997 112.878C117.932 112.906 117.857 112.91 117.789 112.891C117.721 112.871 117.664 112.829 117.632 112.773C117.6 112.718 117.594 112.653 117.617 112.595C117.64 112.536 117.689 112.487 117.753 112.459C117.818 112.431 117.893 112.427 117.961 112.447C118.029 112.466 118.086 112.508 118.118 112.564C118.15 112.619 118.156 112.684 118.133 112.743C118.11 112.801 118.061 112.85 117.997 112.878Z" fill="#263238"/>
<path d="M118.619 113.46C118.573 113.481 118.521 113.49 118.47 113.486C118.418 113.482 118.369 113.464 118.328 113.436C118.288 113.408 118.259 113.37 118.243 113.327C118.228 113.284 118.228 113.238 118.243 113.196C118.258 113.153 118.288 113.115 118.328 113.086C118.368 113.058 118.417 113.04 118.469 113.036C118.52 113.031 118.572 113.04 118.618 113.061C118.664 113.082 118.702 113.115 118.726 113.154C118.759 113.207 118.766 113.269 118.746 113.326C118.726 113.383 118.68 113.431 118.619 113.46Z" fill="#263238"/>
<path d="M100.083 149.141C100.083 149.141 99.655 149.342 99.5967 150.129C99.5383 150.916 98.692 152.386 100.652 152.444C102.612 152.503 102.34 152.591 103.138 152.863C103.935 153.135 105.662 153.763 107.029 152.926C108.395 152.088 106.819 151.645 106.246 151.477C105.227 151.188 104.258 150.781 103.366 150.267C103.006 150.061 102.679 149.814 102.393 149.535L100.083 149.141Z" fill="#263238"/>
<path d="M93.76 151.1C93.76 151.1 93.4244 151.184 93.4099 151.762C93.3953 152.34 92.8651 153.219 93.5849 153.742C94.3048 154.265 94.4167 154.198 94.8544 154.998C95.1223 155.582 95.6342 156.058 96.2895 156.333C96.9449 156.608 97.6961 156.662 98.3953 156.484C100.492 156.086 99.1686 155.002 98.9935 154.843C98.8184 154.684 96.7659 152.938 96.5616 152.365C96.4387 152.048 96.2841 151.741 96.0995 151.448L93.76 151.1Z" fill="#263238"/>
<path d="M93.7601 150.38V151.448C93.7601 151.448 93.9108 151.946 95.0587 151.946C95.6764 151.946 96.0801 151.632 96.0898 151.448V150.276L93.7601 150.38Z" fill="#FFA8A7"/>
<path d="M100.083 148.475V149.539C100.083 149.539 100.234 150.041 101.382 150.041C101.999 150.041 102.408 149.723 102.418 149.539V148.371L100.083 148.475Z" fill="#FFA8A7"/>
<path d="M103.585 123.587L104.461 135.908C104.5 136.489 104.474 137.072 104.383 137.649L102.559 149.049C102.114 149.205 101.629 149.256 101.153 149.199C100.678 149.142 100.228 148.977 99.8496 148.722L99.1395 139.608C99.077 138.841 99.1978 138.07 99.4945 137.344L99.7766 136.657L97.2183 124.441L103.585 123.587Z" fill="#455A64"/>
<path d="M101.829 126.81C101.829 126.81 101.396 128.267 99.2319 129.167L98.799 131.914L97.8603 127.443L101.829 126.81Z" fill="#37474F"/>
<path d="M102.515 124.085C102.515 124.085 102.821 126.417 100.725 127.928C100.147 128.37 99.4383 128.667 98.6775 128.786L97.9819 137.444L96.299 150.975C96.299 150.975 95.2825 151.707 93.4051 150.975L92.515 140.835C92.4168 139.697 92.6561 138.556 93.2105 137.519L93.2494 137.444C92.7851 132.943 92.6227 128.422 92.763 123.905L102.515 124.085Z" fill="#455A64"/>
<path d="M105.399 115.126L106.158 116.424C106.158 116.424 109.563 117.462 111.576 117.424L112.447 119.245C110.828 119.349 109.204 119.365 107.583 119.292C105.214 119.162 104.864 119.107 104.178 118.333C103.493 117.558 102.437 116.139 102.437 116.139L105.399 115.126Z" fill="#FFA8A7"/>
<path d="M111.576 117.424C111.76 117.316 111.931 117.193 112.087 117.056C112.236 116.894 112.42 116.76 112.63 116.66C112.839 116.56 113.07 116.497 113.308 116.474C113.877 116.353 113.984 115.967 114.281 116.097C114.577 116.227 114.057 117.094 113.444 117.24C113.885 117.281 114.33 117.229 114.743 117.089C115.258 116.863 116.071 116.558 116.401 116.671C116.732 116.784 116.776 118.324 115.589 118.911C114.402 119.497 111.956 119.22 111.956 119.22L111.576 117.424Z" fill="#FFA8A7"/>
<path d="M100.083 109.303C100.617 109.21 101.171 109.268 101.663 109.468C102.155 109.668 102.56 109.999 102.817 110.412L105.691 115.046C105.691 115.046 104.923 116.461 102.423 116.533L100.083 109.303Z" fill="#283891"/>
<path opacity="0.5" d="M100.083 109.303C100.617 109.21 101.171 109.268 101.663 109.468C102.155 109.668 102.56 109.999 102.817 110.412L105.691 115.046C105.691 115.046 104.923 116.461 102.423 116.533L100.083 109.303Z" fill="black"/>
<path d="M92.8895 117.416L92.0286 119.321L91.1287 125.764L88.9595 126.354C88.9595 126.354 88.7746 122.477 88.8671 119.873C88.8911 119.177 89.0421 118.487 89.3145 117.83L89.9225 116.365L92.8895 117.416Z" fill="#FFA8A7"/>
<path d="M96.0267 109.943L93.2981 110.617L92.7874 117.186V123.905C92.7874 123.905 94.4848 125.161 98.5169 125.161C100.37 125.129 102.158 124.571 103.605 123.574V115.126C103.605 114.368 103.955 110.027 100.117 109.265L99.4605 109.378L96.0267 109.943Z" fill="#283891"/>
<path opacity="0.3" d="M96.0267 109.943L93.2981 110.617L92.7874 117.186V123.905C92.7874 123.905 94.4848 125.161 98.5169 125.161C100.37 125.129 102.158 124.571 103.605 123.574V115.126C103.605 114.368 103.955 110.027 100.117 109.265L99.4605 109.378L96.0267 109.943Z" fill="black"/>
<path d="M94.8399 110.236C94.8399 110.236 95.7543 111.015 95.0976 113.192C94.5589 114.84 93.9093 116.46 93.1521 118.044C92.4685 118.155 91.7626 118.104 91.1099 117.897C90.4572 117.69 89.882 117.334 89.4459 116.868L91.3914 112.262C91.5555 111.862 91.8282 111.501 92.1869 111.21C92.5456 110.919 92.9799 110.706 93.4537 110.588L94.8399 110.236Z" fill="#283891"/>
<path opacity="0.5" d="M94.8399 110.236C94.8399 110.236 95.7543 111.015 95.0976 113.192C94.5589 114.84 93.9093 116.46 93.1521 118.044C92.4685 118.155 91.7626 118.104 91.1099 117.897C90.4572 117.69 89.882 117.334 89.4459 116.868L91.3914 112.262C91.5555 111.862 91.8282 111.501 92.1869 111.21C92.5456 110.919 92.9799 110.706 93.4537 110.588L94.8399 110.236Z" fill="black"/>
<path d="M91.1287 125.764C91.2429 125.928 91.3748 126.082 91.5227 126.224C91.8768 126.506 92.0896 126.895 92.1161 127.309C92.2182 127.807 92.6609 127.924 92.4906 128.179C92.3204 128.435 91.3476 127.924 91.2212 127.388C91.1436 127.764 91.1736 128.151 91.3087 128.514C91.5373 128.971 91.8437 129.691 91.7075 129.967C91.5714 130.243 89.762 130.181 89.1638 129.13C88.5655 128.079 89.0373 125.994 89.0373 125.994L91.1287 125.764Z" fill="#FFA8A7"/>
<path d="M102.583 101.683C102.583 101.683 103.22 102.244 103.22 103.722C103.22 105.2 101.8 106.477 101.8 106.477V101.767L102.583 101.683Z" fill="#263238"/>
<path d="M102.583 102.068C102.858 101.93 103.089 101.737 103.259 101.505C103.428 101.273 103.53 101.01 103.556 100.737C103.643 99.7952 103.001 100.134 102.782 100.214C102.564 100.293 101.897 100.503 101.897 100.503C101.897 100.503 102.505 99.9584 102.145 99.5942C101.878 99.3263 100.579 100.172 98.9449 100.339C97.3107 100.507 95.7348 100.494 95.2727 101.754C95.2727 101.754 93.692 102.027 94.0714 104.413C94.4507 106.799 95.5305 108.181 96.0169 108.156L102.583 102.068Z" fill="#263238"/>
<path d="M96.0266 109.943L97.4566 110.722C97.772 110.895 98.1367 110.99 98.5107 110.997C98.8848 111.004 99.2538 110.921 99.5772 110.76C99.7038 110.697 99.8098 110.608 99.8852 110.5C99.9606 110.392 100.003 110.27 100.008 110.144C100.014 110.019 99.9818 109.894 99.9158 109.782C99.8497 109.67 99.7516 109.574 99.6307 109.504L99.441 109.399V106.004H96.0363L96.0266 109.943Z" fill="#FFA8A7"/>
<path d="M99.4411 109.399C98.7005 109.31 98.0072 109.034 97.4494 108.605C96.8917 108.177 96.4946 107.615 96.3088 106.992V106.004H99.4411V109.399Z" fill="#F28F8F"/>
<path d="M100.239 101.185C100.239 101.185 103.488 101.29 102.899 105.79C102.627 107.909 102.413 109.077 100.316 109.077C98.2202 109.077 95.1073 107.712 95.3067 104.078C95.5062 100.444 100.239 101.185 100.239 101.185Z" fill="#FFA8A7"/>
<path d="M100.565 104.898V106.477L101.639 106.192L100.565 104.898Z" fill="#F28F8F"/>
<path d="M98.9984 105.171C98.9984 105.235 99.0205 105.297 99.0619 105.35C99.1033 105.403 99.162 105.445 99.2308 105.469C99.2995 105.493 99.375 105.499 99.4478 105.486C99.5206 105.474 99.5873 105.443 99.6395 105.397C99.6916 105.351 99.7269 105.294 99.7408 105.231C99.7547 105.168 99.7466 105.103 99.7175 105.044C99.6884 104.985 99.6397 104.935 99.5774 104.901C99.5152 104.866 99.4423 104.847 99.3681 104.848C99.2696 104.849 99.1756 104.884 99.1064 104.944C99.0372 105.004 98.9984 105.086 98.9984 105.171Z" fill="#263238"/>
<path d="M101.455 104.945C101.455 105.008 101.477 105.071 101.518 105.124C101.559 105.177 101.617 105.218 101.686 105.242C101.754 105.267 101.83 105.273 101.902 105.261C101.975 105.248 102.042 105.218 102.094 105.172C102.146 105.127 102.182 105.07 102.196 105.007C102.211 104.945 102.204 104.88 102.175 104.821C102.147 104.762 102.099 104.712 102.037 104.676C101.976 104.641 101.903 104.622 101.829 104.622C101.73 104.622 101.635 104.656 101.564 104.717C101.494 104.777 101.455 104.859 101.455 104.945Z" fill="#263238"/>
<path d="M102.286 104.279L101.542 103.902C101.542 103.902 101.824 103.651 102.106 103.802C102.189 103.856 102.251 103.931 102.283 104.016C102.315 104.101 102.317 104.193 102.286 104.279Z" fill="#263238"/>
<path d="M99.1736 104.166L98.5169 104.631C98.5169 104.631 98.337 104.317 98.5996 104.141C98.686 104.092 98.7882 104.068 98.8914 104.073C98.9946 104.077 99.0934 104.11 99.1736 104.166Z" fill="#263238"/>
<path d="M100.394 107.209C100.394 107.209 99.0617 106.916 99.3876 106.979C99.3876 106.979 99.3195 107.435 99.7621 107.523C99.8934 107.542 100.028 107.521 100.144 107.464C100.259 107.407 100.348 107.317 100.394 107.209Z" fill="#F28F8F"/>
<path d="M102.583 102.068C102.583 102.068 101.547 102.906 98.8866 102.734C96.2261 102.562 96.4547 103.195 96.7514 104.266C96.9508 105.003 96.9702 106.962 96.3088 106.004H94.9907V103.739C94.9907 103.359 95.0776 102.983 95.2465 102.632C95.4154 102.281 95.663 101.962 95.9751 101.693C96.2871 101.425 96.6576 101.212 97.0654 101.066C97.4732 100.921 97.9102 100.846 98.3516 100.846H101.056L102.583 102.068Z" fill="#263238"/>
<path d="M96.3379 105.886C96.3379 105.886 96.2066 104.802 95.3311 104.781C95.1768 104.781 95.0243 104.81 94.8838 104.865C94.7432 104.919 94.6179 104.999 94.5162 105.099C94.4144 105.199 94.3386 105.317 94.2938 105.444C94.249 105.571 94.2362 105.705 94.2562 105.836C94.2912 106.275 94.5228 106.685 94.9021 106.979C95.2814 107.274 95.7788 107.43 96.2893 107.415L96.3379 105.886Z" fill="#FFA8A7"/>
<path d="M95.2873 101.767C95.2873 101.767 94.6161 100.997 95.049 100.678C95.4818 100.36 95.6813 101.679 95.6813 101.679L95.2873 101.767Z" fill="#263238"/>
<path d="M95.3457 102.01C95.3457 102.01 94.227 102.01 94.2027 101.507C94.1784 101.005 95.5062 101.687 95.5062 101.687L95.3457 102.01Z" fill="#263238"/>
<path d="M165.881 21.3868L169.524 23.1702V22.0608C169.524 21.9813 169.524 21.9017 169.524 21.8222C169.524 21.7426 169.524 21.6715 169.524 21.6003V21.5752C169.655 20.1015 170.949 19.5405 172.525 20.3192C173.24 20.6965 173.852 21.202 174.32 21.8012C174.675 19.8043 176.572 19.0842 178.858 20.2229C181.402 21.4789 183.459 24.5559 183.459 27.0846V29.4583C183.459 29.6467 183.516 29.8319 183.624 29.9956C183.732 30.1593 183.888 30.2959 184.077 30.3919L186.217 31.472C186.682 31.7065 187.067 32.0416 187.335 32.444C187.603 32.8465 187.744 33.3023 187.744 33.7662C187.744 33.9583 187.686 34.147 187.574 34.3134C187.463 34.4798 187.302 34.6179 187.109 34.7139C186.915 34.8098 186.696 34.8602 186.473 34.8599C186.25 34.8596 186.03 34.8087 185.837 34.7123L165.93 24.8155C165.402 24.5523 164.964 24.1743 164.659 23.7196C164.354 23.2648 164.194 22.7491 164.193 22.2241C164.193 22.054 164.245 21.8869 164.344 21.7397C164.443 21.5924 164.585 21.4701 164.756 21.3852C164.927 21.3003 165.121 21.2557 165.319 21.256C165.516 21.2563 165.71 21.3014 165.881 21.3868Z" fill="#E6E6E6"/>
<path d="M147.15 1.25404L149.845 2.57278V1.73549C149.845 1.67688 149.845 1.61827 149.845 1.56384C149.845 1.50942 149.845 1.45081 149.845 1.39638C149.942 0.307901 150.9 -0.110745 152.068 0.471174C152.599 0.748515 153.052 1.12299 153.396 1.56803C153.658 0.0902047 155.059 -0.441477 156.752 0.400003C157.743 0.95516 158.569 1.70412 159.16 2.58587C159.752 3.46762 160.093 4.45721 160.156 5.474V7.23232C160.157 7.37107 160.199 7.50733 160.279 7.62771C160.36 7.74809 160.475 7.84844 160.614 7.9189L162.199 8.71852C162.54 8.89431 162.822 9.14345 163.017 9.44146C163.213 9.73947 163.315 10.0761 163.313 10.4182C163.313 10.5603 163.27 10.6999 163.187 10.823C163.105 10.946 162.986 11.0481 162.843 11.119C162.7 11.1899 162.537 11.2271 162.372 11.2268C162.207 11.2265 162.045 11.1888 161.902 11.1174L147.194 3.8036C146.802 3.60986 146.477 3.33056 146.251 2.99391C146.024 2.65725 145.905 2.27515 145.905 1.8862C145.903 1.75981 145.94 1.63516 146.012 1.52492C146.083 1.41468 146.188 1.32278 146.314 1.25856C146.441 1.19434 146.585 1.1601 146.732 1.1593C146.879 1.15851 147.023 1.1912 147.15 1.25404Z" fill="#E6E6E6"/>
<path d="M56.6345 17.8534L52.9915 19.6368V18.5274C52.9915 18.4479 52.9915 18.3683 52.9915 18.293C52.9915 18.2176 52.9915 18.1381 52.9915 18.0669V18.0376C52.8602 16.5681 51.5664 16.003 49.9856 16.7817C49.2719 17.1606 48.6614 17.6675 48.1958 18.2679C47.8358 16.2709 45.9438 15.5466 43.6578 16.6854C41.114 17.9413 39.0566 21.0184 39.0566 23.547V25.9249C39.0569 26.1128 39 26.2974 38.8916 26.4604C38.7832 26.6235 38.6272 26.7593 38.4389 26.8543L36.294 27.9344C35.8302 28.1697 35.4458 28.5052 35.1788 28.9075C34.9119 29.3099 34.7715 29.7652 34.7716 30.2286C34.772 30.4206 34.8309 30.6091 34.9425 30.7753C35.054 30.9415 35.2143 31.0796 35.4073 31.1758C35.6003 31.272 35.8192 31.3229 36.0423 31.3235C36.2653 31.324 36.4846 31.2742 36.6782 31.1789L56.5859 21.2779C57.1146 21.0157 57.5536 20.638 57.8585 20.183C58.1633 19.728 58.3233 19.2118 58.3223 18.6865C58.3216 18.5168 58.2691 18.3503 58.17 18.2036C58.0709 18.0569 57.9287 17.9352 57.7577 17.8508C57.5866 17.7664 57.3928 17.7222 57.1957 17.7226C56.9985 17.7231 56.805 17.7682 56.6345 17.8534Z" fill="#E6E6E6"/>
</svg>
