<svg width="232" height="174" viewBox="0 0 232 174" fill="none" xmlns="http://www.w3.org/2000/svg">
<path d="M224.609 108.88H222.084H108.071H105.546V113.34H108.071V158.68H222.084V113.34H224.609V108.88Z" fill="#283891"/>
<path opacity="0.5" d="M224.609 108.88H222.084H108.071H105.546V113.34H108.071V158.68H222.084V113.34H224.609V108.88Z" fill="white"/>
<path d="M111.119 132.57H142.221V117.895H111.119V132.57ZM111.751 118.453H141.589V132.013H111.751V118.453Z" fill="white"/>
<path d="M149.741 132.57H180.837V117.895H149.741V132.57ZM150.373 118.453H180.205V132.013H150.373V118.453Z" fill="white"/>
<path d="M188.357 117.895V132.57H219.453V117.895H188.357ZM218.821 132.013H188.988V118.453H218.821V132.013Z" fill="white"/>
<path d="M111.119 152.268H142.221V137.588H111.119V152.268ZM111.751 138.146H141.589V151.711H111.751V138.146Z" fill="white"/>
<path d="M149.741 152.268H180.837V137.588H149.741V152.268ZM150.373 138.146H180.205V151.711H150.373V138.146Z" fill="white"/>
<path d="M188.357 152.268H219.453V137.588H188.357V152.268ZM188.988 138.146H218.821V151.711H188.988V138.146Z" fill="white"/>
<path d="M127 127.09C129.789 127.09 132.05 126.341 132.05 125.417C132.05 124.493 129.789 123.744 127 123.744C124.212 123.744 121.951 124.493 121.951 125.417C121.951 126.341 124.212 127.09 127 127.09Z" fill="white"/>
<path d="M165.432 127.09C168.221 127.09 170.481 126.341 170.481 125.417C170.481 124.493 168.221 123.744 165.432 123.744C162.643 123.744 160.382 124.493 160.382 125.417C160.382 126.341 162.643 127.09 165.432 127.09Z" fill="white"/>
<path d="M204.983 127.09C207.771 127.09 210.032 126.341 210.032 125.417C210.032 124.493 207.771 123.744 204.983 123.744C202.194 123.744 199.933 124.493 199.933 125.417C199.933 126.341 202.194 127.09 204.983 127.09Z" fill="white"/>
<path d="M127.001 143.442C124.214 143.442 121.957 144.189 121.957 145.115C121.957 146.041 124.214 146.788 127.001 146.788C129.787 146.788 132.05 146.041 132.05 145.115C132.05 144.189 129.793 143.442 127.001 143.442Z" fill="white"/>
<path d="M165.432 143.442C162.645 143.442 160.388 144.189 160.388 145.115C160.388 146.041 162.645 146.788 165.432 146.788C168.219 146.788 170.481 146.041 170.481 145.115C170.481 144.189 168.225 143.442 165.432 143.442Z" fill="white"/>
<path d="M204.983 143.442C202.196 143.442 199.933 144.189 199.933 145.115C199.933 146.041 202.196 146.788 204.983 146.788C207.769 146.788 210.032 146.041 210.032 145.115C210.032 144.189 207.769 143.442 204.983 143.442Z" fill="white"/>
<path d="M62.1603 104.988C59.8618 107.996 56.6582 111.915 54.9492 115.06C55.5982 112.988 56.2354 111.031 56.813 109.274C57.6883 107.76 60.0345 103.92 62.7676 101.385C66.2035 98.1342 67.6743 96.0513 65.8224 95.8672C64.5421 95.7409 60.7907 100.154 58.4386 104.541C58.9507 103.042 59.3556 101.911 59.5998 101.227C59.7129 100.927 59.8201 100.591 59.9273 100.238C62.362 97.2343 64.5777 94.0967 66.5608 90.8441C70.0323 85.1108 71.1518 79.7037 68.8354 82.0338C66.7037 84.1746 62.9939 94.8152 60.0523 99.8278C60.2965 98.9652 60.5346 98.0079 60.7431 97.0664C61.1599 96.1565 61.7077 95.2307 62.0173 94.3892C62.4997 93.1005 62.9225 91.7908 63.2619 90.4653C63.8212 88.3977 64.105 86.2794 64.1074 84.1535C64.1665 81.6566 63.3964 79.1991 61.8923 77.0843C61.4933 76.5584 59.0579 73.3393 58.3195 74.9804C58.2243 75.2547 58.2059 75.5453 58.2659 75.8272C58.6232 78.5676 59.7486 81.0871 60.4453 83.7538C61.4874 87.746 60.7966 94.4523 60.4453 97.3031C60.3143 97.7502 60.1476 98.313 59.9511 98.96C60.4334 93.9894 57.998 88.1037 55.7411 87.078C52.9484 85.8051 55.6876 90.802 57.8431 95.1624C58.8665 97.0722 59.3469 99.1738 59.2425 101.285C58.8018 102.721 58.2957 104.33 57.7717 105.961C57.6705 106.187 57.5692 106.408 57.474 106.629C57.7152 105.564 57.8151 104.479 57.7717 103.394C57.5633 100.543 53.9071 94.8363 51.4776 95.641C49.0481 96.4458 53.1628 99.4596 55.36 102.963C56.4831 104.884 56.9113 107.063 56.5867 109.206C56.5867 109.332 56.5391 109.459 56.5212 109.585C56.2711 110.326 56.021 111.047 55.7769 111.726C55.1814 113.304 54.6753 114.818 54.1691 116.281C54.791 114.161 55.0638 111.973 54.979 109.785C54.6753 105.603 51.9063 101.658 49.6198 101.122C47.3332 100.585 51.6979 107.397 53.1628 111.226C53.9593 113.462 54.0945 115.842 53.5558 118.137C52.8472 120.21 52.1803 122.25 51.4955 124.418C51.689 121.586 51.6213 118.745 51.293 115.923C50.8464 111.273 47.7202 108.301 45.5587 108.422C43.3971 108.543 45.654 111.184 48.7623 116.838C50.403 119.807 51.1339 123.104 50.8821 126.4C50.6023 127.316 50.2867 128.252 50.0247 129.23C49.6912 130.345 49.4292 131.555 49.197 132.796C48.8814 131.692 48.4169 130.072 47.875 128.284C47.244 126.305 46.7861 124.286 46.5055 122.245C46.2137 119.873 45.5051 116.917 42.8731 115.681C42.6951 115.57 42.4915 115.495 42.2769 115.462C42.0623 115.428 41.842 115.437 41.6317 115.487C41.4213 115.537 41.2261 115.628 41.0598 115.752C40.8936 115.877 40.7605 116.032 40.6699 116.207C40.4228 116.714 40.3665 117.279 40.5091 117.816C40.8588 119.428 41.46 120.99 42.2955 122.456C41.7743 123.33 41.5373 124.315 41.6107 125.301C41.6107 125.675 41.6465 126.043 41.6762 126.406C41.444 126.032 41.2237 125.685 41.0153 125.354C40.6384 124.797 40.1732 124.29 39.6338 123.849C39.7683 122.978 39.8359 122.099 39.8363 121.22C39.8363 120.062 38.3059 117.127 36.9244 119.305C36.3766 120.173 36.4778 121.888 36.4242 123.024C36.0491 123.334 35.936 123.976 36.2516 124.991C35.9384 127.626 36.0951 130.288 36.716 132.881L36.2456 132.144C35.569 129.102 35.1707 126.017 35.0547 122.918C34.8284 117.811 35.7454 113.603 34.1734 112.025C32.6013 110.447 31.7141 115.997 32.387 122.019C32.7066 124.78 33.5395 127.476 34.8522 129.998C33.304 127.542 31.7737 125.038 30.3267 122.634C29.7312 121.341 28.2544 117.859 28.6177 114.324C29.0762 109.864 29.4097 106.219 27.4923 103.71C25.5749 101.201 25.1759 102.826 26.1167 108.054C26.7598 111.647 27.4446 116.444 28.6296 119.773C27.5042 117.864 26.4502 116.049 25.5094 114.403C24.9734 112.767 23.723 108.549 23.723 105.051C23.723 100.606 23.1811 98.2131 21.6924 99.1756C20.6563 99.8594 21.3232 105.345 22.9905 109.964C22.2105 108.559 21.621 107.481 21.2815 106.844C21.1267 106.555 20.954 106.25 20.7575 105.924C20.2254 102.262 19.4298 98.6346 18.3757 95.0624C16.4881 88.7506 13.1296 84.1535 13.2309 87.2463C13.3261 90.0972 18.8401 100.112 20.561 105.551C20.0728 104.772 19.5071 103.93 18.9354 103.115C18.5365 102.2 18.2209 101.195 17.7981 100.391C17.149 99.1598 16.4523 97.9448 15.6723 96.7719C14.4841 94.9188 13.053 93.1958 11.4087 91.6383C9.5214 89.7773 7.05776 88.446 4.32269 87.8091C3.62004 87.6619 -0.643494 86.7572 0.0829739 88.4403C0.222069 88.6953 0.425834 88.9184 0.678439 89.0925C3.0603 90.8809 5.82326 92.0433 8.41949 93.5739C12.2662 95.8619 16.9406 101.18 18.8699 103.483L19.7869 104.998C16.3035 101.074 9.97366 98.2394 7.53225 98.8495C4.50728 99.6017 10.3726 101.606 15.315 103.494C17.5396 104.272 19.5145 105.52 21.0672 107.128C21.8532 108.438 22.7285 109.921 23.6039 111.431C23.7051 111.657 23.8004 111.878 23.9076 112.094C23.26 111.171 22.4926 110.319 21.621 109.553C19.2391 107.597 12.1828 105.629 11.0336 107.681C9.88434 109.732 15.2018 109.453 19.5249 110.689C21.8547 111.406 23.8751 112.744 25.3069 114.519L25.551 114.839C25.944 115.534 26.3132 116.207 26.6646 116.854C27.4744 118.358 28.2485 119.773 29.0107 121.151C27.8291 119.218 26.3368 117.447 24.5804 115.891C21.1267 113.019 16.0534 111.804 13.9514 112.804C11.8494 113.803 20.3228 116.139 24.3482 118.064C26.6583 119.217 28.5956 120.874 29.9753 122.876C31.0591 124.817 32.1488 126.716 33.3219 128.71C31.2624 126.524 29.0061 124.489 26.5752 122.624C22.6571 119.5 18.072 119.216 16.5893 120.599C15.1066 121.982 18.7925 122.561 25.426 124.807C28.9163 125.99 31.9955 127.959 34.358 130.519C34.8582 131.355 35.3703 132.213 35.9181 133.102C36.5735 134.17 37.291 135.207 38.0677 136.21C36.984 135.589 35.3881 134.685 33.6136 133.706C31.6238 132.642 29.7304 131.443 27.9508 130.119C25.9024 128.541 23.0977 126.827 20.2097 127.489C19.9952 127.518 19.7903 127.587 19.6095 127.693C19.4286 127.799 19.2761 127.939 19.1627 128.102C19.0492 128.265 18.9776 128.449 18.9527 128.639C18.9279 128.829 18.9504 129.022 19.0188 129.204C19.2291 129.724 19.6238 130.171 20.1442 130.477C22.8595 132.339 26.5097 133.233 29.6717 134.327C32.5694 135.335 35.5393 136.173 38.562 136.836C39.3122 137.788 40.0983 138.724 40.8783 139.624L39.4611 139.661C37.7819 139.703 30.2076 136.673 26.3609 135.695C22.5142 134.716 18.9176 136.568 22.9489 138.482C26.9802 140.397 37.9427 139.971 37.9427 139.971L41.1046 139.902C41.8489 140.744 42.5814 141.538 43.2661 142.269H28.2485V145.951H31.2258L33.6077 159.038H53.6094L55.9912 145.962H58.9686V142.28H49.0124C48.9319 140.69 48.9797 139.098 49.1553 137.514C49.8186 136.918 50.5556 136.388 51.3526 135.937C55.7233 133.27 63.1309 133.049 65.1019 127.915C65.5782 126.674 65.0423 125.086 63.3631 125.154C62.1722 125.207 60.88 126.137 60.1297 126.905C57.6288 129.456 55.7471 132.102 52.4959 134.032C52.347 134.122 50.2986 135.563 49.2803 136.457C49.3935 135.621 49.5364 134.727 49.721 133.764C50.5066 132.533 51.4027 131.36 52.4006 130.256C55.0623 127.342 59.1115 125.633 61.9876 122.85C62.8689 121.998 64.03 118.937 61.3385 119.694C60.1476 120.036 58.7304 121.635 57.7955 122.371C55.1516 124.475 52.4363 126.716 50.7095 129.483C50.7809 129.209 50.8583 128.957 50.9298 128.657C52.7881 126.031 54.8787 123.539 57.1822 121.204C61.0051 117.359 64.9232 114.845 64.9887 112.746C65.0542 110.647 60.1238 114.166 55.9376 118.984C54.0387 121.194 52.566 123.666 51.5788 126.301C52.347 123.571 53.1628 120.82 53.9607 118.179C54.5085 116.864 56.1342 113.446 59.1293 111.073C62.9106 108.091 65.9712 105.629 66.5131 102.658C67.055 99.6858 65.5187 100.596 62.1603 104.988ZM41.0153 138.819C40.4516 138.139 39.8561 137.395 39.2289 136.589C38.854 135.215 38.6051 133.816 38.4846 132.407C38.403 131.2 38.4649 129.989 38.6691 128.794C39.6839 129.905 40.7632 130.969 41.9025 131.981C41.8754 133.035 41.7298 134.083 41.4678 135.111C41.45 135.263 41.0689 137.551 41.0153 138.819ZM44.2546 142.28C43.4865 141.559 42.6469 140.702 41.7358 139.65C41.7587 138.816 41.8885 137.986 42.1228 137.178C42.4874 135.903 43.0107 134.669 43.683 133.496C45.0942 134.679 46.1303 135.468 46.1303 135.468L48.5122 137.309C48.3276 139.15 48.2204 140.87 48.1549 142.269L44.2546 142.28ZM48.542 136.989L47.4761 136.163C46.8806 135.689 45.8088 133.859 44.6417 131.755C45.1431 130.867 45.5845 129.954 45.9636 129.02C47.226 131.087 48.3455 132.702 49.0064 133.559C48.8457 134.706 48.667 135.863 48.542 136.989Z" fill="#283891"/>
<path opacity="0.5" d="M62.1603 104.988C59.8618 107.996 56.6582 111.915 54.9492 115.06C55.5982 112.988 56.2354 111.031 56.813 109.274C57.6883 107.76 60.0345 103.92 62.7676 101.385C66.2035 98.1342 67.6743 96.0513 65.8224 95.8672C64.5421 95.7409 60.7907 100.154 58.4386 104.541C58.9507 103.042 59.3556 101.911 59.5998 101.227C59.7129 100.927 59.8201 100.591 59.9273 100.238C62.362 97.2343 64.5777 94.0967 66.5608 90.8441C70.0323 85.1108 71.1518 79.7037 68.8354 82.0338C66.7037 84.1746 62.9939 94.8152 60.0523 99.8278C60.2965 98.9652 60.5346 98.0079 60.7431 97.0664C61.1599 96.1565 61.7077 95.2307 62.0173 94.3892C62.4997 93.1005 62.9225 91.7908 63.2619 90.4653C63.8212 88.3977 64.105 86.2794 64.1074 84.1535C64.1665 81.6566 63.3964 79.1991 61.8923 77.0843C61.4933 76.5584 59.0579 73.3393 58.3195 74.9804C58.2243 75.2547 58.2059 75.5453 58.2659 75.8272C58.6232 78.5676 59.7486 81.0871 60.4453 83.7538C61.4874 87.746 60.7966 94.4523 60.4453 97.3031C60.3143 97.7502 60.1476 98.313 59.9511 98.96C60.4334 93.9894 57.998 88.1037 55.7411 87.078C52.9484 85.8051 55.6876 90.802 57.8431 95.1624C58.8665 97.0722 59.3469 99.1738 59.2425 101.285C58.8018 102.721 58.2957 104.33 57.7717 105.961C57.6705 106.187 57.5692 106.408 57.474 106.629C57.7152 105.564 57.8151 104.479 57.7717 103.394C57.5633 100.543 53.9071 94.8363 51.4776 95.641C49.0481 96.4458 53.1628 99.4596 55.36 102.963C56.4831 104.884 56.9113 107.063 56.5867 109.206C56.5867 109.332 56.5391 109.459 56.5212 109.585C56.2711 110.326 56.021 111.047 55.7769 111.726C55.1814 113.304 54.6753 114.818 54.1691 116.281C54.791 114.161 55.0638 111.973 54.979 109.785C54.6753 105.603 51.9063 101.658 49.6198 101.122C47.3332 100.585 51.6979 107.397 53.1628 111.226C53.9593 113.462 54.0945 115.842 53.5558 118.137C52.8472 120.21 52.1803 122.25 51.4955 124.418C51.689 121.586 51.6213 118.745 51.293 115.923C50.8464 111.273 47.7202 108.301 45.5587 108.422C43.3971 108.543 45.654 111.184 48.7623 116.838C50.403 119.807 51.1339 123.104 50.8821 126.4C50.6023 127.316 50.2867 128.252 50.0247 129.23C49.6912 130.345 49.4292 131.555 49.197 132.796C48.8814 131.692 48.4169 130.072 47.875 128.284C47.244 126.305 46.7861 124.286 46.5055 122.245C46.2137 119.873 45.5051 116.917 42.8731 115.681C42.6951 115.57 42.4915 115.495 42.2769 115.462C42.0623 115.428 41.842 115.437 41.6317 115.487C41.4213 115.537 41.2261 115.628 41.0598 115.752C40.8936 115.877 40.7605 116.032 40.6699 116.207C40.4228 116.714 40.3665 117.279 40.5091 117.816C40.8588 119.428 41.46 120.99 42.2955 122.456C41.7743 123.33 41.5373 124.315 41.6107 125.301C41.6107 125.675 41.6465 126.043 41.6762 126.406C41.444 126.032 41.2237 125.685 41.0153 125.354C40.6384 124.797 40.1732 124.29 39.6338 123.849C39.7683 122.978 39.8359 122.099 39.8363 121.22C39.8363 120.062 38.3059 117.127 36.9244 119.305C36.3766 120.173 36.4778 121.888 36.4242 123.024C36.0491 123.334 35.936 123.976 36.2516 124.991C35.9384 127.626 36.0951 130.288 36.716 132.881L36.2456 132.144C35.569 129.102 35.1707 126.017 35.0547 122.918C34.8284 117.811 35.7454 113.603 34.1734 112.025C32.6013 110.447 31.7141 115.997 32.387 122.019C32.7066 124.78 33.5395 127.476 34.8522 129.998C33.304 127.542 31.7737 125.038 30.3267 122.634C29.7312 121.341 28.2544 117.859 28.6177 114.324C29.0762 109.864 29.4097 106.219 27.4923 103.71C25.5749 101.201 25.1759 102.826 26.1167 108.054C26.7598 111.647 27.4446 116.444 28.6296 119.773C27.5042 117.864 26.4502 116.049 25.5094 114.403C24.9734 112.767 23.723 108.549 23.723 105.051C23.723 100.606 23.1811 98.2131 21.6924 99.1756C20.6563 99.8594 21.3232 105.345 22.9905 109.964C22.2105 108.559 21.621 107.481 21.2815 106.844C21.1267 106.555 20.954 106.25 20.7575 105.924C20.2254 102.262 19.4298 98.6346 18.3757 95.0624C16.4881 88.7506 13.1296 84.1535 13.2309 87.2463C13.3261 90.0972 18.8401 100.112 20.561 105.551C20.0728 104.772 19.5071 103.93 18.9354 103.115C18.5365 102.2 18.2209 101.195 17.7981 100.391C17.149 99.1598 16.4523 97.9448 15.6723 96.7719C14.4841 94.9188 13.053 93.1958 11.4087 91.6383C9.5214 89.7773 7.05776 88.446 4.32269 87.8091C3.62004 87.6619 -0.643494 86.7572 0.0829739 88.4403C0.222069 88.6953 0.425834 88.9184 0.678439 89.0925C3.0603 90.8809 5.82326 92.0433 8.41949 93.5739C12.2662 95.8619 16.9406 101.18 18.8699 103.483L19.7869 104.998C16.3035 101.074 9.97366 98.2394 7.53225 98.8495C4.50728 99.6017 10.3726 101.606 15.315 103.494C17.5396 104.272 19.5145 105.52 21.0672 107.128C21.8532 108.438 22.7285 109.921 23.6039 111.431C23.7051 111.657 23.8004 111.878 23.9076 112.094C23.26 111.171 22.4926 110.319 21.621 109.553C19.2391 107.597 12.1828 105.629 11.0336 107.681C9.88434 109.732 15.2018 109.453 19.5249 110.689C21.8547 111.406 23.8751 112.744 25.3069 114.519L25.551 114.839C25.944 115.534 26.3132 116.207 26.6646 116.854C27.4744 118.358 28.2485 119.773 29.0107 121.151C27.8291 119.218 26.3368 117.447 24.5804 115.891C21.1267 113.019 16.0534 111.804 13.9514 112.804C11.8494 113.803 20.3228 116.139 24.3482 118.064C26.6583 119.217 28.5956 120.874 29.9753 122.876C31.0591 124.817 32.1488 126.716 33.3219 128.71C31.2624 126.524 29.0061 124.489 26.5752 122.624C22.6571 119.5 18.072 119.216 16.5893 120.599C15.1066 121.982 18.7925 122.561 25.426 124.807C28.9163 125.99 31.9955 127.959 34.358 130.519C34.8582 131.355 35.3703 132.213 35.9181 133.102C36.5735 134.17 37.291 135.207 38.0677 136.21C36.984 135.589 35.3881 134.685 33.6136 133.706C31.6238 132.642 29.7304 131.443 27.9508 130.119C25.9024 128.541 23.0977 126.827 20.2097 127.489C19.9952 127.518 19.7903 127.587 19.6095 127.693C19.4286 127.799 19.2761 127.939 19.1627 128.102C19.0492 128.265 18.9776 128.449 18.9527 128.639C18.9279 128.829 18.9504 129.022 19.0188 129.204C19.2291 129.724 19.6238 130.171 20.1442 130.477C22.8595 132.339 26.5097 133.233 29.6717 134.327C32.5694 135.335 35.5393 136.173 38.562 136.836C39.3122 137.788 40.0983 138.724 40.8783 139.624L39.4611 139.661C37.7819 139.703 30.2076 136.673 26.3609 135.695C22.5142 134.716 18.9176 136.568 22.9489 138.482C26.9802 140.397 37.9427 139.971 37.9427 139.971L41.1046 139.902C41.8489 140.744 42.5814 141.538 43.2661 142.269H28.2485V145.951H31.2258L33.6077 159.038H53.6094L55.9912 145.962H58.9686V142.28H49.0124C48.9319 140.69 48.9797 139.098 49.1553 137.514C49.8186 136.918 50.5556 136.388 51.3526 135.937C55.7233 133.27 63.1309 133.049 65.1019 127.915C65.5782 126.674 65.0423 125.086 63.3631 125.154C62.1722 125.207 60.88 126.137 60.1297 126.905C57.6288 129.456 55.7471 132.102 52.4959 134.032C52.347 134.122 50.2986 135.563 49.2803 136.457C49.3935 135.621 49.5364 134.727 49.721 133.764C50.5066 132.533 51.4027 131.36 52.4006 130.256C55.0623 127.342 59.1115 125.633 61.9876 122.85C62.8689 121.998 64.03 118.937 61.3385 119.694C60.1476 120.036 58.7304 121.635 57.7955 122.371C55.1516 124.475 52.4363 126.716 50.7095 129.483C50.7809 129.209 50.8583 128.957 50.9298 128.657C52.7881 126.031 54.8787 123.539 57.1822 121.204C61.0051 117.359 64.9232 114.845 64.9887 112.746C65.0542 110.647 60.1238 114.166 55.9376 118.984C54.0387 121.194 52.566 123.666 51.5788 126.301C52.347 123.571 53.1628 120.82 53.9607 118.179C54.5085 116.864 56.1342 113.446 59.1293 111.073C62.9106 108.091 65.9712 105.629 66.5131 102.658C67.055 99.6858 65.5187 100.596 62.1603 104.988ZM41.0153 138.819C40.4516 138.139 39.8561 137.395 39.2289 136.589C38.854 135.215 38.6051 133.816 38.4846 132.407C38.403 131.2 38.4649 129.989 38.6691 128.794C39.6839 129.905 40.7632 130.969 41.9025 131.981C41.8754 133.035 41.7298 134.083 41.4678 135.111C41.45 135.263 41.0689 137.551 41.0153 138.819ZM44.2546 142.28C43.4865 141.559 42.6469 140.702 41.7358 139.65C41.7587 138.816 41.8885 137.986 42.1228 137.178C42.4874 135.903 43.0107 134.669 43.683 133.496C45.0942 134.679 46.1303 135.468 46.1303 135.468L48.5122 137.309C48.3276 139.15 48.2204 140.87 48.1549 142.269L44.2546 142.28ZM48.542 136.989L47.4761 136.163C46.8806 135.689 45.8088 133.859 44.6417 131.755C45.1431 130.867 45.5845 129.954 45.9636 129.02C47.226 131.087 48.3455 132.702 49.0064 133.559C48.8457 134.706 48.667 135.863 48.542 136.989Z" fill="white"/>
<path d="M65.5128 172.345C79.3186 172.345 90.5104 170.204 90.5104 167.564C90.5104 164.923 79.3186 162.783 65.5128 162.783C51.707 162.783 40.5151 164.923 40.5151 167.564C40.5151 170.204 51.707 172.345 65.5128 172.345Z" fill="#283891"/>
<path opacity="0.5" d="M65.5128 172.345C79.3186 172.345 90.5104 170.204 90.5104 167.564C90.5104 164.923 79.3186 162.783 65.5128 162.783C51.707 162.783 40.5151 164.923 40.5151 167.564C40.5151 170.204 51.707 172.345 65.5128 172.345Z" fill="white"/>
<path d="M156.214 172.345C170.02 172.345 181.212 170.204 181.212 167.564C181.212 164.923 170.02 162.783 156.214 162.783C142.408 162.783 131.216 164.923 131.216 167.564C131.216 170.204 142.408 172.345 156.214 172.345Z" fill="#283891"/>
<path opacity="0.5" d="M156.214 172.345C170.02 172.345 181.212 170.204 181.212 167.564C181.212 164.923 170.02 162.783 156.214 162.783C142.408 162.783 131.216 164.923 131.216 167.564C131.216 170.204 142.408 172.345 156.214 172.345Z" fill="white"/>
<path d="M114.258 80.2717C115.265 80.8286 116.126 81.5692 116.782 82.444C117.533 83.6485 120.677 84.4322 120.677 84.4322H121.838L122.314 89.2555C121.117 89.2899 119.924 89.3918 118.741 89.5606C118.045 89.6964 117.335 89.7756 116.622 89.7972C116.622 89.7972 112.936 85.6998 112.322 84.9161C111.709 84.1324 111.644 82.5071 111.917 82.2021C112.191 81.897 114.258 80.2717 114.258 80.2717Z" fill="white" stroke="#263238" stroke-width="0.75" stroke-linecap="round" stroke-linejoin="round"/>
<path d="M109.345 88.4718C109.345 88.4718 107.297 89.0766 108.184 89.5605C108.64 89.7397 109.148 89.7894 109.638 89.7027C110.127 89.6161 110.574 89.3973 110.917 89.0766C111.257 88.5927 110.179 88.2298 109.345 88.4718Z" fill="white" stroke="#263238" stroke-width="0.75" stroke-linecap="round" stroke-linejoin="round"/>
<path d="M107.094 82.9279C107.094 82.9279 113.168 80.9976 113.442 81.1764C113.716 81.3552 114.192 82.9858 114.192 82.9858C114.192 82.9858 118.42 85.2159 118.765 86.0628C119.039 87.3772 119.039 88.7248 118.765 90.0392C118.557 90.3443 117.402 90.7019 116.979 90.8229C116.553 90.9163 116.107 90.9163 115.681 90.8229C115.478 90.7651 112.197 88.719 112.197 88.719C112.197 88.719 108.857 89.0188 108.107 89.0188C107.356 89.0188 106.6 88.9609 106.6 88.9609L107.094 82.9279Z" fill="white" stroke="#263238" stroke-width="0.75" stroke-linecap="round" stroke-linejoin="round"/>
<path d="M114.668 85.2002C114.668 85.2002 116.919 86.289 117.402 86.8886C117.884 87.4882 118.354 90.0866 118.354 90.0866" stroke="#263238" stroke-width="0.75" stroke-linecap="round" stroke-linejoin="round"/>
<path d="M113.716 86.3047C113.716 86.3047 116.377 87.5671 116.645 88.172C116.9 88.9437 117.099 89.729 117.241 90.5231" stroke="#263238" stroke-width="0.75" stroke-linecap="round" stroke-linejoin="round"/>
<path d="M115.079 81.4183C115.079 81.4183 112.144 84.3112 111.459 84.6163C110.774 84.9214 110.643 84.5532 110.268 84.3112C109.893 84.0693 112.453 80.8187 112.388 80.5768C112.746 80.3435 113.181 80.2225 113.626 80.233C114.07 80.2435 114.498 80.3848 114.841 80.6346" fill="white"/>
<path d="M115.079 81.4183C115.079 81.4183 112.144 84.3112 111.459 84.6163C110.774 84.9214 110.643 84.5532 110.268 84.3112C109.893 84.0693 112.453 80.8187 112.388 80.5768C112.746 80.3435 113.181 80.2225 113.626 80.233C114.07 80.2435 114.498 80.3848 114.841 80.6346" stroke="#263238" stroke-width="0.75" stroke-linecap="round" stroke-linejoin="round"/>
<path d="M110.774 87.8301L110.667 88.1562C110.451 88.7328 110.325 89.3327 110.292 89.9393C110.429 90.1812 111.25 90.4232 111.524 90.0602C111.798 89.6973 112.34 87.8932 112.203 87.6512C112.066 87.4093 111.53 86.3626 110.774 87.8301Z" fill="white" stroke="#263238" stroke-width="0.75" stroke-linecap="round" stroke-linejoin="round"/>
<path d="M113.37 87.5671C113.156 87.8038 112.179 90.4021 112.418 90.723C112.656 91.0438 113.644 91.149 113.918 90.7861C114.192 90.4232 115.145 88.1562 114.871 87.6302C114.597 87.1042 114.347 86.5414 113.37 87.5671Z" fill="white" stroke="#263238" stroke-width="0.75" stroke-linecap="round" stroke-linejoin="round"/>
<path d="M115.079 88.1088L114.978 88.3192C114.68 88.9451 113.829 90.8334 114.055 91.1858C114.281 91.5382 115.621 91.7118 115.895 91.128C116.169 90.5441 117.128 88.2929 116.491 87.7512C116.391 87.6462 116.258 87.569 116.11 87.529C115.961 87.489 115.803 87.4878 115.654 87.5256C115.504 87.5634 115.371 87.6387 115.269 87.7422C115.167 87.8457 115.101 87.973 115.079 88.1088Z" fill="white" stroke="#263238" stroke-width="0.75" stroke-linecap="round" stroke-linejoin="round"/>
<path d="M68.1031 37.4093C68.1031 37.4093 68.4603 39.3502 68.0495 40.1234C67.6386 40.8966 67.0253 42.5166 67.0253 42.5166L76.0883 49.6174C76.0883 49.6174 78.8512 46.5404 79.3633 45.9355C79.8754 45.3306 80.5542 44.5311 80.5542 44.5311C80.5542 44.5311 76.1002 42.0432 75.1951 40.2339C74.2899 38.4245 74.7365 36.1207 72.8132 35.7577C70.8898 35.3948 68.6688 36.3258 68.1031 37.4093Z" fill="white" stroke="#263238" stroke-width="0.75" stroke-linecap="round" stroke-linejoin="round"/>
<path d="M85.3537 25.4275C85.3537 25.4275 89.1409 25.3801 88.3727 22.1716C87.6046 18.9631 78.75 18.2794 77.1125 19.7732C75.4749 21.267 75.731 21.8771 75.731 21.8771C75.731 21.8771 68.1031 21.6983 66.1559 25.3591C64.2087 29.0199 65.0841 33.7748 66.3643 36.2575C67.6446 38.7401 69.7942 39.0136 70.9196 38.698C72.045 38.3824 72.8608 37.7933 72.8608 36.8886C72.8608 35.984 73.5813 33.8169 74.4507 34.3587C75.3201 34.9004 76.2371 35.0793 77.7794 33.7696C79.3216 32.4599 81.513 30.8293 80.6972 29.5196C79.8814 28.2099 78.4939 28.1626 79.2621 27.5735C80.0302 26.9844 84.3831 26.5215 84.788 26.127C85.0135 25.919 85.204 25.6834 85.3537 25.4275Z" fill="#263238" stroke="#263238" stroke-width="0.75" stroke-linecap="round" stroke-linejoin="round"/>
<path d="M85.1692 23.5024C85.1692 23.5024 85.7051 24.4544 80.6079 25.6379C75.5107 26.8213 66.9122 27.058 66.6561 29.9036" stroke="white" stroke-width="0.75" stroke-linecap="round" stroke-linejoin="round"/>
<path d="M75.2546 28.9568C75.2546 28.9568 69.0856 30.6136 67.7399 32.5124C66.3941 34.4112 68.2817 36.0628 68.2817 36.0628" stroke="white" stroke-width="0.75" stroke-linecap="round" stroke-linejoin="round"/>
<path d="M85.3537 25.4275C85.3537 25.4275 86.7887 29.7195 86.7887 30.5821C86.7887 31.4447 85.7645 32.2968 86.2231 33.2488C86.6816 34.2009 88.2179 36.0523 88.2179 36.6414C88.2179 37.2305 85.967 37.8144 85.967 37.8144C85.967 37.8144 84.0734 44.1262 83.6625 44.9151C83.2517 45.7041 81.8762 45.8198 80.2327 45.4411C78.5892 45.0624 74.2482 43.0426 73.0871 41.4647C71.9259 39.8867 72.7774 37.2095 72.7774 37.2095C72.7774 37.2095 70.3956 36.2627 69.9132 34.2745C69.4309 32.2863 71.1935 30.9713 72.7298 31.4237C73.1616 31.5365 73.562 31.7276 73.9054 31.9848C74.2489 32.242 74.5279 32.5597 74.7246 32.9175C74.7246 32.9175 74.8794 33.4119 75.3201 33.2804C75.7607 33.1489 76.1895 32.3284 76.6003 32.281C77.0112 32.2337 79.929 31.3342 79.5777 30.3401C79.2263 29.346 75.5821 29.2882 75.8381 28.1678C76.0942 27.0475 85.3537 25.4275 85.3537 25.4275Z" fill="white" stroke="#263238" stroke-width="0.75" stroke-linecap="round" stroke-linejoin="round"/>
<path d="M80.7984 36.9097L79.3157 37.8144" stroke="#263238" stroke-width="0.75" stroke-linecap="round" stroke-linejoin="round"/>
<path d="M80.2327 37.4988C80.2327 37.4988 80.6971 38.5823 82.6145 38.9452L80.2327 37.4988Z" fill="white"/>
<path d="M80.2327 37.4988C80.2327 37.4988 80.6971 38.5823 82.6145 38.9452" stroke="#263238" stroke-width="0.75" stroke-linecap="round" stroke-linejoin="round"/>
<path d="M80.2863 37.8144C80.2863 37.8144 79.417 39.9183 80.4888 40.3917C81.5606 40.8651 82.0251 38.9031 82.0251 38.9031L80.2863 37.8144Z" fill="black"/>
<path d="M86.0683 33.5907C86.0087 34.69 85.6931 35.5684 85.3656 35.5526C85.0381 35.5368 84.8297 34.6374 84.8952 33.5381C84.9607 32.4388 85.2704 31.5657 85.5979 31.5762C85.9254 31.5867 86.1338 32.4914 86.0683 33.5907Z" fill="white" stroke="#263238" stroke-width="0.75" stroke-linecap="round" stroke-linejoin="round"/>
<path d="M84.8951 32.4809H74.4507" stroke="#263238" stroke-width="0.75" stroke-linecap="round" stroke-linejoin="round"/>
<path d="M84.1747 31.2606C84.2527 31.014 84.3952 30.787 84.5907 30.5979C84.7861 30.4088 85.0291 30.2628 85.3001 30.1718C86.1754 29.9457 86.3243 30.3559 86.3243 30.3559" fill="white"/>
<path d="M84.1747 31.2606C84.2527 31.014 84.3952 30.787 84.5907 30.5979C84.7861 30.4088 85.0291 30.2628 85.3001 30.1718C86.1754 29.9457 86.3243 30.3559 86.3243 30.3559" stroke="#263238" stroke-width="0.75" stroke-linecap="round" stroke-linejoin="round"/>
<path d="M48.6671 107.886L80.4054 107.044C80.4054 107.044 82.3824 126.453 81.906 126.879C81.4296 127.305 49.9652 128.457 49.9652 128.457C49.9652 128.457 47.5298 128.61 47.1844 127.647C46.839 126.684 48.6671 107.886 48.6671 107.886Z" fill="white" stroke="#263238" stroke-width="0.75" stroke-linecap="round" stroke-linejoin="round"/>
<path d="M48.667 107.886C48.667 107.886 45.6897 127.116 46.2078 127.663C46.7258 128.21 49.1851 128.604 49.9651 128.446C50.6797 128.331 48.667 107.886 48.667 107.886Z" fill="white" stroke="#263238" stroke-width="0.75" stroke-linecap="round" stroke-linejoin="round"/>
<path d="M58.0159 160.579C56.2712 161.52 55.4256 163.109 55.8365 164.376C56.2474 165.644 56.3784 165.765 57.4741 165.954C58.5697 166.144 63.4763 165.47 68.7879 164.687C74.0995 163.903 74.8676 163.724 75.338 163.061C75.8084 162.399 76.6361 161.736 71.3782 160.957C66.1202 160.179 65.6438 159.327 65.6438 159.327C65.6438 159.327 60.8146 159.069 58.0159 160.579Z" fill="#283891" stroke="#263238" stroke-width="0.75" stroke-linecap="round" stroke-linejoin="round"/>
<path d="M75.195 161.831C74.8377 162.478 73.7183 163.64 70.199 164.013C66.4774 164.408 59.7427 165.002 56.1877 165.271C56.4319 165.718 56.7296 165.796 57.474 165.944C58.5637 166.123 63.4762 165.46 68.7878 164.676C74.0994 163.892 74.8675 163.714 75.3379 163.051C75.6416 162.651 76.0525 162.251 75.195 161.831Z" fill="#263238" stroke="#263238" stroke-width="0.75" stroke-linecap="round" stroke-linejoin="round"/>
<path d="M67.4361 162.204C67.4361 162.204 72.8966 164.497 75.9037 165.039C78.9108 165.581 79.6551 165.644 79.3157 166.486C78.9763 167.327 78.9048 167.574 74.3316 168.537C69.7585 169.499 64.7744 168.416 62.5891 168.053C60.4037 167.69 59.7249 168.237 58.7721 167.874C57.8194 167.511 58.0873 165.702 58.0873 165.702L67.4361 162.204Z" fill="#283891" stroke="#263238" stroke-width="0.75" stroke-linecap="round" stroke-linejoin="round"/>
<path d="M74.3317 168.537C78.1724 167.727 78.8334 167.427 79.149 166.848C74.9807 168.426 69.4548 167.774 65.2389 167.348C62.5236 167.069 59.9333 166.822 58.0933 166.691C58.0837 166.924 58.1428 167.156 58.2649 167.364C58.387 167.571 58.5679 167.747 58.79 167.874C59.7427 168.237 60.4275 167.695 62.6069 168.053C64.7863 168.411 69.7585 169.499 74.3317 168.537Z" fill="#263238" stroke="#263238" stroke-width="0.75" stroke-linecap="round" stroke-linejoin="round"/>
<path d="M61.2969 117.895C61.2969 117.895 60.3382 124.765 58.4267 127.721C56.5153 130.677 53.925 132.723 53.5141 137.004C53.1033 141.286 54.4669 158.769 54.6038 160.279C54.7408 161.789 54.0084 162.267 54.7408 163.23C55.1997 163.82 55.7009 164.384 56.2414 164.918L58.4982 163.172C58.4982 163.172 60.1357 158.527 59.7248 149.665C59.314 140.802 59.3854 134.837 61.1599 128.925C62.9344 123.013 63.2738 121.451 62.4521 119.158C61.6303 116.864 61.2969 117.895 61.2969 117.895Z" fill="#263238" stroke="#263238" stroke-width="0.75" stroke-linecap="round" stroke-linejoin="round"/>
<path d="M56.9976 103.652C56.9976 103.652 59.2485 107.402 59.7606 108.385C60.2727 109.369 61.4458 120.778 60.5287 124.575C59.6117 128.373 56.0389 134.827 56.3605 140.491C56.682 146.156 56.956 161.173 56.956 161.352C56.7506 162.248 56.7506 163.17 56.956 164.066C57.2954 165.691 58.3196 166.17 58.3196 166.17C60.0573 165.455 61.86 164.871 63.7085 164.424C67.0551 163.577 68.0078 162.372 68.0078 162.372C67.7158 161.591 67.3738 160.826 66.9836 160.079C66.5072 159.237 65.6914 157.912 65.8284 157.486C65.9654 157.06 66.8526 143.2 68.6271 138.619C70.4016 134.038 71.4198 129.214 72.9263 124.991C74.4329 120.767 78.0235 109.453 78.0235 106.56V103.005L56.7297 102.642L56.9976 103.652Z" fill="#263238" stroke="#263238" stroke-width="0.75" stroke-linecap="round" stroke-linejoin="round"/>
<path d="M58.7543 130.666C58.1588 132.281 57.4979 134.09 56.9977 135.526C55.8068 138.945 56.9977 158.143 56.9977 158.143C57.1279 159.543 57.1657 160.948 57.1108 162.351C56.9977 164.092 57.1108 164.781 57.5991 165.25" stroke="white" stroke-width="0.75" stroke-linecap="round" stroke-linejoin="round"/>
<path d="M60.2727 126.585C60.2727 126.585 59.8321 127.747 59.2426 129.341" stroke="white" stroke-width="0.75" stroke-linecap="round" stroke-linejoin="round"/>
<path d="M66.3642 40.8914C66.3642 40.8914 68.7461 41.612 72.3189 44.3734C75.8917 47.1348 79.536 49.7542 78.7678 50.6852C77.9996 51.6162 76.5646 54.8931 76.5646 54.8931C76.5646 54.8931 75.2367 52.9469 71.2947 50.1592C67.3527 47.3715 64.3278 44.8678 64.3278 44.8678C64.3278 44.8678 65.9534 41.4805 66.3642 40.8914Z" fill="white" stroke="#263238" stroke-width="0.75" stroke-linecap="round" stroke-linejoin="round"/>
<path d="M63.1904 45.3201C63.1904 45.3201 55.5625 50.1118 54.2585 54.7247C52.9544 59.3376 52.4125 61.5993 52.5197 70.4148C52.6269 79.2302 53.2343 84.7951 53.2343 85.2001C53.2343 85.6052 51.2275 101.979 51.2275 102.158C51.2275 102.337 54.8003 105.235 64.7922 105.414C71.5734 105.452 78.3461 104.984 85.0381 104.015L80.6852 72.2715C80.6852 72.2715 78.9941 58.7485 77.2553 56.2185C75.5166 53.6885 63.1904 45.3201 63.1904 45.3201Z" fill="#283891" stroke="#263238" stroke-width="0.75" stroke-linecap="round" stroke-linejoin="round"/>
<path d="M67.5909 89.3186C67.5909 89.3186 73.9386 90.4495 78.3093 89.0451" stroke="#263238" stroke-width="0.75" stroke-linecap="round" stroke-linejoin="round"/>
<path d="M67.5909 90.986C67.5909 90.986 73.9386 92.1168 78.3093 90.7177" stroke="#263238" stroke-width="0.75" stroke-linecap="round" stroke-linejoin="round"/>
<path d="M105.999 82.0232L107.571 82.686L106.612 88.9557L105.046 88.7137L105.999 82.0232Z" fill="white" stroke="#263238" stroke-width="0.75" stroke-linecap="round" stroke-linejoin="round"/>
<path d="M69.9609 53.5676C69.0675 53.8167 68.2671 54.2747 67.6445 54.893C66.6203 55.945 61.0944 62.0043 61.4993 64.6605C61.9042 67.3167 69.0915 77.0159 71.4734 80.035C74.4058 83.861 78.6295 86.7728 83.5435 88.3561C89.5517 90.2864 105.183 89.3239 105.183 89.3239L106.01 81.8391C106.01 81.8391 97.4833 79.4301 91.612 77.8627C88.3466 77.0097 85.153 75.9551 82.0548 74.7068C82.0548 74.7068 80.6912 71.7508 79.7325 71.2721C78.7738 70.7935 78.6428 70.4884 78.6428 70.4884C78.6428 70.4884 76.8028 61.6256 75.8441 58.7274C74.8854 55.8293 73.5932 55.1139 73.5932 55.1139" fill="#283891"/>
<path d="M69.9609 53.5676C69.0675 53.8167 68.2671 54.2747 67.6445 54.893C66.6203 55.945 61.0944 62.0043 61.4993 64.6605C61.9042 67.3167 69.0915 77.0159 71.4734 80.035C74.4058 83.861 78.6295 86.7728 83.5435 88.3561C89.5517 90.2864 105.183 89.3239 105.183 89.3239L106.01 81.8391C106.01 81.8391 97.4833 79.4301 91.612 77.8627C88.3466 77.0097 85.153 75.9551 82.0548 74.7068C82.0548 74.7068 80.6912 71.7508 79.7325 71.2721C78.7738 70.7935 78.6428 70.4884 78.6428 70.4884C78.6428 70.4884 76.8028 61.6256 75.8441 58.7274C74.8854 55.8293 73.5932 55.1139 73.5932 55.1139" stroke="#263238" stroke-width="0.75" stroke-linecap="round" stroke-linejoin="round"/>
<path d="M149.753 159.18C147.319 160.421 144.788 161.509 142.179 162.435C138.696 163.582 137.874 164.013 138.559 164.666C139.243 165.318 145.18 165.812 148.521 165.192C151.861 164.571 153.165 164.171 154.666 164.229C156.166 164.287 158.239 164.65 158.965 163.745C159.692 162.84 159.989 162.662 159.442 161.152C158.894 159.642 149.753 159.18 149.753 159.18Z" fill="#283891" stroke="#263238" stroke-width="0.75" stroke-linecap="round" stroke-linejoin="round"/>
<path d="M148.521 165.207C151.867 164.608 153.165 164.187 154.666 164.245C156.166 164.303 158.239 164.666 158.965 163.761C159.501 163.114 159.793 162.835 159.715 162.183C157.286 162.004 152.6 162.683 147.014 163.761C144.187 164.369 141.256 164.501 138.374 164.15C138.341 164.244 138.342 164.344 138.374 164.438C138.407 164.532 138.471 164.615 138.558 164.676C139.243 165.328 145.18 165.812 148.521 165.207Z" fill="#263238" stroke="#263238" stroke-width="0.75" stroke-linecap="round" stroke-linejoin="round"/>
<path d="M162.651 163.161C161.284 164.467 159.826 165.697 158.286 166.843C156.03 168.468 152.141 170.704 152.552 171.666C152.963 172.629 155.756 173.534 161.627 172.192C165.384 171.285 168.939 169.818 172.137 167.853C172.793 167.746 173.378 167.422 173.774 166.948C174.257 166.223 173.709 165.081 173.709 165.081L162.651 163.161Z" fill="#283891" stroke="#263238" stroke-width="0.75" stroke-linecap="round" stroke-linejoin="round"/>
<path d="M161.627 172.203C165.384 171.296 168.939 169.828 172.137 167.864C172.793 167.756 173.378 167.433 173.774 166.959C174.034 166.403 174.034 165.779 173.774 165.223C165.283 170.899 157.339 172.061 153.135 172.229C154.243 172.903 156.97 173.255 161.627 172.203Z" fill="#263238" stroke="#263238" stroke-width="0.75" stroke-linecap="round" stroke-linejoin="round"/>
<path d="M152.457 92.9216C152.457 92.9216 148.842 93.3476 146.246 92.5008C143.65 91.654 141.196 90.9965 141.196 90.9965C141.196 90.9965 139.761 107.455 141.333 114.087C142.905 120.72 147.068 128.815 147.133 130.666C147.217 132.893 147.513 135.11 148.021 137.294C148.497 138.982 150.819 152.021 150.956 153.452C151.047 154.174 151.047 154.902 150.956 155.624C150.956 155.624 149.319 156.108 149.319 156.529V159.6C150.669 160.228 152.087 160.733 153.552 161.11C156.077 161.773 159.626 162.314 159.626 162.314C159.931 161.099 160.157 159.87 160.305 158.633C160.305 157.791 159.71 155.561 159.71 154.351C159.71 153.141 160.055 138.677 160.055 138.677C160.055 138.677 163.395 151.037 163.395 155.135C163.395 159.232 163.33 160.563 163.33 160.563C163.33 160.563 161.829 160.142 161.829 161.047C161.829 161.952 161.758 164.119 161.758 164.119C161.758 164.119 167.081 165.323 169.606 165.986C171.111 166.387 172.703 166.47 174.251 166.228C174.251 166.228 175.614 161.647 175.477 160.142C175.34 158.638 173.637 157.365 173.637 156.523C173.637 155.682 174.525 147.361 173.227 140.123C171.928 132.886 168.516 129.572 168.379 126.016C168.243 122.461 168.975 109.679 169.064 107.607C169.154 105.535 171.518 101.216 171.863 99.286C172.208 97.3556 171.928 91.6329 171.928 91.6329C171.928 91.6329 156.625 93.5843 152.457 92.9216Z" fill="#263238" stroke="#263238" stroke-width="0.75" stroke-linecap="round" stroke-linejoin="round"/>
<path d="M145.93 101.185L149.616 103.294" stroke="white" stroke-width="0.75" stroke-linecap="round" stroke-linejoin="round"/>
<path d="M159.233 136.831C159.745 138.004 160.061 138.682 160.061 138.682" stroke="white" stroke-width="0.75" stroke-linecap="round" stroke-linejoin="round"/>
<path d="M148.39 102.752C148.39 102.752 150.843 115.47 153.779 123.429C155.285 127.51 156.899 131.424 158.114 134.259" stroke="white" stroke-width="0.75" stroke-linecap="round" stroke-linejoin="round"/>
<path d="M120.677 83.5907C120.742 83.7695 121.082 90.3443 121.082 90.3443L140.672 88.7663L140.268 80.2664L120.677 83.5907Z" fill="#263238" stroke="#263238" stroke-width="0.75" stroke-linecap="round" stroke-linejoin="round"/>
<path d="M159.102 49.1546C159.102 49.1546 154.666 50.5379 153.779 51.5057C152.891 52.4735 147.633 68.8053 145.907 73.6285C144.18 78.4518 143.656 93.0426 143.656 93.0426C144.61 93.3545 145.592 93.5973 146.591 93.7684C147.575 93.915 148.572 93.9749 149.569 93.9473C149.569 93.9473 155.303 76.8844 158.102 71.0407C160.9 65.197 165.605 56.8129 167.385 53.557C169.166 50.3012 170.726 49.6963 170.523 48.1289C170.321 46.5615 169.499 45.9566 168.475 45.8356C167.451 45.7146 159.102 49.1546 159.102 49.1546Z" fill="white" stroke="#263238" stroke-width="0.75" stroke-linecap="round" stroke-linejoin="round"/>
<path d="M159.656 48.6759C159.656 48.6759 155.22 50.0593 154.332 51.0271C153.445 51.9949 148.193 68.3266 146.502 73.1499C144.811 77.9732 144.233 92.5639 144.233 92.5639C145.188 92.8759 146.17 93.1187 147.169 93.2898C148.153 93.4334 149.15 93.4933 150.146 93.4686C150.146 93.4686 155.881 76.4057 158.679 70.5568C161.478 64.7079 166.188 56.3553 167.963 53.0731C169.737 49.791 171.303 49.2177 171.101 47.6503C170.898 46.0828 170.077 45.4779 169.052 45.357C168.028 45.236 159.656 48.6759 159.656 48.6759Z" fill="#283891" stroke="#263238" stroke-width="0.75" stroke-linecap="round" stroke-linejoin="round"/>
<path d="M165.652 50.6589C162.87 54.8624 160.431 59.2356 158.352 63.7453C155.553 70.136 153.302 75.8429 150.432 84.3638C148.707 89.6252 148.129 95.1281 148.729 100.58C148.729 100.58 150.093 102.631 158.149 102.873C166.206 103.115 176.305 100.822 176.305 100.822C176.305 100.822 174.936 93.5843 174.799 89.3081C174.662 85.0318 178.556 70.015 180.193 66.0965C181.831 62.1779 185.38 58.2593 181.98 54.4617C178.58 50.6641 170.446 46.3826 170.446 46.3826C170.446 46.3826 166.539 49.3334 165.652 50.6589Z" fill="#263238" stroke="#263238" stroke-width="0.75" stroke-linecap="round" stroke-linejoin="round"/>
<path d="M156.44 50.601C156.44 50.601 154.326 52.9521 152.415 57.9648C150.504 62.9774 146.955 76.2953 145.317 81.9601C143.68 87.6249 142.858 100.227 142.858 100.227C142.858 100.227 141.971 100.17 140.131 100.17C138.918 100.138 137.729 99.8702 136.647 99.3859C136.647 99.3859 137.945 87.0253 139.106 81.2395C140.268 75.4537 143.68 65.1392 144.293 61.0996C144.906 57.0601 145.109 56.0397 145.93 55.4926C146.752 54.9456 153.165 51.5162 154.463 50.7325C155.762 49.9488 156.44 50.601 156.44 50.601Z" fill="#263238" stroke="#263238" stroke-width="0.75" stroke-linecap="round" stroke-linejoin="round"/>
<path d="M172.548 47.7081C172.548 47.7081 168.659 54.5196 167.635 55.7872C167.041 56.5108 166.516 57.276 166.063 58.0752L162.651 59.2219L164.015 61.1522C164.015 61.1522 157.125 72.0506 155.351 75.6799C153.576 79.3092 151.778 83.2172 151.778 83.2172" stroke="white" stroke-width="0.75" stroke-linecap="round" stroke-linejoin="round"/>
<path d="M144.507 78.3992C144.382 79.6037 144.358 80.0824 144.358 80.0824" stroke="white" stroke-width="0.75" stroke-linecap="round" stroke-linejoin="round"/>
<path d="M152.963 52.7102L149.14 57.8964L150.027 59.1009L147.907 61.3942C147.907 61.3942 145.657 69.6521 145.043 74.1124C144.924 74.9803 144.823 75.7377 144.745 76.3952" stroke="white" stroke-width="0.75" stroke-linecap="round" stroke-linejoin="round"/>
<path d="M153.713 50.48L152.963 53.6727L156.851 51.3847L153.713 50.48Z" fill="white" stroke="#263238" stroke-width="0.75" stroke-linecap="round" stroke-linejoin="round"/>
<path d="M156.988 47.95C156.917 48.1289 153.713 50.48 153.713 50.48L157.328 51.8055L158.078 49.2124L156.988 47.95Z" fill="white" stroke="#263238" stroke-width="0.75" stroke-linecap="round" stroke-linejoin="round"/>
<path d="M155.69 23.8916C154.149 24.7393 152.935 25.9788 152.207 27.4472C150.98 29.9194 150.027 30.945 150.301 31.7287C150.498 32.2589 150.633 32.8052 150.706 33.3593C150.706 33.5381 147.842 35.9524 147.77 36.673C147.699 37.3936 149.616 38.7243 149.616 38.7243C149.616 38.7243 149.819 42.8848 149.819 43.2478C149.819 43.6107 149.956 45.4779 151.939 45.9566C153.287 46.2313 154.691 46.2114 156.029 45.8987L157.328 51.8055C157.328 51.8055 166.408 46.8613 167.361 46.4405C168.314 46.0197 169.475 45.4779 169.547 44.8152C169.618 44.1525 168.999 40.4706 168.999 40.4706C168.999 40.4706 173.846 36.552 173.762 31.9707C173.679 27.3894 170.916 24.4965 165.861 23.1342C160.805 21.7719 155.69 23.8916 155.69 23.8916Z" fill="white" stroke="#263238" stroke-width="0.75" stroke-linecap="round" stroke-linejoin="round"/>
<path d="M173.774 31.9707C173.709 27.3894 170.91 24.4965 165.861 23.1079C160.811 21.7193 155.69 23.8916 155.69 23.8916C155.291 24.1028 154.916 24.3476 154.571 24.6227C156.238 24.3597 158.983 24.1756 160.948 25.2802C163.925 26.9686 162.038 28.657 161.013 29.5617C159.989 30.4664 159.787 30.824 160.537 31.6656C161.287 32.5072 162.722 32.5072 162.377 33.2909C162.032 34.0746 161.014 35.1634 161.835 35.4632C162.657 35.763 163.401 35.1003 163.747 34.1956C164.092 33.2909 165.789 33.2909 166.474 35.1634C166.722 35.8675 166.717 36.6222 166.46 37.3238C166.203 38.0254 165.707 38.6396 165.039 39.082C164.489 39.4418 163.809 39.6119 163.127 39.5606C164.3 40.0865 165.537 40.4924 166.813 40.7704C167.554 40.8251 168.3 40.7736 169.023 40.6178C169.023 40.5232 169.023 40.4653 169.023 40.4653C169.023 40.4653 173.846 36.552 173.774 31.9707Z" fill="#263238" stroke="#263238" stroke-width="0.75" stroke-linecap="round" stroke-linejoin="round"/>
<path d="M153.916 34.3218C153.916 34.79 153.749 35.1687 153.54 35.1687C153.332 35.1687 153.165 34.79 153.165 34.3218C153.165 33.8537 153.332 33.4803 153.54 33.4803C153.749 33.4803 153.916 33.859 153.916 34.3218Z" fill="black"/>
<path d="M152.141 31.7919C152.141 31.7919 152.415 30.945 153.928 31.0082C155.44 31.0713 155.5 32.0338 155.5 32.0338" fill="white"/>
<path d="M152.141 31.7919C152.141 31.7919 152.415 30.945 153.928 31.0082C155.44 31.0713 155.5 32.0338 155.5 32.0338" stroke="#263238" stroke-width="0.75" stroke-linecap="round" stroke-linejoin="round"/>
<path d="M149.616 38.7243C150.033 38.8574 150.481 38.8996 150.92 38.8474C151.36 38.7952 151.779 38.6502 152.141 38.4245C153.231 37.6408 152.344 36.9728 152.344 36.9728" fill="white"/>
<path d="M149.616 38.7243C150.033 38.8574 150.481 38.8996 150.92 38.8474C151.36 38.7952 151.779 38.6502 152.141 38.4245C153.231 37.6408 152.344 36.9728 152.344 36.9728" stroke="#263238" stroke-width="0.75" stroke-linecap="round" stroke-linejoin="round"/>
<path d="M149.89 39.6869C149.89 39.6869 153.505 38.1089 155.142 38.0616C156.78 38.0142 158.489 40.4916 157.816 42.5956C157.143 44.6995 156.387 45.7515 154.064 46.5772C151.742 47.403 149.557 47.24 149.152 45.8514C148.747 44.4628 150.581 42.4798 151.468 42.1169C152.355 41.754 153.04 41.6961 152.903 42.3589C152.766 43.0216 152.356 43.5002 154.064 43.2004C155.773 42.9006 156.726 42.4798 156.792 40.8493C156.857 39.2187 156.196 38.6191 154.41 38.8611C152.623 39.103 149.974 40.3654 149.974 40.3654L149.89 39.6869Z" fill="#263238" stroke="#263238" stroke-width="0.75" stroke-linecap="round" stroke-linejoin="round"/>
<path d="M151.319 40.9545C151.319 40.9545 154.189 40.8335 155.214 39.8079L151.319 40.9545Z" fill="white"/>
<path d="M151.319 40.9545C151.319 40.9545 154.189 40.8335 155.214 39.8079" stroke="#263238" stroke-width="0.75" stroke-linecap="round" stroke-linejoin="round"/>
<path d="M162.86 39.508C162.864 40.003 162.743 40.4926 162.506 40.9412C162.269 41.3897 161.922 41.786 161.49 42.1011" fill="white"/>
<path d="M162.86 39.508C162.864 40.003 162.743 40.4926 162.506 40.9412C162.269 41.3897 161.922 41.786 161.49 42.1011" stroke="#263238" stroke-width="0.75" stroke-linecap="round" stroke-linejoin="round"/>
<path d="M157.328 51.8055L159.311 55.8451C159.311 55.8451 166.813 50.9008 168.659 48.9705C170.505 47.0401 171.934 46.0776 170.91 44.7626C169.886 43.4476 168.385 44.5206 168.112 44.6416C167.838 44.7626 157.328 51.8055 157.328 51.8055Z" fill="white" stroke="#263238" stroke-width="0.75" stroke-linecap="round" stroke-linejoin="round"/>
<path d="M142.334 87.4356C141.484 84.9933 140.802 82.5079 140.291 79.9929C139.88 77.6839 139.696 75.3327 139.696 75.3327C136.399 75.0673 133.176 74.3134 130.162 73.1026C125.661 71.1775 124.702 70.4727 124.702 70.4727C124.702 70.4727 130.776 87.9563 132.008 91.6329C133.241 95.3096 133.509 96.0933 133.509 96.0933C135.457 96.9456 137.52 97.5749 139.648 97.9658C141.338 98.2442 143.051 98.4042 144.769 98.4444L142.334 87.4356Z" fill="white" stroke="#263238" stroke-width="0.75" stroke-linecap="round" stroke-linejoin="round"/>
<path d="M149.14 87.4356C147.696 87.1986 146.295 86.7935 144.972 86.2311C143.979 85.7226 142.896 85.3669 141.768 85.1791H141.494L142.31 87.4093C141.303 87.606 140.275 87.7083 139.243 87.7144C137.606 87.7144 134.188 87.2305 134.057 87.4093C133.93 87.8416 133.884 88.2893 133.92 88.7348C133.92 89.1608 136.373 91.7539 137.808 92.6586C139.243 93.5633 140.536 94.1629 141.834 94.1629C143.132 94.1629 150.093 93.3214 150.093 93.3214L149.14 87.4356Z" fill="white" stroke="#263238" stroke-width="0.75" stroke-linecap="round" stroke-linejoin="round"/>
<path d="M168.999 63.9242C168.999 63.9242 169.338 70.6778 169.547 75.5589C169.755 80.44 170.094 80.8661 170.094 80.8661C170.094 80.8661 154.803 85.9313 152.48 86.3521C150.158 86.7729 148.39 87.2568 148.39 87.2568L149.414 93.8263C154.418 94.1993 159.457 93.7915 164.3 92.6218C171.744 90.6914 183.207 88.7611 183.415 87.8616C183.623 86.9622 183.415 84.2429 183.415 83.6538C183.415 83.0647 183.207 70.0887 183.207 64.3029C183.207 58.5171 183.683 57.1863 182.867 55.9818C182.051 54.7773 177.883 54.1725 175.495 55.377" fill="#263238"/>
<path d="M168.999 63.9242C168.999 63.9242 169.338 70.6778 169.547 75.5589C169.755 80.44 170.094 80.8661 170.094 80.8661C170.094 80.8661 154.803 85.9313 152.48 86.3521C150.158 86.7729 148.39 87.2568 148.39 87.2568L149.414 93.8263C154.418 94.1993 159.457 93.7915 164.3 92.6218C171.744 90.6914 183.207 88.7611 183.415 87.8616C183.623 86.9622 183.415 84.2429 183.415 83.6538C183.415 83.0647 183.207 70.0887 183.207 64.3029C183.207 58.5171 183.683 57.1863 182.867 55.9818C182.051 54.7773 177.883 54.1725 175.495 55.377" stroke="#263238" stroke-width="0.75" stroke-linecap="round" stroke-linejoin="round"/>
<path d="M157.453 84.7425L170.094 80.866L168.975 65.986" stroke="white" stroke-width="0.75" stroke-linecap="round" stroke-linejoin="round"/>
<path d="M153.904 85.8314L155.732 85.2738" stroke="white" stroke-width="0.75" stroke-linecap="round" stroke-linejoin="round"/>
<path d="M173.358 58.4855C173.358 58.4855 178.121 53.2257 182.855 55.966" stroke="white" stroke-width="0.75" stroke-linecap="round" stroke-linejoin="round"/>
<path d="M134.188 88.0405C134.188 88.0405 137.332 89.9077 139.446 90.2128" stroke="#263238" stroke-width="0.75" stroke-linecap="round" stroke-linejoin="round"/>
<path d="M134.736 89.8499C135.662 90.5702 136.724 91.1416 137.874 91.5383L139.309 91.8959" stroke="#263238" stroke-width="0.75" stroke-linecap="round" stroke-linejoin="round"/>
<path d="M138.166 92.8637C138.978 93.1266 139.828 93.2895 140.69 93.3476" stroke="#263238" stroke-width="0.75" stroke-linecap="round" stroke-linejoin="round"/>
<path d="M80.2029 70.2885C80.2029 70.2885 79.2621 61.7939 78.1545 55.8082C77.5591 52.4998 75.2904 49.6805 72.9204 47.1558C70.9613 45.0519 68.0019 43.1268 66.3703 40.8914C65.8046 40.1234 62.8392 45.6778 62.8332 45.6831C62.2378 46.8665 69.294 50.6168 70.2468 51.4689C71.4972 52.5734 72.6286 53.8779 73.766 55.0666C74.284 55.5926 75.6476 57.5966 76.4277 57.7649L77.6901 58.0437L76.7433 60.5526L80.2029 70.2885Z" fill="#283891" stroke="#263238" stroke-width="0.75" stroke-linecap="round" stroke-linejoin="round"/>
</svg>
