<svg width="207" height="129" viewBox="0 0 207 129" fill="none" xmlns="http://www.w3.org/2000/svg">
<path d="M195.578 0H11.2505C5.03703 0 0 5.03703 0 11.2505V117.013C0 123.227 5.03703 128.264 11.2505 128.264H195.578C201.792 128.264 206.829 123.227 206.829 117.013V11.2505C206.829 5.03703 201.792 0 195.578 0Z" fill="#283891"/>
<path d="M108.278 73.7094C124.999 71.0223 136.375 55.2894 133.688 38.569C131.001 21.8486 115.268 10.4725 98.5473 13.1596C81.8269 15.8468 70.4507 31.5797 73.1379 48.3C75.825 65.0204 91.558 76.3966 108.278 73.7094Z" fill="#263238"/>
<path d="M103.181 49.1031L92.9633 62.2205C92.6159 62.7665 92.1381 63.2176 91.5731 63.533C91.008 63.8485 90.3733 64.0185 89.7262 64.0277C88.8385 64.0398 87.9819 63.7008 87.343 63.0844C87.0182 62.7864 86.7613 62.422 86.59 62.0159C86.4186 61.6098 86.3368 61.1716 86.35 60.731C86.3821 59.7443 86.7301 58.794 87.343 58.0201L98.9907 43.6119L88.0679 29.1938C87.5603 28.5171 87.282 27.6961 87.2735 26.8503C87.2709 26.3459 87.3728 25.8464 87.5728 25.3832C87.7727 24.9201 88.0664 24.5034 88.4353 24.1593C88.7817 23.7976 89.198 23.5099 89.6588 23.3136C90.1196 23.1173 90.6155 23.0166 91.1163 23.0174C91.7578 23.0278 92.3864 23.1986 92.9449 23.5143C93.5034 23.83 93.974 24.2805 94.3138 24.8246L104.184 37.8228L114.114 25.0431C114.469 24.4469 114.965 23.9474 115.559 23.5889C116.154 23.2303 116.827 23.0238 117.52 22.9876C117.95 22.9866 118.376 23.0742 118.77 23.245C119.165 23.4159 119.52 23.6663 119.814 23.9806C120.127 24.2752 120.376 24.6306 120.547 25.0251C120.717 25.4195 120.806 25.8446 120.807 26.2744C120.796 27.0435 120.531 27.7874 120.052 28.3895L108.364 43.3438L119.655 58.2386C120.188 58.9044 120.485 59.7288 120.499 60.582C120.502 61.0754 120.398 61.5635 120.194 62.0127C119.99 62.462 119.691 62.8615 119.317 63.1837C118.589 63.8843 117.617 64.2757 116.606 64.2759C115.962 64.2679 115.329 64.0983 114.767 63.7826C114.205 63.4668 113.731 63.0151 113.389 62.4687L103.181 49.1031Z" fill="white"/>
<path d="M161.837 106.051H44.9524C42.5822 106.051 40.3091 105.109 38.6331 103.433C36.9571 101.757 36.0156 99.4841 36.0156 97.1139C36.0156 94.7437 36.9571 92.4706 38.6331 90.7946C40.3091 89.1186 42.5822 88.1771 44.9524 88.1771H161.837C164.207 88.1771 166.48 89.1186 168.156 90.7946C169.832 92.4706 170.774 94.7437 170.774 97.1139C170.774 99.4841 169.832 101.757 168.156 103.433C166.48 105.109 164.207 106.051 161.837 106.051Z" fill="white"/>
<path d="M60.9693 99.9936C60.8913 99.9936 60.8141 99.9778 60.7424 99.9471C60.6707 99.9163 60.606 99.8714 60.5523 99.8149C60.4935 99.7566 60.4473 99.6868 60.4166 99.61C60.3859 99.5331 60.3712 99.4508 60.3735 99.368C60.3734 99.2282 60.4111 99.091 60.4827 98.9708L61.3764 97.5807H59.5493C59.4649 97.585 59.3805 97.5713 59.3017 97.5405C59.2229 97.5097 59.1517 97.4624 59.0926 97.4019C58.9905 97.2831 58.9344 97.1316 58.9344 96.9749C58.9344 96.8183 58.9905 96.6668 59.0926 96.548C59.1517 96.4874 59.2229 96.4402 59.3017 96.4094C59.3805 96.3786 59.4649 96.3649 59.5493 96.3692L61.3466 96.4189L60.5523 95.128C60.4726 94.9958 60.4282 94.8453 60.4232 94.6911C60.4208 94.6083 60.4355 94.526 60.4663 94.4491C60.497 94.3723 60.5432 94.3026 60.6019 94.2442C60.6576 94.1875 60.724 94.1424 60.7973 94.1117C60.8707 94.081 60.9494 94.0653 61.0289 94.0655C61.1401 94.0638 61.2493 94.095 61.3429 94.155C61.4365 94.2151 61.5103 94.3014 61.5552 94.4031L62.429 95.9621L63.2631 94.4726C63.3156 94.3567 63.399 94.2575 63.504 94.1857C63.6091 94.1139 63.7318 94.0723 63.8589 94.0655C63.9369 94.0655 64.0141 94.0813 64.0858 94.1121C64.1575 94.1428 64.2222 94.1878 64.2759 94.2442C64.3341 94.2988 64.3802 94.365 64.411 94.4386C64.4418 94.5122 64.4567 94.5915 64.4547 94.6712C64.4534 94.8122 64.412 94.95 64.3355 95.0684L63.4617 96.4685L65.2789 96.4189C65.3634 96.4139 65.448 96.4273 65.5269 96.4581C65.6057 96.489 65.6769 96.5366 65.7356 96.5976C65.8377 96.7165 65.8938 96.8679 65.8938 97.0246C65.8938 97.1813 65.8377 97.3327 65.7356 97.4516C65.6769 97.5126 65.6057 97.5602 65.5269 97.591C65.448 97.6219 65.3634 97.6353 65.2789 97.6303H63.4418L64.2561 98.9013C64.3479 99.0548 64.3992 99.229 64.405 99.4078C64.4079 99.4882 64.3944 99.5684 64.3654 99.6435C64.3364 99.7186 64.2924 99.787 64.2362 99.8447C64.184 99.9004 64.1209 99.945 64.051 99.9757C63.981 100.006 63.9055 100.023 63.8291 100.023C63.7062 100.02 63.5867 99.9824 63.4847 99.9138C63.3826 99.8452 63.3023 99.7488 63.2532 99.6361L62.429 98.1764L61.6048 99.6361C61.5452 99.7511 61.4533 99.8462 61.3404 99.9097C61.2275 99.9732 61.0985 100.002 60.9693 99.9936Z" fill="black"/>
<path d="M70.0849 99.9936C70.0069 99.9936 69.9297 99.9777 69.858 99.947C69.7863 99.9163 69.7216 99.8713 69.6678 99.8149C69.6091 99.7565 69.5629 99.6868 69.5322 99.6099C69.5015 99.5331 69.4868 99.4508 69.4891 99.368C69.489 99.2282 69.5267 99.0909 69.5983 98.9708L70.492 97.5806H68.6649C68.5805 97.585 68.4961 97.5713 68.4173 97.5405C68.3386 97.5096 68.2673 97.4624 68.2082 97.4019C68.1061 97.283 68.05 97.1316 68.05 96.9749C68.05 96.8183 68.1061 96.6668 68.2082 96.5479C68.2673 96.4874 68.3386 96.4402 68.4173 96.4094C68.4961 96.3786 68.5805 96.3649 68.6649 96.3692L70.4622 96.4188L69.6182 95.0783C69.5386 94.9461 69.4941 94.7957 69.4891 94.6414C69.4868 94.5587 69.5015 94.4763 69.5322 94.3995C69.5629 94.3226 69.6091 94.2529 69.6678 94.1946C69.7235 94.1378 69.7899 94.0927 69.8633 94.062C69.9366 94.0313 70.0153 94.0156 70.0948 94.0158C70.206 94.0142 70.3152 94.0453 70.4088 94.1054C70.5024 94.1654 70.5763 94.2517 70.6211 94.3534L71.495 95.9124L72.3291 94.4229C72.3816 94.307 72.4649 94.2078 72.57 94.136C72.675 94.0642 72.7978 94.0226 72.9249 94.0158C73.0028 94.0158 73.08 94.0317 73.1517 94.0624C73.2234 94.0931 73.2881 94.1381 73.3419 94.1946C73.4001 94.2491 73.4461 94.3154 73.4769 94.3889C73.5077 94.4625 73.5226 94.5418 73.5206 94.6215C73.5193 94.7625 73.478 94.9003 73.4015 95.0187L72.5276 96.4188L74.3448 96.3692C74.4293 96.3642 74.5139 96.3776 74.5928 96.4085C74.6717 96.4393 74.7429 96.4869 74.8016 96.5479C74.9037 96.6668 74.9598 96.8183 74.9598 96.9749C74.9598 97.1316 74.9037 97.283 74.8016 97.4019C74.7429 97.4629 74.6717 97.5105 74.5928 97.5414C74.5139 97.5722 74.4293 97.5856 74.3448 97.5806H72.5078L73.322 98.8517C73.4139 99.0051 73.4652 99.1794 73.471 99.3581C73.4738 99.4385 73.4603 99.5187 73.4313 99.5938C73.4023 99.6689 73.3584 99.7373 73.3022 99.795C73.2499 99.8507 73.1869 99.8953 73.1169 99.926C73.0469 99.9567 72.9715 99.973 72.895 99.9737C72.7718 99.972 72.6518 99.9344 72.5496 99.8657C72.4473 99.7969 72.3672 99.6999 72.3191 99.5865L71.495 98.1268L70.6708 99.5865C70.6219 99.7029 70.5408 99.8031 70.437 99.8752C70.3333 99.9473 70.2111 99.9884 70.0849 99.9936Z" fill="black"/>
<path d="M79.2003 99.9936C79.1223 99.9936 79.0452 99.9777 78.9735 99.947C78.9018 99.9163 78.8371 99.8713 78.7833 99.8149C78.7245 99.7565 78.6784 99.6868 78.6476 99.6099C78.6169 99.5331 78.6022 99.4508 78.6045 99.368C78.6044 99.2282 78.6422 99.0909 78.7138 98.9708L79.6075 97.5806H77.7804C77.6959 97.585 77.6115 97.5713 77.5327 97.5405C77.454 97.5096 77.3827 97.4624 77.3236 97.4019C77.2215 97.283 77.1654 97.1316 77.1654 96.9749C77.1654 96.8183 77.2215 96.6668 77.3236 96.5479C77.3827 96.4874 77.454 96.4402 77.5327 96.4094C77.6115 96.3786 77.6959 96.3649 77.7804 96.3692L79.5777 96.4188L78.7336 95.0783C78.654 94.9461 78.6095 94.7957 78.6045 94.6414C78.6022 94.5587 78.6169 94.4763 78.6476 94.3995C78.6784 94.3226 78.7245 94.2529 78.7833 94.1946C78.8389 94.1378 78.9054 94.0927 78.9787 94.062C79.052 94.0313 79.1308 94.0156 79.2103 94.0158C79.3214 94.0142 79.4307 94.0453 79.5243 94.1054C79.6179 94.1654 79.6917 94.2517 79.7366 94.3534L80.6104 95.9124L81.4445 94.4229C81.497 94.307 81.5803 94.2078 81.6854 94.136C81.7905 94.0642 81.9132 94.0226 82.0403 94.0158C82.1183 94.0158 82.1954 94.0317 82.2671 94.0624C82.3388 94.0931 82.4035 94.1381 82.4573 94.1946C82.5155 94.2491 82.5615 94.3154 82.5923 94.3889C82.6231 94.4625 82.638 94.5418 82.6361 94.6215C82.6348 94.7625 82.5934 94.9003 82.5169 95.0187L81.6431 96.4188L83.4602 96.3692C83.5448 96.3642 83.6294 96.3776 83.7082 96.4085C83.7871 96.4393 83.8583 96.4869 83.917 96.5479C84.0191 96.6668 84.0752 96.8183 84.0752 96.9749C84.0752 97.1316 84.0191 97.283 83.917 97.4019C83.8583 97.4629 83.7871 97.5105 83.7082 97.5414C83.6294 97.5722 83.5448 97.5856 83.4602 97.5806H81.6232L82.4375 98.8517C82.5293 99.0051 82.5806 99.1794 82.5864 99.3581C82.5893 99.4385 82.5758 99.5187 82.5467 99.5938C82.5177 99.6689 82.4738 99.7373 82.4176 99.795C82.3653 99.8507 82.3023 99.8953 82.2323 99.926C82.1624 99.9567 82.0869 99.973 82.0105 99.9737C81.8873 99.972 81.7672 99.9344 81.665 99.8657C81.5627 99.7969 81.4827 99.6999 81.4345 99.5865L80.6104 98.1268L79.7862 99.5865C79.7373 99.7029 79.6562 99.8031 79.5524 99.8752C79.4487 99.9473 79.3266 99.9884 79.2003 99.9936Z" fill="black"/>
<path d="M88.3559 99.9936C88.278 99.9936 88.2008 99.9777 88.1291 99.947C88.0574 99.9163 87.9927 99.8713 87.9389 99.8149C87.8802 99.7565 87.834 99.6868 87.8032 99.6099C87.7725 99.5331 87.7578 99.4508 87.7602 99.368C87.76 99.2282 87.7978 99.0909 87.8694 98.9708L88.7631 97.5806H86.936C86.8515 97.585 86.7671 97.5713 86.6883 97.5405C86.6096 97.5096 86.5383 97.4624 86.4792 97.4019C86.3771 97.283 86.321 97.1316 86.321 96.9749C86.321 96.8183 86.3771 96.6668 86.4792 96.5479C86.5383 96.4874 86.6096 96.4402 86.6883 96.4094C86.7671 96.3786 86.8515 96.3649 86.936 96.3692L88.7333 96.4188L87.8892 95.0783C87.8096 94.9461 87.7652 94.7957 87.7602 94.6414C87.7578 94.5587 87.7725 94.4763 87.8032 94.3995C87.834 94.3226 87.8802 94.2529 87.9389 94.1946C87.9945 94.1378 88.061 94.0927 88.1343 94.062C88.2077 94.0313 88.2864 94.0156 88.3659 94.0158C88.4771 94.0142 88.5863 94.0453 88.6799 94.1054C88.7735 94.1654 88.8473 94.2517 88.8922 94.3534L89.766 95.9124L90.6001 94.4229C90.6526 94.307 90.736 94.2078 90.841 94.136C90.9461 94.0642 91.0688 94.0226 91.1959 94.0158C91.2739 94.0158 91.3511 94.0317 91.4228 94.0624C91.4944 94.0931 91.5591 94.1381 91.6129 94.1946C91.6711 94.2491 91.7172 94.3154 91.748 94.3889C91.7788 94.4625 91.7937 94.5418 91.7917 94.6215C91.7904 94.7625 91.749 94.9003 91.6725 95.0187L90.7987 96.4188L92.6158 96.3692C92.7004 96.3642 92.785 96.3776 92.8639 96.4085C92.9427 96.4393 93.0139 96.4869 93.0726 96.5479C93.1747 96.6668 93.2308 96.8183 93.2308 96.9749C93.2308 97.1316 93.1747 97.283 93.0726 97.4019C93.0139 97.4629 92.9427 97.5105 92.8639 97.5414C92.785 97.5722 92.7004 97.5856 92.6158 97.5806H90.7788L91.5931 98.8517C91.6849 99.0051 91.7362 99.1794 91.742 99.3581C91.7449 99.4385 91.7314 99.5187 91.7024 99.5938C91.6733 99.6689 91.6294 99.7373 91.5732 99.795C91.5209 99.8507 91.4579 99.8953 91.3879 99.926C91.318 99.9567 91.2425 99.973 91.1661 99.9737C91.0432 99.9707 90.9237 99.9327 90.8217 99.8641C90.7196 99.7955 90.6393 99.6992 90.5902 99.5865L89.766 98.1268L88.9418 99.5865C88.8929 99.7029 88.8118 99.8031 88.7081 99.8752C88.6043 99.9473 88.4822 99.9884 88.3559 99.9936Z" fill="black"/>
<path d="M97.4317 99.9936C97.3537 99.9936 97.2766 99.9778 97.2049 99.947C97.1332 99.9163 97.0685 99.8713 97.0147 99.8149C96.9559 99.7565 96.9098 99.6868 96.879 99.6099C96.8483 99.5331 96.8336 99.4508 96.8359 99.368C96.8405 99.2289 96.878 99.0928 96.9452 98.9708L97.8389 97.5806H96.0118C95.9273 97.585 95.8429 97.5713 95.7641 97.5405C95.6854 97.5096 95.6141 97.4624 95.555 97.4019C95.4529 97.283 95.3968 97.1316 95.3968 96.9749C95.3968 96.8183 95.4529 96.6668 95.555 96.5479C95.6141 96.4874 95.6854 96.4402 95.7641 96.4094C95.8429 96.3786 95.9273 96.3649 96.0118 96.3692L97.8091 96.4188L96.965 95.0783C96.8854 94.9461 96.8409 94.7957 96.8359 94.6414C96.8336 94.5587 96.8483 94.4763 96.879 94.3995C96.9098 94.3226 96.9559 94.2529 97.0147 94.1946C97.0703 94.1378 97.1368 94.0927 97.2101 94.062C97.2834 94.0313 97.3622 94.0156 97.4417 94.0158C97.5528 94.0142 97.6621 94.0453 97.7557 94.1054C97.8493 94.1654 97.9231 94.2517 97.9679 94.3534L98.8418 95.9124L99.6759 94.4229C99.7284 94.307 99.8117 94.2078 99.9168 94.136C100.022 94.0642 100.145 94.0226 100.272 94.0158C100.35 94.0146 100.427 94.0299 100.499 94.0607C100.571 94.0915 100.636 94.1371 100.689 94.1946C100.747 94.2491 100.793 94.3154 100.824 94.3889C100.855 94.4625 100.869 94.5418 100.867 94.6215C100.866 94.7625 100.825 94.9003 100.748 95.0187L99.8745 96.4188L101.692 96.3692C101.776 96.3642 101.861 96.3776 101.94 96.4085C102.018 96.4393 102.09 96.4869 102.148 96.5479C102.25 96.6668 102.307 96.8183 102.307 96.9749C102.307 97.1316 102.25 97.283 102.148 97.4019C102.09 97.4629 102.018 97.5105 101.94 97.5414C101.861 97.5722 101.776 97.5856 101.692 97.5806H99.8546L100.669 98.8517C100.761 99.0051 100.812 99.1794 100.818 99.3581C100.821 99.4385 100.807 99.5187 100.778 99.5938C100.749 99.6689 100.705 99.7373 100.649 99.795C100.597 99.8507 100.534 99.8953 100.464 99.926C100.394 99.9567 100.318 99.973 100.242 99.9737C100.119 99.9707 99.9995 99.9327 99.8974 99.8641C99.7954 99.7955 99.7151 99.6992 99.6659 99.5865L98.8418 98.1268L98.0176 99.5865C97.9687 99.7029 97.8876 99.8031 97.7838 99.8752C97.6801 99.9473 97.558 99.9884 97.4317 99.9936Z" fill="black"/>
<path d="M106.547 99.9936C106.469 99.9936 106.392 99.9778 106.32 99.947C106.249 99.9163 106.184 99.8713 106.13 99.8149C106.072 99.7565 106.025 99.6868 105.995 99.6099C105.964 99.5331 105.949 99.4508 105.952 99.368C105.956 99.2289 105.994 99.0928 106.061 98.9708L106.954 97.5806H105.137C105.051 97.5858 104.965 97.5725 104.885 97.5416C104.804 97.5108 104.731 97.4632 104.671 97.4019C104.569 97.283 104.512 97.1316 104.512 96.9749C104.512 96.8183 104.569 96.6668 104.671 96.5479C104.731 96.4866 104.804 96.439 104.885 96.4082C104.965 96.3774 105.051 96.3641 105.137 96.3692L106.925 96.4188L106.081 95.0783C106.001 94.9461 105.957 94.7957 105.952 94.6414C105.949 94.5587 105.964 94.4763 105.995 94.3995C106.025 94.3226 106.072 94.2529 106.13 94.1946C106.186 94.1378 106.252 94.0927 106.326 94.062C106.399 94.0313 106.478 94.0156 106.557 94.0158C106.668 94.0142 106.778 94.0453 106.871 94.1054C106.965 94.1654 107.039 94.2517 107.084 94.3534L107.957 95.9124L108.791 94.4229C108.844 94.307 108.927 94.2078 109.032 94.136C109.137 94.0642 109.26 94.0226 109.387 94.0158C109.465 94.0146 109.543 94.0299 109.615 94.0607C109.687 94.0915 109.751 94.1371 109.804 94.1946C109.863 94.2491 109.909 94.3154 109.939 94.3889C109.97 94.4625 109.985 94.5418 109.983 94.6215C109.982 94.7625 109.94 94.9003 109.864 95.0187L108.99 96.4188L110.807 96.3692C110.892 96.3642 110.976 96.3776 111.055 96.4085C111.134 96.4393 111.205 96.4869 111.264 96.5479C111.366 96.6668 111.422 96.8183 111.422 96.9749C111.422 97.1316 111.366 97.283 111.264 97.4019C111.205 97.4629 111.134 97.5105 111.055 97.5414C110.976 97.5722 110.892 97.5856 110.807 97.5806H108.97L109.784 98.8517C109.876 99.0051 109.928 99.1794 109.933 99.3581C109.936 99.4385 109.923 99.5187 109.894 99.5938C109.865 99.6689 109.821 99.7373 109.765 99.795C109.712 99.8507 109.649 99.8953 109.579 99.926C109.509 99.9567 109.434 99.973 109.357 99.9737C109.235 99.9707 109.115 99.9327 109.013 99.8641C108.911 99.7955 108.831 99.6992 108.782 99.5865L107.957 98.1268L107.133 99.5865C107.084 99.7029 107.003 99.8031 106.899 99.8752C106.796 99.9473 106.674 99.9884 106.547 99.9936Z" fill="black"/>
<path d="M115.663 99.9936C115.585 99.9936 115.508 99.9778 115.436 99.9471C115.364 99.9163 115.3 99.8714 115.246 99.8149C115.187 99.7566 115.141 99.6868 115.11 99.61C115.079 99.5331 115.065 99.4508 115.067 99.368C115.067 99.2282 115.105 99.091 115.176 98.9708L116.07 97.5807H114.243C114.159 97.585 114.074 97.5713 113.995 97.5405C113.917 97.5097 113.845 97.4624 113.786 97.4019C113.684 97.2831 113.628 97.1316 113.628 96.9749C113.628 96.8183 113.684 96.6668 113.786 96.548C113.845 96.4875 113.917 96.4402 113.995 96.4094C114.074 96.3786 114.159 96.3649 114.243 96.3692L116.04 96.4189L115.166 95.128C115.087 94.9958 115.042 94.8454 115.037 94.6911C115.035 94.6083 115.05 94.526 115.08 94.4491C115.111 94.3723 115.157 94.3026 115.216 94.2442C115.272 94.1875 115.338 94.1424 115.412 94.1117C115.485 94.081 115.564 94.0653 115.643 94.0655C115.754 94.0638 115.863 94.095 115.957 94.155C116.051 94.2151 116.125 94.3014 116.169 94.4031L117.043 95.9621L117.877 94.4726C117.93 94.3567 118.013 94.2575 118.118 94.1857C118.223 94.1139 118.346 94.0723 118.473 94.0655C118.551 94.0643 118.629 94.0796 118.701 94.1104C118.773 94.1412 118.837 94.1868 118.89 94.2442C118.948 94.2988 118.994 94.365 119.025 94.4386C119.056 94.5122 119.071 94.5915 119.069 94.6712C119.068 94.8122 119.026 94.95 118.95 95.0684L118.076 96.4685L119.893 96.4189C119.978 96.4139 120.062 96.4273 120.141 96.4581C120.22 96.489 120.291 96.5366 120.35 96.5976C120.452 96.7165 120.508 96.8679 120.508 97.0246C120.508 97.1813 120.452 97.3327 120.35 97.4516C120.291 97.5126 120.22 97.5602 120.141 97.5911C120.062 97.6219 119.978 97.6353 119.893 97.6303H118.056L118.87 98.9013C118.962 99.0548 119.013 99.229 119.019 99.4078C119.022 99.4882 119.009 99.5684 118.98 99.6435C118.951 99.7186 118.907 99.787 118.85 99.8447C118.798 99.9004 118.735 99.945 118.665 99.9757C118.595 100.006 118.52 100.023 118.443 100.023C118.32 100.02 118.201 99.9824 118.099 99.9138C117.997 99.8452 117.917 99.7488 117.867 99.6361L117.043 98.1765L116.219 99.6361C116.166 99.739 116.086 99.8261 115.989 99.8888C115.891 99.9515 115.779 99.9877 115.663 99.9936Z" fill="black"/>
<path d="M124.778 99.9936C124.7 99.9936 124.623 99.9778 124.552 99.9471C124.48 99.9163 124.415 99.8714 124.361 99.8149C124.303 99.7566 124.256 99.6868 124.226 99.61C124.195 99.5331 124.18 99.4508 124.183 99.368C124.187 99.2289 124.225 99.0928 124.292 98.9708L125.186 97.5807H123.368C123.284 97.587 123.199 97.5743 123.12 97.5433C123.041 97.5124 122.969 97.4641 122.912 97.4019C122.803 97.2861 122.743 97.1335 122.743 96.9749C122.743 96.8164 122.803 96.6638 122.912 96.548C122.969 96.4858 123.041 96.4375 123.12 96.4065C123.199 96.3756 123.284 96.3628 123.368 96.3692L125.156 96.4189L124.312 95.0783C124.232 94.9461 124.188 94.7957 124.183 94.6414C124.18 94.5602 124.194 94.4793 124.223 94.4035C124.252 94.3277 124.296 94.2586 124.353 94.2002C124.409 94.1419 124.477 94.0955 124.552 94.0638C124.627 94.0321 124.707 94.0158 124.788 94.0158C124.9 94.0142 125.009 94.0453 125.102 94.1054C125.196 94.1654 125.27 94.2517 125.315 94.3535L126.188 95.9124L127.023 94.423C127.075 94.3071 127.158 94.2078 127.264 94.136C127.369 94.0642 127.491 94.0227 127.618 94.0158C127.697 94.0133 127.775 94.028 127.847 94.0589C127.919 94.0898 127.983 94.1361 128.035 94.1946C128.094 94.2491 128.14 94.3154 128.17 94.389C128.201 94.4626 128.216 94.5418 128.214 94.6216C128.213 94.7626 128.172 94.9003 128.095 95.0188L127.221 96.4189L129.038 96.3692C129.123 96.3642 129.208 96.3776 129.286 96.4085C129.365 96.4393 129.436 96.4869 129.495 96.548C129.597 96.6668 129.653 96.8183 129.653 96.9749C129.653 97.1316 129.597 97.2831 129.495 97.4019C129.436 97.463 129.365 97.5105 129.286 97.5414C129.208 97.5722 129.123 97.5857 129.038 97.5807H127.201L128.016 98.8517C128.107 99.0051 128.159 99.1794 128.165 99.3581C128.167 99.4364 128.154 99.5144 128.127 99.5877C128.099 99.661 128.058 99.7281 128.004 99.7853C127.951 99.8425 127.886 99.8885 127.815 99.9209C127.744 99.9532 127.667 99.9712 127.589 99.9737C127.466 99.9708 127.346 99.9327 127.244 99.8641C127.142 99.7955 127.062 99.6992 127.013 99.5865L126.188 98.1268L125.364 99.5865C125.315 99.703 125.234 99.8031 125.131 99.8752C125.027 99.9473 124.905 99.9884 124.778 99.9936Z" fill="black"/>
<path d="M133.894 99.9936C133.816 99.9936 133.739 99.9778 133.667 99.9471C133.595 99.9163 133.531 99.8714 133.477 99.8149C133.418 99.7566 133.372 99.6868 133.341 99.61C133.311 99.5331 133.296 99.4508 133.298 99.368C133.303 99.2289 133.34 99.0928 133.407 98.9708L134.301 97.5807H132.474C132.391 97.5855 132.308 97.572 132.231 97.5412C132.153 97.5103 132.084 97.4627 132.027 97.4019C131.919 97.2861 131.859 97.1335 131.859 96.9749C131.859 96.8164 131.919 96.6638 132.027 96.548C132.084 96.4872 132.153 96.4396 132.231 96.4087C132.308 96.3778 132.391 96.3644 132.474 96.3692L134.271 96.4189L133.427 95.0783C133.348 94.9461 133.303 94.7957 133.298 94.6414C133.296 94.5602 133.309 94.4793 133.339 94.4035C133.368 94.3277 133.412 94.2586 133.468 94.2002C133.525 94.1419 133.593 94.0955 133.667 94.0638C133.742 94.0321 133.823 94.0158 133.904 94.0158C134.015 94.0142 134.124 94.0453 134.218 94.1054C134.312 94.1654 134.385 94.2517 134.43 94.3535L135.304 95.9124L136.138 94.423C136.191 94.3071 136.274 94.2078 136.379 94.136C136.484 94.0642 136.607 94.0227 136.734 94.0158C136.812 94.0133 136.89 94.028 136.962 94.0589C137.034 94.0898 137.099 94.1361 137.151 94.1946C137.209 94.2491 137.255 94.3154 137.286 94.389C137.317 94.4626 137.332 94.5418 137.33 94.6216C137.328 94.7626 137.287 94.9003 137.211 95.0188L136.337 96.4189L138.154 96.3692C138.238 96.3642 138.323 96.3776 138.402 96.4085C138.481 96.4393 138.552 96.4869 138.611 96.548C138.713 96.6668 138.769 96.8183 138.769 96.9749C138.769 97.1316 138.713 97.2831 138.611 97.4019C138.552 97.463 138.481 97.5105 138.402 97.5414C138.323 97.5722 138.238 97.5857 138.154 97.5807H136.317L137.131 98.8517C137.223 99.0051 137.274 99.1794 137.28 99.3581C137.283 99.4364 137.27 99.5144 137.242 99.5877C137.215 99.661 137.173 99.7281 137.12 99.7853C137.066 99.8425 137.002 99.8885 136.931 99.9209C136.859 99.9532 136.782 99.9712 136.704 99.9737C136.581 99.9708 136.462 99.9327 136.36 99.8641C136.258 99.7955 136.177 99.6992 136.128 99.5865L135.304 98.1268L134.48 99.5865C134.431 99.703 134.35 99.8031 134.246 99.8752C134.142 99.9473 134.02 99.9884 133.894 99.9936Z" fill="black"/>
<path d="M142.97 99.9936C142.892 99.9936 142.815 99.9778 142.743 99.9471C142.671 99.9163 142.607 99.8714 142.553 99.8149C142.494 99.7566 142.448 99.6868 142.417 99.61C142.387 99.5331 142.372 99.4508 142.374 99.368C142.379 99.2289 142.416 99.0928 142.483 98.9708L143.377 97.5807H141.55C141.467 97.5855 141.384 97.572 141.307 97.5412C141.229 97.5103 141.16 97.4627 141.103 97.4019C140.995 97.2861 140.935 97.1335 140.935 96.9749C140.935 96.8164 140.995 96.6638 141.103 96.548C141.16 96.4872 141.229 96.4396 141.307 96.4087C141.384 96.3778 141.467 96.3644 141.55 96.3692L143.347 96.4189L142.503 95.0783C142.424 94.9461 142.379 94.7957 142.374 94.6414C142.372 94.5587 142.387 94.4763 142.417 94.3995C142.448 94.3226 142.494 94.2529 142.553 94.1946C142.609 94.1378 142.675 94.0927 142.748 94.0621C142.822 94.0314 142.9 94.0156 142.98 94.0158C143.091 94.0142 143.2 94.0453 143.294 94.1054C143.388 94.1654 143.461 94.2517 143.506 94.3535L144.38 95.9124L145.214 94.423C145.267 94.3071 145.35 94.2078 145.455 94.136C145.56 94.0642 145.683 94.0227 145.81 94.0158C145.888 94.0133 145.966 94.028 146.038 94.0589C146.11 94.0898 146.175 94.1361 146.227 94.1946C146.285 94.2491 146.331 94.3154 146.362 94.389C146.393 94.4626 146.408 94.5418 146.406 94.6216C146.404 94.7626 146.363 94.9003 146.287 95.0188L145.413 96.4189L147.23 96.3692C147.314 96.3642 147.399 96.3776 147.478 96.4085C147.557 96.4393 147.628 96.4869 147.687 96.548C147.789 96.6668 147.845 96.8183 147.845 96.9749C147.845 97.1316 147.789 97.2831 147.687 97.4019C147.628 97.463 147.557 97.5105 147.478 97.5414C147.399 97.5722 147.314 97.5857 147.23 97.5807H145.393L146.207 98.8517C146.299 99.0051 146.35 99.1794 146.356 99.3581C146.359 99.4386 146.345 99.5188 146.316 99.5938C146.287 99.6689 146.243 99.7374 146.187 99.795C146.135 99.8508 146.072 99.8953 146.002 99.926C145.932 99.9568 145.857 99.973 145.78 99.9737C145.657 99.9708 145.538 99.9327 145.436 99.8641C145.334 99.7955 145.253 99.6992 145.204 99.5865L144.38 98.1268L143.556 99.5865C143.507 99.703 143.426 99.8031 143.322 99.8752C143.218 99.9473 143.096 99.9884 142.97 99.9936Z" fill="black"/>
<path d="M174.209 121.958H186.353" stroke="white" stroke-width="3" stroke-linecap="round" stroke-linejoin="round"/>
<path d="M5.76933 32.5401V113.2C5.76933 115.536 6.69729 117.777 8.34907 119.428C10.0008 121.08 12.2411 122.008 14.5771 122.008H162.681" stroke="white" stroke-width="3" stroke-linecap="round" stroke-linejoin="round"/>
<path d="M5.76933 11.1512V23.2458" stroke="white" stroke-width="3" stroke-linecap="round" stroke-linejoin="round"/>
</svg>
